<?xml version="1.0" encoding="UTF-8" standalone="no"?>
<svg xmlns="http://www.w3.org/2000/svg" xmlns:xlink="http://www.w3.org/1999/xlink" width="5456" height="459" viewBox="0 0 5456 459">
<defs><marker id="arrow" markerWidth="10" markerHeight="10" refX="8" refY="3" orient="auto" markerUnits="strokeWidth"><path d="M0,0 L8,3 L0,6 Z" fill="#666"/></marker></defs>
<rect x="0" y="0" width="5456" height="459" fill="#ffffff"/>
<text x="20" y="28" font-family="sans-serif" font-size="20" font-weight="bold" fill="#333">logicalDesign (placeholder — regenerate in Business Central)</text>
<path d="M 68.0 91.0 L 237.0 91.0" fill="none" stroke="#666" stroke-width="1.5" marker-end="url(#arrow)"/>
<path d="M 237.0 91.0 L 457.0 91.0" fill="none" stroke="#666" stroke-width="1.5" marker-end="url(#arrow)"/>
<path d="M 457.0 91.0 L 628.0 91.0" fill="none" stroke="#666" stroke-width="1.5" marker-end="url(#arrow)"/>
<path d="M 628.0 91.0 L 797.0 91.0" fill="none" stroke="#666" stroke-width="1.5" marker-end="url(#arrow)"/>
<path d="M 797.0 91.0 L 968.0 91.0" fill="none" stroke="#666" stroke-width="1.5" marker-end="url(#arrow)"/>
<path d="M 968.0 91.0 L 1137.0 91.0" fill="none" stroke="#666" stroke-width="1.5" marker-end="url(#arrow)"/>
<path d="M 1137.0 91.0 L 1308.0 91.0" fill="none" stroke="#666" stroke-width="1.5" marker-end="url(#arrow)"/>
<path d="M 1308.0 91.0 L 1477.0 91.0" fill="none" stroke="#666" stroke-width="1.5" marker-end="url(#arrow)"/>
<path d="M 1477.0 91.0 L 1648.0 91.0" fill="none" stroke="#666" stroke-width="1.5" marker-end="url(#arrow)"/>
<path d="M 1648.0 91.0 L 1817.0 91.0" fill="none" stroke="#666" stroke-width="1.5" marker-end="url(#arrow)"/>
<path d="M 1817.0 91.0 L 1988.0 91.0" fill="none" stroke="#666" stroke-width="1.5" marker-end="url(#arrow)"/>
<path d="M 1988.0 91.0 L 2157.0 91.0" fill="none" stroke="#666" stroke-width="1.5" marker-end="url(#arrow)"/>
<path d="M 2157.0 91.0 L 2328.0 91.0" fill="none" stroke="#666" stroke-width="1.5" marker-end="url(#arrow)"/>
<path d="M 2328.0 91.0 L 2497.0 91.0" fill="none" stroke="#666" stroke-width="1.5" marker-end="url(#arrow)"/>
<path d="M 2497.0 91.0 L 2668.0 91.0" fill="none" stroke="#666" stroke-width="1.5" marker-end="url(#arrow)"/>
<path d="M 2668.0 91.0 L 2837.0 91.0" fill="none" stroke="#666" stroke-width="1.5" marker-end="url(#arrow)"/>
<path d="M 2837.0 91.0 L 3008.0 91.0" fill="none" stroke="#666" stroke-width="1.5" marker-end="url(#arrow)"/>
<path d="M 3008.0 91.0 L 3177.0 91.0" fill="none" stroke="#666" stroke-width="1.5" marker-end="url(#arrow)"/>
<path d="M 3177.0 91.0 L 3348.0 91.0" fill="none" stroke="#666" stroke-width="1.5" marker-end="url(#arrow)"/>
<path d="M 3348.0 91.0 L 3517.0 91.0" fill="none" stroke="#666" stroke-width="1.5" marker-end="url(#arrow)"/>
<path d="M 3517.0 91.0 L 3688.0 91.0" fill="none" stroke="#666" stroke-width="1.5" marker-end="url(#arrow)"/>
<path d="M 3688.0 91.0 L 3857.0 91.0" fill="none" stroke="#666" stroke-width="1.5" marker-end="url(#arrow)"/>
<path d="M 3857.0 91.0 L 4028.0 91.0" fill="none" stroke="#666" stroke-width="1.5" marker-end="url(#arrow)"/>
<path d="M 4028.0 91.0 L 4197.0 91.0" fill="none" stroke="#666" stroke-width="1.5" marker-end="url(#arrow)"/>
<path d="M 4197.0 91.0 L 4368.0 91.0" fill="none" stroke="#666" stroke-width="1.5" marker-end="url(#arrow)"/>
<path d="M 4368.0 91.0 L 4537.0 91.0" fill="none" stroke="#666" stroke-width="1.5" marker-end="url(#arrow)"/>
<path d="M 4537.0 91.0 L 4708.0 91.0" fill="none" stroke="#666" stroke-width="1.5" marker-end="url(#arrow)"/>
<path d="M 4708.0 91.0 L 4877.0 91.0" fill="none" stroke="#666" stroke-width="1.5" marker-end="url(#arrow)"/>
<path d="M 4877.0 91.0 L 5048.0 91.0" fill="none" stroke="#666" stroke-width="1.5" marker-end="url(#arrow)"/>
<path d="M 5048.0 91.0 L 5217.0 91.0" fill="none" stroke="#666" stroke-width="1.5" marker-end="url(#arrow)"/>
<path d="M 628.0 91.0 L 628.0 218.0" fill="none" stroke="#666" stroke-width="1.5" marker-end="url(#arrow)"/>
<path d="M 968.0 91.0 L 968.0 218.0" fill="none" stroke="#666" stroke-width="1.5" marker-end="url(#arrow)"/>
<path d="M 1308.0 91.0 L 1308.0 218.0" fill="none" stroke="#666" stroke-width="1.5" marker-end="url(#arrow)"/>
<path d="M 1648.0 91.0 L 1648.0 218.0" fill="none" stroke="#666" stroke-width="1.5" marker-end="url(#arrow)"/>
<path d="M 1988.0 91.0 L 1988.0 218.0" fill="none" stroke="#666" stroke-width="1.5" marker-end="url(#arrow)"/>
<path d="M 2328.0 91.0 L 2328.0 218.0" fill="none" stroke="#666" stroke-width="1.5" marker-end="url(#arrow)"/>
<path d="M 2668.0 91.0 L 2668.0 218.0" fill="none" stroke="#666" stroke-width="1.5" marker-end="url(#arrow)"/>
<path d="M 3008.0 91.0 L 3008.0 218.0" fill="none" stroke="#666" stroke-width="1.5" marker-end="url(#arrow)"/>
<path d="M 3348.0 91.0 L 3348.0 218.0" fill="none" stroke="#666" stroke-width="1.5" marker-end="url(#arrow)"/>
<path d="M 3688.0 91.0 L 3688.0 218.0" fill="none" stroke="#666" stroke-width="1.5" marker-end="url(#arrow)"/>
<path d="M 4028.0 91.0 L 4028.0 218.0" fill="none" stroke="#666" stroke-width="1.5" marker-end="url(#arrow)"/>
<path d="M 4368.0 91.0 L 4368.0 218.0" fill="none" stroke="#666" stroke-width="1.5" marker-end="url(#arrow)"/>
<path d="M 4708.0 91.0 L 4708.0 218.0" fill="none" stroke="#666" stroke-width="1.5" marker-end="url(#arrow)"/>
<path d="M 5048.0 91.0 L 5048.0 218.0" fill="none" stroke="#666" stroke-width="1.5" marker-end="url(#arrow)"/>
<path d="M 5217.0 91.0 L 5388.0 91.0" fill="none" stroke="#666" stroke-width="1.5" marker-end="url(#arrow)"/>
<path d="M 68.0 368.0 L 297.0 368.0" fill="none" stroke="#666" stroke-width="1.5" marker-end="url(#arrow)"/>
<path d="M 297.0 368.0 L 468.0 368.0" fill="none" stroke="#666" stroke-width="1.5" marker-end="url(#arrow)"/>
<circle cx="68.0" cy="91.0" r="28.0" fill="#a8d08d" stroke="#333" stroke-width="1.5"/>
<rect x="160.0" y="40.0" width="154.0" height="102.0" rx="8" ry="8" fill="#fafad2" stroke="#333" stroke-width="1.5"/>
<text x="237.0" y="91.0" font-family="sans-serif" font-size="11" text-anchor="middle" fill="#222">TMF_STORE: get data</text>
<rect x="380.0" y="40.0" width="154.0" height="102.0" rx="8" ry="8" fill="#fafad2" stroke="#333" stroke-width="1.5"/>
<text x="457.0" y="84.0" font-family="sans-serif" font-size="11" text-anchor="middle" fill="#222">REST_API_CALL:</text>
<text x="457.0" y="98.0" font-family="sans-serif" font-size="11" text-anchor="middle" fill="#222">cross/findService</text>
<polygon points="628.0,63.0 656.0,91.0 628.0,119.0 600.0,91.0" fill="#eeeeee" stroke="#333" stroke-width="1.5"/>
<text x="628.0" y="96.0" font-family="sans-serif" font-size="14" text-anchor="middle" fill="#333">×</text>
<rect x="720.0" y="40.0" width="154.0" height="102.0" rx="8" ry="8" fill="#fafad2" stroke="#333" stroke-width="1.5"/>
<text x="797.0" y="84.0" font-family="sans-serif" font-size="11" text-anchor="middle" fill="#222">REST_API_CALL:</text>
<text x="797.0" y="98.0" font-family="sans-serif" font-size="11" text-anchor="middle" fill="#222">cross/findProject</text>
<polygon points="968.0,63.0 996.0,91.0 968.0,119.0 940.0,91.0" fill="#eeeeee" stroke="#333" stroke-width="1.5"/>
<text x="968.0" y="96.0" font-family="sans-serif" font-size="14" text-anchor="middle" fill="#333">×</text>
<rect x="1060.0" y="40.0" width="154.0" height="102.0" rx="8" ry="8" fill="#eeeeee" stroke="#333" stroke-width="1.5"/>
<text x="1137.0" y="84.0" font-family="sans-serif" font-size="11" text-anchor="middle" fill="#222">find</text>
<text x="1137.0" y="98.0" font-family="sans-serif" font-size="11" text-anchor="middle" fill="#222">servicePhysicalAccessCrossId</text>
<polygon points="1308.0,63.0 1336.0,91.0 1308.0,119.0 1280.0,91.0" fill="#eeeeee" stroke="#333" stroke-width="1.5"/>
<text x="1308.0" y="96.0" font-family="sans-serif" font-size="14" text-anchor="middle" fill="#333">×</text>
<rect x="1400.0" y="40.0" width="154.0" height="102.0" rx="8" ry="8" fill="#fafad2" stroke="#333" stroke-width="1.5"/>
<text x="1477.0" y="84.0" font-family="sans-serif" font-size="11" text-anchor="middle" fill="#222">REST_API_CALL:</text>
<text x="1477.0" y="98.0" font-family="sans-serif" font-size="11" text-anchor="middle" fill="#222">cross/findService/SC_PHYSICAL_ACCESS</text>
<polygon points="1648.0,63.0 1676.0,91.0 1648.0,119.0 1620.0,91.0" fill="#eeeeee" stroke="#333" stroke-width="1.5"/>
<text x="1648.0" y="96.0" font-family="sans-serif" font-size="14" text-anchor="middle" fill="#333">×</text>
<rect x="1740.0" y="40.0" width="154.0" height="102.0" rx="8" ry="8" fill="#eeeeee" stroke="#333" stroke-width="1.5"/>
<text x="1817.0" y="84.0" font-family="sans-serif" font-size="11" text-anchor="middle" fill="#222">find</text>
<text x="1817.0" y="98.0" font-family="sans-serif" font-size="11" text-anchor="middle" fill="#222">customerSidePlaceCrossId</text>
<polygon points="1988.0,63.0 2016.0,91.0 1988.0,119.0 1960.0,91.0" fill="#eeeeee" stroke="#333" stroke-width="1.5"/>
<text x="1988.0" y="96.0" font-family="sans-serif" font-size="14" text-anchor="middle" fill="#333">×</text>
<rect x="2080.0" y="40.0" width="154.0" height="102.0" rx="8" ry="8" fill="#fafad2" stroke="#333" stroke-width="1.5"/>
<text x="2157.0" y="84.0" font-family="sans-serif" font-size="11" text-anchor="middle" fill="#222">REST_API_CALL:</text>
<text x="2157.0" y="98.0" font-family="sans-serif" font-size="11" text-anchor="middle" fill="#222">cross/findNetworkSideCage</text>
<polygon points="2328.0,63.0 2356.0,91.0 2328.0,119.0 2300.0,91.0" fill="#eeeeee" stroke="#333" stroke-width="1.5"/>
<text x="2328.0" y="96.0" font-family="sans-serif" font-size="14" text-anchor="middle" fill="#333">×</text>
<rect x="2420.0" y="40.0" width="154.0" height="102.0" rx="8" ry="8" fill="#fafad2" stroke="#333" stroke-width="1.5"/>
<text x="2497.0" y="84.0" font-family="sans-serif" font-size="11" text-anchor="middle" fill="#222">REST_API_CALL:</text>
<text x="2497.0" y="98.0" font-family="sans-serif" font-size="11" text-anchor="middle" fill="#222">cross/findNetworkSidePlace</text>
<polygon points="2668.0,63.0 2696.0,91.0 2668.0,119.0 2640.0,91.0" fill="#eeeeee" stroke="#333" stroke-width="1.5"/>
<text x="2668.0" y="96.0" font-family="sans-serif" font-size="14" text-anchor="middle" fill="#333">×</text>
<rect x="2760.0" y="40.0" width="154.0" height="102.0" rx="8" ry="8" fill="#eeeeee" stroke="#333" stroke-width="1.5"/>
<text x="2837.0" y="91.0" font-family="sans-serif" font-size="11" text-anchor="middle" fill="#222">find opticalPath</text>
<polygon points="3008.0,63.0 3036.0,91.0 3008.0,119.0 2980.0,91.0" fill="#eeeeee" stroke="#333" stroke-width="1.5"/>
<text x="3008.0" y="96.0" font-family="sans-serif" font-size="14" text-anchor="middle" fill="#333">×</text>
<rect x="3100.0" y="40.0" width="154.0" height="102.0" rx="8" ry="8" fill="#fafad2" stroke="#333" stroke-width="1.5"/>
<text x="3177.0" y="84.0" font-family="sans-serif" font-size="11" text-anchor="middle" fill="#222">REST_API_CALL:</text>
<text x="3177.0" y="98.0" font-family="sans-serif" font-size="11" text-anchor="middle" fill="#222">cross/createCPE</text>
<polygon points="3348.0,63.0 3376.0,91.0 3348.0,119.0 3320.0,91.0" fill="#eeeeee" stroke="#333" stroke-width="1.5"/>
<text x="3348.0" y="96.0" font-family="sans-serif" font-size="14" text-anchor="middle" fill="#333">×</text>
<rect x="3440.0" y="40.0" width="154.0" height="102.0" rx="8" ry="8" fill="#fafad2" stroke="#333" stroke-width="1.5"/>
<text x="3517.0" y="84.0" font-family="sans-serif" font-size="11" text-anchor="middle" fill="#222">REST_API_CALL:</text>
<text x="3517.0" y="98.0" font-family="sans-serif" font-size="11" text-anchor="middle" fill="#222">cross/findCustomerSideCage</text>
<polygon points="3688.0,63.0 3716.0,91.0 3688.0,119.0 3660.0,91.0" fill="#eeeeee" stroke="#333" stroke-width="1.5"/>
<text x="3688.0" y="96.0" font-family="sans-serif" font-size="14" text-anchor="middle" fill="#333">×</text>
<rect x="3780.0" y="40.0" width="154.0" height="102.0" rx="8" ry="8" fill="#fafad2" stroke="#333" stroke-width="1.5"/>
<text x="3857.0" y="84.0" font-family="sans-serif" font-size="11" text-anchor="middle" fill="#222">REST_API_CALL:</text>
<text x="3857.0" y="98.0" font-family="sans-serif" font-size="11" text-anchor="middle" fill="#222">cross/createCustomerSidePatchCord</text>
<polygon points="4028.0,63.0 4056.0,91.0 4028.0,119.0 4000.0,91.0" fill="#eeeeee" stroke="#333" stroke-width="1.5"/>
<text x="4028.0" y="96.0" font-family="sans-serif" font-size="14" text-anchor="middle" fill="#333">×</text>
<rect x="4120.0" y="40.0" width="154.0" height="102.0" rx="8" ry="8" fill="#fafad2" stroke="#333" stroke-width="1.5"/>
<text x="4197.0" y="84.0" font-family="sans-serif" font-size="11" text-anchor="middle" fill="#222">REST_API_CALL:</text>
<text x="4197.0" y="98.0" font-family="sans-serif" font-size="11" text-anchor="middle" fill="#222">cross/createNetworkSidePatchCord</text>
<polygon points="4368.0,63.0 4396.0,91.0 4368.0,119.0 4340.0,91.0" fill="#eeeeee" stroke="#333" stroke-width="1.5"/>
<text x="4368.0" y="96.0" font-family="sans-serif" font-size="14" text-anchor="middle" fill="#333">×</text>
<rect x="4460.0" y="40.0" width="154.0" height="102.0" rx="8" ry="8" fill="#fafad2" stroke="#333" stroke-width="1.5"/>
<text x="4537.0" y="84.0" font-family="sans-serif" font-size="11" text-anchor="middle" fill="#222">REST_API_CALL:</text>
<text x="4537.0" y="98.0" font-family="sans-serif" font-size="11" text-anchor="middle" fill="#222">cross/createEthLink</text>
<polygon points="4708.0,63.0 4736.0,91.0 4708.0,119.0 4680.0,91.0" fill="#eeeeee" stroke="#333" stroke-width="1.5"/>
<text x="4708.0" y="96.0" font-family="sans-serif" font-size="14" text-anchor="middle" fill="#333">×</text>
<rect x="4800.0" y="40.0" width="154.0" height="102.0" rx="8" ry="8" fill="#fafad2" stroke="#333" stroke-width="1.5"/>
<text x="4877.0" y="84.0" font-family="sans-serif" font-size="11" text-anchor="middle" fill="#222">REST_API_CALL:</text>
<text x="4877.0" y="98.0" font-family="sans-serif" font-size="11" text-anchor="middle" fill="#222">cross/updateEthLinkProviders</text>
<polygon points="5048.0,63.0 5076.0,91.0 5048.0,119.0 5020.0,91.0" fill="#eeeeee" stroke="#333" stroke-width="1.5"/>
<text x="5048.0" y="96.0" font-family="sans-serif" font-size="14" text-anchor="middle" fill="#333">×</text>
<rect x="5140.0" y="40.0" width="154.0" height="102.0" rx="8" ry="8" fill="#eeeeee" stroke="#333" stroke-width="1.5"/>
<text x="5217.0" y="84.0" font-family="sans-serif" font-size="11" text-anchor="middle" fill="#222">Create result:</text>
<text x="5217.0" y="98.0" font-family="sans-serif" font-size="11" text-anchor="middle" fill="#222">COMPLETED</text>
<circle cx="5388.0" cy="91.0" r="28.0" fill="#e8a0a0" stroke="#333" stroke-width="3.0"/>
<circle cx="628.0" cy="218.0" r="28.0" fill="#cfe2f3" stroke="#333" stroke-width="1.5"/>
<circle cx="628.0" cy="218.0" r="24.0" fill="none" stroke="#333" stroke-width="1"/>
<text x="628.0" y="260.0" font-family="sans-serif" font-size="11" text-anchor="middle" fill="#333">Failed</text>
<circle cx="968.0" cy="218.0" r="28.0" fill="#cfe2f3" stroke="#333" stroke-width="1.5"/>
<circle cx="968.0" cy="218.0" r="24.0" fill="none" stroke="#333" stroke-width="1"/>
<text x="968.0" y="260.0" font-family="sans-serif" font-size="11" text-anchor="middle" fill="#333">Failed</text>
<circle cx="1308.0" cy="218.0" r="28.0" fill="#cfe2f3" stroke="#333" stroke-width="1.5"/>
<circle cx="1308.0" cy="218.0" r="24.0" fill="none" stroke="#333" stroke-width="1"/>
<text x="1308.0" y="260.0" font-family="sans-serif" font-size="11" text-anchor="middle" fill="#333">Failed</text>
<circle cx="1648.0" cy="218.0" r="28.0" fill="#cfe2f3" stroke="#333" stroke-width="1.5"/>
<circle cx="1648.0" cy="218.0" r="24.0" fill="none" stroke="#333" stroke-width="1"/>
<text x="1648.0" y="260.0" font-family="sans-serif" font-size="11" text-anchor="middle" fill="#333">Failed</text>
<circle cx="1988.0" cy="218.0" r="28.0" fill="#cfe2f3" stroke="#333" stroke-width="1.5"/>
<circle cx="1988.0" cy="218.0" r="24.0" fill="none" stroke="#333" stroke-width="1"/>
<text x="1988.0" y="260.0" font-family="sans-serif" font-size="11" text-anchor="middle" fill="#333">Failed</text>
<circle cx="2328.0" cy="218.0" r="28.0" fill="#cfe2f3" stroke="#333" stroke-width="1.5"/>
<circle cx="2328.0" cy="218.0" r="24.0" fill="none" stroke="#333" stroke-width="1"/>
<text x="2328.0" y="260.0" font-family="sans-serif" font-size="11" text-anchor="middle" fill="#333">Failed</text>
<circle cx="2668.0" cy="218.0" r="28.0" fill="#cfe2f3" stroke="#333" stroke-width="1.5"/>
<circle cx="2668.0" cy="218.0" r="24.0" fill="none" stroke="#333" stroke-width="1"/>
<text x="2668.0" y="260.0" font-family="sans-serif" font-size="11" text-anchor="middle" fill="#333">Failed</text>
<circle cx="3008.0" cy="218.0" r="28.0" fill="#cfe2f3" stroke="#333" stroke-width="1.5"/>
<circle cx="3008.0" cy="218.0" r="24.0" fill="none" stroke="#333" stroke-width="1"/>
<text x="3008.0" y="260.0" font-family="sans-serif" font-size="11" text-anchor="middle" fill="#333">Failed</text>
<circle cx="3348.0" cy="218.0" r="28.0" fill="#cfe2f3" stroke="#333" stroke-width="1.5"/>
<circle cx="3348.0" cy="218.0" r="24.0" fill="none" stroke="#333" stroke-width="1"/>
<text x="3348.0" y="260.0" font-family="sans-serif" font-size="11" text-anchor="middle" fill="#333">Failed</text>
<circle cx="3688.0" cy="218.0" r="28.0" fill="#cfe2f3" stroke="#333" stroke-width="1.5"/>
<circle cx="3688.0" cy="218.0" r="24.0" fill="none" stroke="#333" stroke-width="1"/>
<text x="3688.0" y="260.0" font-family="sans-serif" font-size="11" text-anchor="middle" fill="#333">Failed</text>
<circle cx="4028.0" cy="218.0" r="28.0" fill="#cfe2f3" stroke="#333" stroke-width="1.5"/>
<circle cx="4028.0" cy="218.0" r="24.0" fill="none" stroke="#333" stroke-width="1"/>
<text x="4028.0" y="260.0" font-family="sans-serif" font-size="11" text-anchor="middle" fill="#333">Failed</text>
<circle cx="4368.0" cy="218.0" r="28.0" fill="#cfe2f3" stroke="#333" stroke-width="1.5"/>
<circle cx="4368.0" cy="218.0" r="24.0" fill="none" stroke="#333" stroke-width="1"/>
<text x="4368.0" y="260.0" font-family="sans-serif" font-size="11" text-anchor="middle" fill="#333">Failed</text>
<circle cx="4708.0" cy="218.0" r="28.0" fill="#cfe2f3" stroke="#333" stroke-width="1.5"/>
<circle cx="4708.0" cy="218.0" r="24.0" fill="none" stroke="#333" stroke-width="1"/>
<text x="4708.0" y="260.0" font-family="sans-serif" font-size="11" text-anchor="middle" fill="#333">Failed</text>
<circle cx="5048.0" cy="218.0" r="28.0" fill="#cfe2f3" stroke="#333" stroke-width="1.5"/>
<circle cx="5048.0" cy="218.0" r="24.0" fill="none" stroke="#333" stroke-width="1"/>
<text x="5048.0" y="260.0" font-family="sans-serif" font-size="11" text-anchor="middle" fill="#333">Failed</text>
<circle cx="68.0" cy="368.0" r="28.0" fill="#cfe2f3" stroke="#333" stroke-width="1.5"/>
<circle cx="68.0" cy="368.0" r="24.0" fill="none" stroke="#333" stroke-width="1"/>
<text x="68.0" y="410.0" font-family="sans-serif" font-size="11" text-anchor="middle" fill="#333">Failed</text>
<rect x="220.0" y="317.0" width="154.0" height="102.0" rx="8" ry="8" fill="#eeeeee" stroke="#333" stroke-width="1.5"/>
<text x="297.0" y="368.0" font-family="sans-serif" font-size="11" text-anchor="middle" fill="#222">Create result: FAILED</text>
<circle cx="468.0" cy="368.0" r="28.0" fill="#e8a0a0" stroke="#333" stroke-width="3.0"/>
</svg>
