<svg version="1.1" xmlns="http://www.w3.org/2000/svg" xmlns:xlink="http://www.w3.org/1999/xlink" width="1054" height="2006" viewBox="0 0 1054 2006"><defs/><g transform="matrix(1,0,0,1,0,0)"><g><g><g><path fill="none" stroke="#d3d3d3" paint-order="fill stroke markers" d=" M 0 0 L 1200 0" stroke-miterlimit="10" stroke-opacity="0.8" stroke-dasharray="5"/></g><g><path fill="none" stroke="#d3d3d3" paint-order="fill stroke markers" d=" M 0 0 L 0 800" stroke-miterlimit="10" stroke-opacity="0.8" stroke-dasharray="5"/></g></g><g id="_ECD39505-5686-4C54-B7B5-65076DBCDA3D" bpmn2nodeid="_ECD39505-5686-4C54-B7B5-65076DBCDA3D" transform="matrix(1,0,0,1,600,1750)"><g><path fill="none" stroke="none"/></g><g transform="matrix(1,0,0,1,0,0)"><path fill="#ffffff" stroke="none" id="_ECD39505-5686-4C54-B7B5-65076DBCDA3D?shapeType=BACKGROUND" paint-order="stroke fill markers" d=" M 2 0 L 152 0 L 152 0 A 2 2 0 0 1 154 2 L 154 100 L 154 100 A 2 2 0 0 1 152 102 L 2 102 L 2 102 A 2 2 0 0 1 0 100 L 0 2 L 0 2.0000000000000004 A 2 2 0 0 1 1.9999999999999996 0 Z"/></g><g transform="matrix(1,0,0,1,0,0)"><path fill="none" stroke="#000000" id="_ECD39505-5686-4C54-B7B5-65076DBCDA3D?shapeType=BORDER&amp;renderType=STROKE" paint-order="fill stroke markers" d=" M 2 0 L 152 0 L 152 0 A 2 2 0 0 1 154 2 L 154 100 L 154 100 A 2 2 0 0 1 152 102 L 2 102 L 2 102 A 2 2 0 0 1 0 100 L 0 2 L 0 2.0000000000000004 A 2 2 0 0 1 1.9999999999999996 0 Z" stroke-miterlimit="10" stroke-width="1.5" stroke-dasharray=""/></g><g><g transform="matrix(0.06,0,0,0.06,9.4,9.4)"><g transform="matrix(1,0,0,1,0,0)"><path fill="#393f44" stroke="none" id="_ECD39505-5686-4C54-B7B5-65076DBCDA3D_task__T703__3wNP" paint-order="stroke fill markers" d=" M 0 0 M 197.3 130.2 C 194.4 127.29999999999998 189.60000000000002 127.29999999999998 186.70000000000002 130.2 L 130.20000000000002 186.7 C 127.30000000000001 189.6 127.30000000000001 194.39999999999998 130.20000000000002 197.29999999999998 L 186.70000000000002 253.79999999999998 C 188.10000000000002 255.29999999999998 190.10000000000002 255.99999999999997 192.00000000000003 255.99999999999997 C 193.90000000000003 255.99999999999997 195.90000000000003 255.29999999999998 197.30000000000004 253.69999999999996 C 200.20000000000005 250.79999999999995 200.20000000000005 245.99999999999997 197.30000000000004 243.09999999999997 L 146.2 192 L 197.29999999999998 140.8 C 200.2 137.9 200.2 133.1 197.3 130.2 Z"/></g><g transform="matrix(1,0,0,1,0,0)"><path fill="#393f44" stroke="none" id="_ECD39505-5686-4C54-B7B5-65076DBCDA3D_task__T703__gqkB" paint-order="stroke fill markers" d=" M 0 0 M 261.3 130.2 C 258.40000000000003 127.29999999999998 253.60000000000002 127.29999999999998 250.70000000000002 130.2 C 247.8 133.1 247.8 137.89999999999998 250.70000000000002 140.79999999999998 L 301.8 191.89999999999998 L 250.7 243 C 247.79999999999998 245.9 247.79999999999998 250.7 250.7 253.6 C 252.1 255.29999999999998 254.1 256 256 256 C 257.9 256 259.9 255.3 261.3 253.8 L 317.8 197.3 C 320.7 194.4 320.7 189.60000000000002 317.8 186.70000000000002 L 261.3 130.2 Z"/></g><g transform="matrix(1,0,0,1,0,0)"><path fill="#393f44" stroke="none" id="_ECD39505-5686-4C54-B7B5-65076DBCDA3D_task__T703__x19X" paint-order="stroke fill markers" d=" M 0 0 M 400 32 C 400 32 152.8 32 128 32 C 62 32 64 96 64 96 L 64 288 L 1 288 C 1 288 -4 416 78 416 L 320 416 C 368 416 384 368 384 336 C 384 314.2 384 224.4 384 160 L 448 160 L 448 96 C 448 96 449 32 400 32 Z M 0 0 M 78 383.9 C 68.5 383.9 61.6 381.09999999999997 55.5 374.9 C 43.4 362.4 37.5 339.59999999999997 34.9 320 L 256.9 320 C 257.09999999999997 322.7 257.29999999999995 325.4 257.59999999999997 328.2 C 259.99999999999994 351.59999999999997 264.7 370.09999999999997 271.9 383.9 L 78 383.9 L 78 383.9 Z M 0 0 M 352 336 C 352 345.9 349.6 360.3 342.9 371 C 337.2 380.1 330.4 384 320 384 C 285 384 288 288 288 288 L 96 288 L 96 96 L 96 95.9 L 96 95.10000000000001 C 96 90.60000000000001 97.6 78.30000000000001 104.7 71.20000000000002 C 106.5 69.40000000000002 111.9 64.00000000000001 128 64.00000000000001 L 356.5 64.00000000000001 C 354.4 72.80000000000001 352.8 81.80000000000001 352.2 89.9 C 352.2 90.5 352.09999999999997 91.10000000000001 352.09999999999997 91.7 C 352.09999999999997 92 352.09999999999997 92.3 352.09999999999997 92.60000000000001 C 352 94.8 352 96 352 96 L 352 160 L 352 336 Z"/></g></g></g><g transform="matrix(1,0,0,1,35,36)"><text fill="#000000" stroke="none" font-family="Open Sans" font-size="12pt" font-style="normal" font-weight="normal" text-decoration="normal" x="51.85546875" y="12" text-anchor="middle" dominant-baseline="alphabetic">Create result: </text><text fill="#000000" stroke="none" font-family="Open Sans" font-size="12pt" font-style="normal" font-weight="normal" text-decoration="normal" x="51.85546875" y="27" text-anchor="middle" dominant-baseline="alphabetic"> COMPLETED  </text></g></g><g transform="matrix(1,0,0,1,600,1750)"/><g id="_D25B668F-EE31-469E-9F12-F75D54EC088E" bpmn2nodeid="_D25B668F-EE31-469E-9F12-F75D54EC088E" transform="matrix(1,0,0,1,351,400)"><g><path fill="none" stroke="none"/></g><g transform="matrix(1,0,0,1,0,0)"><path fill="#ffffff" stroke="none" id="_D25B668F-EE31-469E-9F12-F75D54EC088E?shapeType=BACKGROUND" paint-order="stroke fill markers" d=" M 2 0 L 152 0 L 152 0 A 2 2 0 0 1 154 2 L 154 100 L 154 100 A 2 2 0 0 1 152 102 L 2 102 L 2 102 A 2 2 0 0 1 0 100 L 0 2 L 0 2.0000000000000004 A 2 2 0 0 1 1.9999999999999996 0 Z"/></g><g transform="matrix(1,0,0,1,0,0)"><path fill="none" stroke="#000000" id="_D25B668F-EE31-469E-9F12-F75D54EC088E?shapeType=BORDER&amp;renderType=STROKE" paint-order="fill stroke markers" d=" M 2 0 L 152 0 L 152 0 A 2 2 0 0 1 154 2 L 154 100 L 154 100 A 2 2 0 0 1 152 102 L 2 102 L 2 102 A 2 2 0 0 1 0 100 L 0 2 L 0 2.0000000000000004 A 2 2 0 0 1 1.9999999999999996 0 Z" stroke-miterlimit="10" stroke-width="1.5" stroke-dasharray=""/></g><g><g transform="matrix(1,0,0,1,0,0)"><g transform="matrix(1,0,0,1,10,10)"/></g></g><g transform="matrix(1,0,0,1,30,21)"><text fill="#000000" stroke="none" font-family="Open Sans" font-size="12pt" font-style="normal" font-weight="normal" text-decoration="normal" x="58.84765625" y="12" text-anchor="middle" dominant-baseline="alphabetic">REST_API_CALL:</text><text fill="#000000" stroke="none" font-family="Open Sans" font-size="12pt" font-style="normal" font-weight="normal" text-decoration="normal" x="58.84765625" y="27" text-anchor="middle" dominant-baseline="alphabetic">                            </text><text fill="#000000" stroke="none" font-family="Open Sans" font-size="12pt" font-style="normal" font-weight="normal" text-decoration="normal" x="58.84765625" y="42" text-anchor="middle" dominant-baseline="alphabetic">cross/findServic</text><text fill="#000000" stroke="none" font-family="Open Sans" font-size="12pt" font-style="normal" font-weight="normal" text-decoration="normal" x="58.84765625" y="57" text-anchor="middle" dominant-baseline="alphabetic">             e             </text></g></g><g transform="matrix(1,0,0,1,351,400)"/><g id="_308AF56D-8B1A-4B9D-81F1-D546F32D9087" bpmn2nodeid="_308AF56D-8B1A-4B9D-81F1-D546F32D9087" transform="matrix(1,0,0,1,351,550)"><g><path fill="none" stroke="none"/></g><g transform="matrix(1,0,0,1,0,0)"><path fill="#ffffff" stroke="none" id="_308AF56D-8B1A-4B9D-81F1-D546F32D9087?shapeType=BACKGROUND" paint-order="stroke fill markers" d=" M 2 0 L 152 0 L 152 0 A 2 2 0 0 1 154 2 L 154 100 L 154 100 A 2 2 0 0 1 152 102 L 2 102 L 2 102 A 2 2 0 0 1 0 100 L 0 2 L 0 2.0000000000000004 A 2 2 0 0 1 1.9999999999999996 0 Z"/></g><g transform="matrix(1,0,0,1,0,0)"><path fill="none" stroke="#000000" id="_308AF56D-8B1A-4B9D-81F1-D546F32D9087?shapeType=BORDER&amp;renderType=STROKE" paint-order="fill stroke markers" d=" M 2 0 L 152 0 L 152 0 A 2 2 0 0 1 154 2 L 154 100 L 154 100 A 2 2 0 0 1 152 102 L 2 102 L 2 102 A 2 2 0 0 1 0 100 L 0 2 L 0 2.0000000000000004 A 2 2 0 0 1 1.9999999999999996 0 Z" stroke-miterlimit="10" stroke-width="1.5" stroke-dasharray=""/></g><g><g transform="matrix(0.06,0,0,0.06,9.4,9.4)"><g transform="matrix(1,0,0,1,0,0)"><path fill="#393f44" stroke="none" id="_308AF56D-8B1A-4B9D-81F1-D546F32D9087_task__T703__3wNP" paint-order="stroke fill markers" d=" M 0 0 M 197.3 130.2 C 194.4 127.29999999999998 189.60000000000002 127.29999999999998 186.70000000000002 130.2 L 130.20000000000002 186.7 C 127.30000000000001 189.6 127.30000000000001 194.39999999999998 130.20000000000002 197.29999999999998 L 186.70000000000002 253.79999999999998 C 188.10000000000002 255.29999999999998 190.10000000000002 255.99999999999997 192.00000000000003 255.99999999999997 C 193.90000000000003 255.99999999999997 195.90000000000003 255.29999999999998 197.30000000000004 253.69999999999996 C 200.20000000000005 250.79999999999995 200.20000000000005 245.99999999999997 197.30000000000004 243.09999999999997 L 146.2 192 L 197.29999999999998 140.8 C 200.2 137.9 200.2 133.1 197.3 130.2 Z"/></g><g transform="matrix(1,0,0,1,0,0)"><path fill="#393f44" stroke="none" id="_308AF56D-8B1A-4B9D-81F1-D546F32D9087_task__T703__gqkB" paint-order="stroke fill markers" d=" M 0 0 M 261.3 130.2 C 258.40000000000003 127.29999999999998 253.60000000000002 127.29999999999998 250.70000000000002 130.2 C 247.8 133.1 247.8 137.89999999999998 250.70000000000002 140.79999999999998 L 301.8 191.89999999999998 L 250.7 243 C 247.79999999999998 245.9 247.79999999999998 250.7 250.7 253.6 C 252.1 255.29999999999998 254.1 256 256 256 C 257.9 256 259.9 255.3 261.3 253.8 L 317.8 197.3 C 320.7 194.4 320.7 189.60000000000002 317.8 186.70000000000002 L 261.3 130.2 Z"/></g><g transform="matrix(1,0,0,1,0,0)"><path fill="#393f44" stroke="none" id="_308AF56D-8B1A-4B9D-81F1-D546F32D9087_task__T703__x19X" paint-order="stroke fill markers" d=" M 0 0 M 400 32 C 400 32 152.8 32 128 32 C 62 32 64 96 64 96 L 64 288 L 1 288 C 1 288 -4 416 78 416 L 320 416 C 368 416 384 368 384 336 C 384 314.2 384 224.4 384 160 L 448 160 L 448 96 C 448 96 449 32 400 32 Z M 0 0 M 78 383.9 C 68.5 383.9 61.6 381.09999999999997 55.5 374.9 C 43.4 362.4 37.5 339.59999999999997 34.9 320 L 256.9 320 C 257.09999999999997 322.7 257.29999999999995 325.4 257.59999999999997 328.2 C 259.99999999999994 351.59999999999997 264.7 370.09999999999997 271.9 383.9 L 78 383.9 L 78 383.9 Z M 0 0 M 352 336 C 352 345.9 349.6 360.3 342.9 371 C 337.2 380.1 330.4 384 320 384 C 285 384 288 288 288 288 L 96 288 L 96 96 L 96 95.9 L 96 95.10000000000001 C 96 90.60000000000001 97.6 78.30000000000001 104.7 71.20000000000002 C 106.5 69.40000000000002 111.9 64.00000000000001 128 64.00000000000001 L 356.5 64.00000000000001 C 354.4 72.80000000000001 352.8 81.80000000000001 352.2 89.9 C 352.2 90.5 352.09999999999997 91.10000000000001 352.09999999999997 91.7 C 352.09999999999997 92 352.09999999999997 92.3 352.09999999999997 92.60000000000001 C 352 94.8 352 96 352 96 L 352 160 L 352 336 Z"/></g></g></g><g transform="matrix(1,0,0,1,36.05078125,36)"><text fill="#000000" stroke="none" font-family="Open Sans" font-size="12pt" font-style="normal" font-weight="normal" text-decoration="normal" x="40.94921875" y="12" text-anchor="middle" dominant-baseline="alphabetic">      find       </text><text fill="#000000" stroke="none" font-family="Open Sans" font-size="12pt" font-style="normal" font-weight="normal" text-decoration="normal" x="40.94921875" y="27" text-anchor="middle" dominant-baseline="alphabetic">cpeCrossId</text></g></g><g transform="matrix(1,0,0,1,351,550)"/><g id="_EF59CBD4-ED4B-481F-A13A-B63677AA1282" bpmn2nodeid="_EF59CBD4-ED4B-481F-A13A-B63677AA1282" transform="matrix(1,0,0,1,650,1150)"><g><path fill="none" stroke="none"/></g><g transform="matrix(0.125,0,0,0.125,0,0)"><g transform="matrix(1,0,0,1,0,0)"><path fill="#bedee1" stroke="none" id="_EF59CBD4-ED4B-481F-A13A-B63677AA1282?shapeType=BACKGROUND" paint-order="stroke fill markers" d=" M 0 0 M 444 224 C 444 263.9 434.2 300.8 414.4 334.5 C 394.7 368.2 368 394.9 334.4 414.5 C 300.79999999999995 434.1 263.9 444 224 444 C 184.10000000000002 444 147.2 434.2 113.5 414.4 C 79.8 394.7 53.1 368 33.5 334.4 C 13.899999999999999 300.79999999999995 4 263.9 4 224 C 4 184.10000000000002 13.8 147.2 33.6 113.5 C 53.400000000000006 79.80000000000001 80.1 53.1 113.6 33.5 C 147.1 13.899999999999999 184.1 4 224 4 C 263.9 4 300.8 13.8 334.5 33.6 C 368.2 53.400000000000006 394.9 80.1 414.5 113.6 C 434.1 147.1 444 184.1 444 224 Z"/></g><g><g transform="matrix(1,0,0,1,0,0)"><g transform="matrix(1,0,0,1,0,0)"><path fill="#007a87" stroke="none" id="_EF59CBD4-ED4B-481F-A13A-B63677AA1282?shapeType=BORDER&amp;renderType=FILL" paint-order="stroke fill markers" d=" M 0 0 M 224 408 C 122.5 408 40 325.5 40 224 C 40 122.5 122.5 40 224 40 C 325.5 40 408 122.5 408 224 C 408 325.5 325.5 408 224 408 Z M 0 0 M 224 56 C 131.4 56 56 131.4 56 224 C 56 316.6 131.4 392 224 392 C 316.6 392 392 316.6 392 224 C 392 131.39999999999998 316.6 56 224 56 Z M 0 0 M 224 16 C 252.1 16 279.3 21.5 305 32.3 C 329.8 42.8 352 57.8 371.1 76.9 C 390.20000000000005 96.00000000000001 405.20000000000005 118.30000000000001 415.70000000000005 143 C 426.50000000000006 168.6 432.00000000000006 195.9 432.00000000000006 224 C 432.00000000000006 252.1 426.50000000000006 279.3 415.70000000000005 305 C 405.20000000000005 329.8 390.20000000000005 352 371.1 371.1 C 352 390.20000000000005 329.70000000000005 405.20000000000005 305 415.70000000000005 C 279.4 426.50000000000006 252.1 432.00000000000006 224 432.00000000000006 C 195.9 432.00000000000006 168.7 426.50000000000006 143 415.70000000000005 C 118.2 405.20000000000005 96 390.20000000000005 76.9 371.1 C 57.80000000000001 352 42.8 329.7 32.3 305 C 21.5 279.3 16 252.1 16 224 C 16 195.9 21.5 168.7 32.3 143 C 42.8 118.2 57.8 96 76.9 76.9 C 96.00000000000001 57.80000000000001 118.30000000000001 42.800000000000004 143 32.300000000000004 C 168.7 21.5 195.9 16 224 16 M 224 0 C 100.3 0 0 100.3 0 224 C 0 347.7 100.3 448 224 448 C 347.7 448 448 347.7 448 224 C 448 100.30000000000001 347.7 0 224 0 L 224 0 Z"/></g></g></g><g><g transform="matrix(1,0,0,1,0,0)"><g transform="matrix(1,0,0,1,0,0)"><path fill="#007a87" stroke="none" id="_EF59CBD4-ED4B-481F-A13A-B63677AA1282_link-throwing" paint-order="stroke fill markers" d=" M 0 0 M 222.8 131.3 C 218.5 131.3 214.70000000000002 132.9 211.60000000000002 136.10000000000002 L 202.3 145.50000000000003 C 199.10000000000002 148.50000000000003 197.5 152.30000000000004 197.5 156.70000000000002 C 197.5 161.1 199.1 164.9 202.3 167.9 L 238.9 204.7 L 142.9 204.7 C 138.5 204.7 135 206.29999999999998 132.3 209.39999999999998 C 129.60000000000002 212.49999999999997 128.3 216.29999999999998 128.3 220.7 L 128.3 236.7 C 128.3 241.1 129.60000000000002 244.89999999999998 132.3 248 C 135 251.10000000000002 138.5 252.7 142.9 252.7 L 238.9 252.7 L 202.3 289.3 C 199.10000000000002 292.5 197.5 296.3 197.5 300.7 C 197.5 305.09999999999997 199.1 308.9 202.3 312.09999999999997 L 211.70000000000002 321.49999999999994 C 214.9 324.59999999999997 218.70000000000002 326.09999999999997 222.9 326.09999999999997 C 227.3 326.09999999999997 231 324.59999999999997 234.3 321.49999999999994 L 315.70000000000005 240.09999999999994 C 318.80000000000007 236.99999999999994 320.30000000000007 233.19999999999993 320.30000000000007 228.69999999999993 C 320.30000000000007 224.09999999999994 318.80000000000007 220.39999999999992 315.70000000000005 217.49999999999994 L 234.30000000000004 136.19999999999993 C 231.1 132.9 227.3 131.3 222.8 131.3 L 222.8 131.3 Z"/></g></g></g></g><g transform="matrix(1,0,0,1,5.984375,61)"><text fill="#000000" stroke="none" font-family="Open Sans" font-size="12pt" font-style="normal" font-weight="normal" text-decoration="normal" x="22.015625" y="12" text-anchor="middle" dominant-baseline="alphabetic">Failed</text></g></g><g transform="matrix(1,0,0,1,650,1150)"/><g id="_C10F678B-1D88-4E6F-BB83-EF2E45529103" bpmn2nodeid="_C10F678B-1D88-4E6F-BB83-EF2E45529103" transform="matrix(1,0,0,1,400,100)"><g><path fill="none" stroke="none"/></g><g transform="matrix(0.125,0,0,0.125,0,0)"><g transform="matrix(1,0,0,1,0,0)"><path fill="#e8fae6" stroke="none" id="_C10F678B-1D88-4E6F-BB83-EF2E45529103?shapeType=BACKGROUND" paint-order="stroke fill markers" d=" M 0 0 M 444 224 C 444 263.9 434.2 300.8 414.4 334.5 C 394.7 368.2 368 394.9 334.4 414.5 C 300.79999999999995 434.1 263.9 444 224 444 C 184.10000000000002 444 147.2 434.2 113.5 414.4 C 79.8 394.7 53.1 368 33.5 334.4 C 13.899999999999999 300.79999999999995 4 263.9 4 224 C 4 184.10000000000002 13.8 147.2 33.6 113.5 C 53.400000000000006 79.80000000000001 80.1 53.1 113.6 33.5 C 147.1 13.899999999999999 184.1 4 224 4 C 263.9 4 300.8 13.8 334.5 33.6 C 368.2 53.400000000000006 394.9 80.1 414.5 113.6 C 434.1 147.1 444 184.1 444 224 Z"/></g><g><g transform="matrix(1,0,0,1,0,0)"><g transform="matrix(1,0,0,1,0,0)"><path fill="#4aa241" stroke="none" id="_C10F678B-1D88-4E6F-BB83-EF2E45529103?shapeType=BORDER&amp;renderType=FILL" paint-order="stroke fill markers" d=" M 0 0 M 224 0 C 100.3 0 0 100.3 0 224 C 0 347.7 100.3 448 224 448 C 347.7 448 448 347.7 448 224 C 448 100.30000000000001 347.7 0 224 0 Z M 0 0 M 224 432 C 109.1 432 16 338.9 16 224 C 16 109.10000000000002 109.1 16 224 16 C 338.9 16 432 109.1 432 224 C 432 338.9 338.9 432 224 432 Z"/></g></g></g></g><g transform="matrix(1,0,0,1,28,61)"/></g><g transform="matrix(1,0,0,1,400,100)"/><g id="_78DA6FC7-FD80-4183-9085-CFD5814B8D36" bpmn2nodeid="_78DA6FC7-FD80-4183-9085-CFD5814B8D36" transform="matrix(1,0,0,1,850,1750)"><g><path fill="none" stroke="none"/></g><g transform="matrix(1,0,0,1,0,0)"><path fill="#ffffff" stroke="none" id="_78DA6FC7-FD80-4183-9085-CFD5814B8D36?shapeType=BACKGROUND" paint-order="stroke fill markers" d=" M 2 0 L 152 0 L 152 0 A 2 2 0 0 1 154 2 L 154 100 L 154 100 A 2 2 0 0 1 152 102 L 2 102 L 2 102 A 2 2 0 0 1 0 100 L 0 2 L 0 2.0000000000000004 A 2 2 0 0 1 1.9999999999999996 0 Z"/></g><g transform="matrix(1,0,0,1,0,0)"><path fill="none" stroke="#000000" id="_78DA6FC7-FD80-4183-9085-CFD5814B8D36?shapeType=BORDER&amp;renderType=STROKE" paint-order="fill stroke markers" d=" M 2 0 L 152 0 L 152 0 A 2 2 0 0 1 154 2 L 154 100 L 154 100 A 2 2 0 0 1 152 102 L 2 102 L 2 102 A 2 2 0 0 1 0 100 L 0 2 L 0 2.0000000000000004 A 2 2 0 0 1 1.9999999999999996 0 Z" stroke-miterlimit="10" stroke-width="1.5" stroke-dasharray=""/></g><g><g transform="matrix(0.06,0,0,0.06,9.4,9.4)"><g transform="matrix(1,0,0,1,0,0)"><path fill="#393f44" stroke="none" id="_78DA6FC7-FD80-4183-9085-CFD5814B8D36_task__T703__3wNP" paint-order="stroke fill markers" d=" M 0 0 M 197.3 130.2 C 194.4 127.29999999999998 189.60000000000002 127.29999999999998 186.70000000000002 130.2 L 130.20000000000002 186.7 C 127.30000000000001 189.6 127.30000000000001 194.39999999999998 130.20000000000002 197.29999999999998 L 186.70000000000002 253.79999999999998 C 188.10000000000002 255.29999999999998 190.10000000000002 255.99999999999997 192.00000000000003 255.99999999999997 C 193.90000000000003 255.99999999999997 195.90000000000003 255.29999999999998 197.30000000000004 253.69999999999996 C 200.20000000000005 250.79999999999995 200.20000000000005 245.99999999999997 197.30000000000004 243.09999999999997 L 146.2 192 L 197.29999999999998 140.8 C 200.2 137.9 200.2 133.1 197.3 130.2 Z"/></g><g transform="matrix(1,0,0,1,0,0)"><path fill="#393f44" stroke="none" id="_78DA6FC7-FD80-4183-9085-CFD5814B8D36_task__T703__gqkB" paint-order="stroke fill markers" d=" M 0 0 M 261.3 130.2 C 258.40000000000003 127.29999999999998 253.60000000000002 127.29999999999998 250.70000000000002 130.2 C 247.8 133.1 247.8 137.89999999999998 250.70000000000002 140.79999999999998 L 301.8 191.89999999999998 L 250.7 243 C 247.79999999999998 245.9 247.79999999999998 250.7 250.7 253.6 C 252.1 255.29999999999998 254.1 256 256 256 C 257.9 256 259.9 255.3 261.3 253.8 L 317.8 197.3 C 320.7 194.4 320.7 189.60000000000002 317.8 186.70000000000002 L 261.3 130.2 Z"/></g><g transform="matrix(1,0,0,1,0,0)"><path fill="#393f44" stroke="none" id="_78DA6FC7-FD80-4183-9085-CFD5814B8D36_task__T703__x19X" paint-order="stroke fill markers" d=" M 0 0 M 400 32 C 400 32 152.8 32 128 32 C 62 32 64 96 64 96 L 64 288 L 1 288 C 1 288 -4 416 78 416 L 320 416 C 368 416 384 368 384 336 C 384 314.2 384 224.4 384 160 L 448 160 L 448 96 C 448 96 449 32 400 32 Z M 0 0 M 78 383.9 C 68.5 383.9 61.6 381.09999999999997 55.5 374.9 C 43.4 362.4 37.5 339.59999999999997 34.9 320 L 256.9 320 C 257.09999999999997 322.7 257.29999999999995 325.4 257.59999999999997 328.2 C 259.99999999999994 351.59999999999997 264.7 370.09999999999997 271.9 383.9 L 78 383.9 L 78 383.9 Z M 0 0 M 352 336 C 352 345.9 349.6 360.3 342.9 371 C 337.2 380.1 330.4 384 320 384 C 285 384 288 288 288 288 L 96 288 L 96 96 L 96 95.9 L 96 95.10000000000001 C 96 90.60000000000001 97.6 78.30000000000001 104.7 71.20000000000002 C 106.5 69.40000000000002 111.9 64.00000000000001 128 64.00000000000001 L 356.5 64.00000000000001 C 354.4 72.80000000000001 352.8 81.80000000000001 352.2 89.9 C 352.2 90.5 352.09999999999997 91.10000000000001 352.09999999999997 91.7 C 352.09999999999997 92 352.09999999999997 92.3 352.09999999999997 92.60000000000001 C 352 94.8 352 96 352 96 L 352 160 L 352 336 Z"/></g></g></g><g transform="matrix(1,0,0,1,35,36)"><text fill="#000000" stroke="none" font-family="Open Sans" font-size="12pt" font-style="normal" font-weight="normal" text-decoration="normal" x="51.85546875" y="12" text-anchor="middle" dominant-baseline="alphabetic">Create result: </text><text fill="#000000" stroke="none" font-family="Open Sans" font-size="12pt" font-style="normal" font-weight="normal" text-decoration="normal" x="51.85546875" y="27" text-anchor="middle" dominant-baseline="alphabetic">      FAILED       </text></g></g><g transform="matrix(1,0,0,1,850,1750)"/><g id="_D0302EDE-27B8-4DE9-8316-DE42314CE329" bpmn2nodeid="_D0302EDE-27B8-4DE9-8316-DE42314CE329" transform="matrix(1,0,0,1,900,1900)"><g><path fill="none" stroke="none"/></g><g transform="matrix(0.125,0,0,0.125,0,0)"><g transform="matrix(1,0,0,1,0,0)"><path fill="#fce7e7" stroke="none" id="_D0302EDE-27B8-4DE9-8316-DE42314CE329?shapeType=BACKGROUND" paint-order="stroke fill markers" d=" M 0 0 M 444 224 C 444 263.9 434.2 300.8 414.4 334.5 C 394.7 368.2 368 394.9 334.4 414.5 C 300.79999999999995 434.1 263.9 444 224 444 C 184.10000000000002 444 147.2 434.2 113.5 414.4 C 79.8 394.7 53.1 368 33.5 334.4 C 13.899999999999999 300.79999999999995 4 263.9 4 224 C 4 184.10000000000002 13.8 147.2 33.6 113.5 C 53.400000000000006 79.80000000000001 80.1 53.1 113.6 33.5 C 147.1 13.899999999999999 184.1 4 224 4 C 263.9 4 300.8 13.8 334.5 33.6 C 368.2 53.400000000000006 394.9 80.1 414.5 113.6 C 434.1 147.1 444 184.1 444 224 Z"/></g><g><g transform="matrix(1,0,0,1,0,0)"><g transform="matrix(1,0,0,1,0,0)"><path fill="#a30000" stroke="none" id="_D0302EDE-27B8-4DE9-8316-DE42314CE329?shapeType=BORDER&amp;renderType=FILL" paint-order="stroke fill markers" d=" M 0 0 M 224 0 C 100.3 0 0 100.3 0 224 C 0 347.7 100.3 448 224 448 C 347.7 448 448 347.7 448 224 C 448 100.30000000000001 347.7 0 224 0 Z M 0 0 M 224 400 C 126.8 400 48 321.2 48 224 C 48 126.80000000000001 126.8 48 224 48 C 321.2 48 400 126.8 400 224 C 400 321.2 321.2 400 224 400 Z"/></g></g></g></g><g transform="matrix(1,0,0,1,28,61)"/></g><g transform="matrix(1,0,0,1,900,1900)"/><g id="_AB09F9D9-AC47-4B6B-9DBE-8F12CEB69D65" bpmn2nodeid="_AB09F9D9-AC47-4B6B-9DBE-8F12CEB69D65" transform="matrix(1,0,0,1,400,1650)"><g><path fill="none" stroke="none"/></g><g transform="matrix(0.125,0,0,0.125,0,0)"><g transform="matrix(1,0,0,1,0,0)"><path fill="#bedee1" stroke="none" id="_AB09F9D9-AC47-4B6B-9DBE-8F12CEB69D65?shapeType=BACKGROUND" paint-order="stroke fill markers" d=" M 0 0 M 444 224 C 444 263.9 434.2 300.8 414.4 334.5 C 394.7 368.2 368 394.9 334.4 414.5 C 300.79999999999995 434.1 263.9 444 224 444 C 184.10000000000002 444 147.2 434.2 113.5 414.4 C 79.8 394.7 53.1 368 33.5 334.4 C 13.899999999999999 300.79999999999995 4 263.9 4 224 C 4 184.10000000000002 13.8 147.2 33.6 113.5 C 53.400000000000006 79.80000000000001 80.1 53.1 113.6 33.5 C 147.1 13.899999999999999 184.1 4 224 4 C 263.9 4 300.8 13.8 334.5 33.6 C 368.2 53.400000000000006 394.9 80.1 414.5 113.6 C 434.1 147.1 444 184.1 444 224 Z"/></g><g><g transform="matrix(1,0,0,1,0,0)"><g transform="matrix(1,0,0,1,0,0)"><path fill="#007a87" stroke="none" id="_AB09F9D9-AC47-4B6B-9DBE-8F12CEB69D65?shapeType=BORDER&amp;renderType=FILL" paint-order="stroke fill markers" d=" M 0 0 M 224 408 C 122.5 408 40 325.5 40 224 C 40 122.5 122.5 40 224 40 C 325.5 40 408 122.5 408 224 C 408 325.5 325.5 408 224 408 Z M 0 0 M 224 56 C 131.4 56 56 131.4 56 224 C 56 316.6 131.4 392 224 392 C 316.6 392 392 316.6 392 224 C 392 131.39999999999998 316.6 56 224 56 Z M 0 0 M 224 16 C 252.1 16 279.3 21.5 305 32.3 C 329.8 42.8 352 57.8 371.1 76.9 C 390.20000000000005 96.00000000000001 405.20000000000005 118.30000000000001 415.70000000000005 143 C 426.50000000000006 168.6 432.00000000000006 195.9 432.00000000000006 224 C 432.00000000000006 252.1 426.50000000000006 279.3 415.70000000000005 305 C 405.20000000000005 329.8 390.20000000000005 352 371.1 371.1 C 352 390.20000000000005 329.70000000000005 405.20000000000005 305 415.70000000000005 C 279.4 426.50000000000006 252.1 432.00000000000006 224 432.00000000000006 C 195.9 432.00000000000006 168.7 426.50000000000006 143 415.70000000000005 C 118.2 405.20000000000005 96 390.20000000000005 76.9 371.1 C 57.80000000000001 352 42.8 329.7 32.3 305 C 21.5 279.3 16 252.1 16 224 C 16 195.9 21.5 168.7 32.3 143 C 42.8 118.2 57.8 96 76.9 76.9 C 96.00000000000001 57.80000000000001 118.30000000000001 42.800000000000004 143 32.300000000000004 C 168.7 21.5 195.9 16 224 16 M 224 0 C 100.3 0 0 100.3 0 224 C 0 347.7 100.3 448 224 448 C 347.7 448 448 347.7 448 224 C 448 100.30000000000001 347.7 0 224 0 L 224 0 Z"/></g></g></g><g><g transform="matrix(1,0,0,1,0,0)"><g transform="matrix(1,0,0,1,0,0)"><path fill="#007a87" stroke="none" id="_AB09F9D9-AC47-4B6B-9DBE-8F12CEB69D65_link-throwing" paint-order="stroke fill markers" d=" M 0 0 M 222.8 131.3 C 218.5 131.3 214.70000000000002 132.9 211.60000000000002 136.10000000000002 L 202.3 145.50000000000003 C 199.10000000000002 148.50000000000003 197.5 152.30000000000004 197.5 156.70000000000002 C 197.5 161.1 199.1 164.9 202.3 167.9 L 238.9 204.7 L 142.9 204.7 C 138.5 204.7 135 206.29999999999998 132.3 209.39999999999998 C 129.60000000000002 212.49999999999997 128.3 216.29999999999998 128.3 220.7 L 128.3 236.7 C 128.3 241.1 129.60000000000002 244.89999999999998 132.3 248 C 135 251.10000000000002 138.5 252.7 142.9 252.7 L 238.9 252.7 L 202.3 289.3 C 199.10000000000002 292.5 197.5 296.3 197.5 300.7 C 197.5 305.09999999999997 199.1 308.9 202.3 312.09999999999997 L 211.70000000000002 321.49999999999994 C 214.9 324.59999999999997 218.70000000000002 326.09999999999997 222.9 326.09999999999997 C 227.3 326.09999999999997 231 324.59999999999997 234.3 321.49999999999994 L 315.70000000000005 240.09999999999994 C 318.80000000000007 236.99999999999994 320.30000000000007 233.19999999999993 320.30000000000007 228.69999999999993 C 320.30000000000007 224.09999999999994 318.80000000000007 220.39999999999992 315.70000000000005 217.49999999999994 L 234.30000000000004 136.19999999999993 C 231.1 132.9 227.3 131.3 222.8 131.3 L 222.8 131.3 Z"/></g></g></g></g><g transform="matrix(1,0,0,1,-12.94921875,61)"><text fill="#000000" stroke="none" font-family="Open Sans" font-size="12pt" font-style="normal" font-weight="normal" text-decoration="normal" x="40.94921875" y="12" text-anchor="middle" dominant-baseline="alphabetic">Completed</text></g></g><g transform="matrix(1,0,0,1,400,1650)"/><g id="_21E60016-0F71-4539-8824-BD9716CF2C7A" bpmn2nodeid="_21E60016-0F71-4539-8824-BD9716CF2C7A" transform="matrix(1,0,0,1,351,850)"><g><path fill="none" stroke="none"/></g><g transform="matrix(1,0,0,1,0,0)"><path fill="#ffffff" stroke="none" id="_21E60016-0F71-4539-8824-BD9716CF2C7A?shapeType=BACKGROUND" paint-order="stroke fill markers" d=" M 2 0 L 152 0 L 152 0 A 2 2 0 0 1 154 2 L 154 100 L 154 100 A 2 2 0 0 1 152 102 L 2 102 L 2 102 A 2 2 0 0 1 0 100 L 0 2 L 0 2.0000000000000004 A 2 2 0 0 1 1.9999999999999996 0 Z"/></g><g transform="matrix(1,0,0,1,0,0)"><path fill="none" stroke="#000000" id="_21E60016-0F71-4539-8824-BD9716CF2C7A?shapeType=BORDER&amp;renderType=STROKE" paint-order="fill stroke markers" d=" M 2 0 L 152 0 L 152 0 A 2 2 0 0 1 154 2 L 154 100 L 154 100 A 2 2 0 0 1 152 102 L 2 102 L 2 102 A 2 2 0 0 1 0 100 L 0 2 L 0 2.0000000000000004 A 2 2 0 0 1 1.9999999999999996 0 Z" stroke-miterlimit="10" stroke-width="1.5" stroke-dasharray=""/></g><g><g transform="matrix(1,0,0,1,0,0)"><g transform="matrix(1,0,0,1,10,10)"/></g></g><g transform="matrix(1,0,0,1,30,21)"><text fill="#000000" stroke="none" font-family="Open Sans" font-size="12pt" font-style="normal" font-weight="normal" text-decoration="normal" x="58.03515625" y="12" text-anchor="middle" dominant-baseline="alphabetic">REST_API_CALL:</text><text fill="#000000" stroke="none" font-family="Open Sans" font-size="12pt" font-style="normal" font-weight="normal" text-decoration="normal" x="58.03515625" y="27" text-anchor="middle" dominant-baseline="alphabetic">                            </text><text fill="#000000" stroke="none" font-family="Open Sans" font-size="12pt" font-style="normal" font-weight="normal" text-decoration="normal" x="58.03515625" y="42" text-anchor="middle" dominant-baseline="alphabetic">cross/findNode</text><text fill="#000000" stroke="none" font-family="Open Sans" font-size="12pt" font-style="normal" font-weight="normal" text-decoration="normal" x="58.03515625" y="57" text-anchor="middle" dominant-baseline="alphabetic">          /CPE          </text></g></g><g transform="matrix(1,0,0,1,351,850)"/><g id="_E2349E36-92BB-4A64-9495-1F8F71D24903" bpmn2nodeid="_E2349E36-92BB-4A64-9495-1F8F71D24903" transform="matrix(1,0,0,1,650,1900)"><g><path fill="none" stroke="none"/></g><g transform="matrix(0.125,0,0,0.125,0,0)"><g transform="matrix(1,0,0,1,0,0)"><path fill="#fce7e7" stroke="none" id="_E2349E36-92BB-4A64-9495-1F8F71D24903?shapeType=BACKGROUND" paint-order="stroke fill markers" d=" M 0 0 M 444 224 C 444 263.9 434.2 300.8 414.4 334.5 C 394.7 368.2 368 394.9 334.4 414.5 C 300.79999999999995 434.1 263.9 444 224 444 C 184.10000000000002 444 147.2 434.2 113.5 414.4 C 79.8 394.7 53.1 368 33.5 334.4 C 13.899999999999999 300.79999999999995 4 263.9 4 224 C 4 184.10000000000002 13.8 147.2 33.6 113.5 C 53.400000000000006 79.80000000000001 80.1 53.1 113.6 33.5 C 147.1 13.899999999999999 184.1 4 224 4 C 263.9 4 300.8 13.8 334.5 33.6 C 368.2 53.400000000000006 394.9 80.1 414.5 113.6 C 434.1 147.1 444 184.1 444 224 Z"/></g><g><g transform="matrix(1,0,0,1,0,0)"><g transform="matrix(1,0,0,1,0,0)"><path fill="#a30000" stroke="none" id="_E2349E36-92BB-4A64-9495-1F8F71D24903?shapeType=BORDER&amp;renderType=FILL" paint-order="stroke fill markers" d=" M 0 0 M 224 0 C 100.3 0 0 100.3 0 224 C 0 347.7 100.3 448 224 448 C 347.7 448 448 347.7 448 224 C 448 100.30000000000001 347.7 0 224 0 Z M 0 0 M 224 400 C 126.8 400 48 321.2 48 224 C 48 126.80000000000001 126.8 48 224 48 C 321.2 48 400 126.8 400 224 C 400 321.2 321.2 400 224 400 Z"/></g></g></g></g><g transform="matrix(1,0,0,1,28,61)"/></g><g transform="matrix(1,0,0,1,650,1900)"/><g id="_B3621A74-EE43-47B3-81BD-697E1F6D9B24" bpmn2nodeid="_B3621A74-EE43-47B3-81BD-697E1F6D9B24" transform="matrix(1,0,0,1,400,1150)"><g><path fill="none" stroke="none"/></g><g transform="matrix(0.125,0,0,0.125,0,0)"><g transform="matrix(1,0,0,1,0,0)"><path fill="#fef4ea" stroke="none" id="_B3621A74-EE43-47B3-81BD-697E1F6D9B24?shapeType=BACKGROUND" paint-order="stroke fill markers" d=" M 0 0 M 224.4 4.3 C 216.4 4.3 208.4 7.3 202.3 13.399999999999999 L 13.5 202.2 C 1.3000000000000007 214.39999999999998 1.3000000000000007 234.2 13.5 246.39999999999998 L 202.2 435.09999999999997 C 208.29999999999998 441.2 216.39999999999998 444.2 224.29999999999998 444.2 C 232.2 444.2 240.29999999999998 441.2 246.39999999999998 435.09999999999997 L 435.09999999999997 246.39999999999998 C 447.29999999999995 234.2 447.29999999999995 214.39999999999998 435.09999999999997 202.2 L 246.5 13.4 C 240.4 7.3 232.4 4.3 224.4 4.3 L 224.4 4.3 Z"/></g><g><g transform="matrix(1,0,0,1,0,0)"><g transform="matrix(1,0,0,1,0,0)"><path fill="#ec7a08" stroke="none" id="_B3621A74-EE43-47B3-81BD-697E1F6D9B24?shapeType=BORDER&amp;renderType=FILL" paint-order="stroke fill markers" d=" M 0 0 M 20.8 212.7 L 213.3 20.2 C 219.60000000000002 13.899999999999999 229.70000000000002 13.899999999999999 235.9 20.2 L 428.4 212.7 C 434.7 219 434.7 229.1 428.4 235.29999999999998 L 235.9 427.8 C 229.6 434.1 219.5 434.1 213.3 427.8 L 20.8 235.3 C 14.5 229.1 14.5 218.9 20.8 212.7 L 20.8 212.7 Z M 0 0 M 0 224 C 0 232.1 3.1 240.3 9.3 246.5 L 201.5 438.7 C 213.9 451.09999999999997 234.1 451.09999999999997 246.5 438.7 L 438.7 246.5 C 444.9 240.3 448 232.1 448 224 C 448 215.9 444.9 207.7 438.7 201.5 L 246.5 9.3 C 234.1 -3.0999999999999996 213.9 -3.0999999999999996 201.5 9.3 L 9.3 201.5 C 3.1 207.7 0 215.9 0 224 L 0 224 Z"/></g></g></g><g><g transform="matrix(1,0,0,1,0,0)"><g transform="matrix(1,0,0,1,0,0)"><path fill="#ec7a08" stroke="none" id="_B3621A74-EE43-47B3-81BD-697E1F6D9B24_exclusive" paint-order="stroke fill markers" d=" M 0 0 M 298.2 269.2 C 298.2 272.59999999999997 297.09999999999997 275.3 294.7 277.7 L 277.7 294.7 C 275.3 297.09999999999997 272.59999999999997 298.2 269.2 298.2 C 265.8 298.2 263.09999999999997 297.09999999999997 260.7 294.7 L 224 258 L 187.2 294.8 C 184.79999999999998 297.2 182.1 298.3 178.7 298.3 C 175.29999999999998 298.3 172.6 297.2 170.2 294.8 L 153.2 277.8 C 150.79999999999998 275.40000000000003 149.7 272.7 149.7 269.3 C 149.7 265.90000000000003 150.79999999999998 263.2 153.2 260.8 L 190 224 L 153.2 187.2 C 150.79999999999998 184.79999999999998 149.7 182 149.7 178.7 C 149.7 175.29999999999998 150.79999999999998 172.5 153.2 170.2 L 170.2 153.2 C 172.6 150.79999999999998 175.29999999999998 149.7 178.7 149.7 C 182.1 149.7 184.79999999999998 150.79999999999998 187.2 153.2 L 224 190 L 260.8 153.2 C 263.2 150.79999999999998 265.90000000000003 149.7 269.3 149.7 C 272.7 149.7 275.40000000000003 150.79999999999998 277.8 153.2 L 294.8 170.2 C 297.2 172.5 298.3 175.29999999999998 298.3 178.7 C 298.3 182 297.2 184.79999999999998 294.8 187.2 L 258 224 L 294.8 260.8 C 297.1 263.1 298.2 265.9 298.2 269.2 Z"/></g></g></g></g><g transform="matrix(1,0,0,1,28,61)"/></g><g transform="matrix(1,0,0,1,400,1150)"/><g id="_C2586953-D211-4AEF-A761-82289F7B6FC6" bpmn2nodeid="_C2586953-D211-4AEF-A761-82289F7B6FC6" transform="matrix(1,0,0,1,400,700)"><g><path fill="none" stroke="none"/></g><g transform="matrix(0.125,0,0,0.125,0,0)"><g transform="matrix(1,0,0,1,0,0)"><path fill="#fef4ea" stroke="none" id="_C2586953-D211-4AEF-A761-82289F7B6FC6?shapeType=BACKGROUND" paint-order="stroke fill markers" d=" M 0 0 M 224.4 4.3 C 216.4 4.3 208.4 7.3 202.3 13.399999999999999 L 13.5 202.2 C 1.3000000000000007 214.39999999999998 1.3000000000000007 234.2 13.5 246.39999999999998 L 202.2 435.09999999999997 C 208.29999999999998 441.2 216.39999999999998 444.2 224.29999999999998 444.2 C 232.2 444.2 240.29999999999998 441.2 246.39999999999998 435.09999999999997 L 435.09999999999997 246.39999999999998 C 447.29999999999995 234.2 447.29999999999995 214.39999999999998 435.09999999999997 202.2 L 246.5 13.4 C 240.4 7.3 232.4 4.3 224.4 4.3 L 224.4 4.3 Z"/></g><g><g transform="matrix(1,0,0,1,0,0)"><g transform="matrix(1,0,0,1,0,0)"><path fill="#ec7a08" stroke="none" id="_C2586953-D211-4AEF-A761-82289F7B6FC6?shapeType=BORDER&amp;renderType=FILL" paint-order="stroke fill markers" d=" M 0 0 M 20.8 212.7 L 213.3 20.2 C 219.60000000000002 13.899999999999999 229.70000000000002 13.899999999999999 235.9 20.2 L 428.4 212.7 C 434.7 219 434.7 229.1 428.4 235.29999999999998 L 235.9 427.8 C 229.6 434.1 219.5 434.1 213.3 427.8 L 20.8 235.3 C 14.5 229.1 14.5 218.9 20.8 212.7 L 20.8 212.7 Z M 0 0 M 0 224 C 0 232.1 3.1 240.3 9.3 246.5 L 201.5 438.7 C 213.9 451.09999999999997 234.1 451.09999999999997 246.5 438.7 L 438.7 246.5 C 444.9 240.3 448 232.1 448 224 C 448 215.9 444.9 207.7 438.7 201.5 L 246.5 9.3 C 234.1 -3.0999999999999996 213.9 -3.0999999999999996 201.5 9.3 L 9.3 201.5 C 3.1 207.7 0 215.9 0 224 L 0 224 Z"/></g></g></g><g><g transform="matrix(1,0,0,1,0,0)"><g transform="matrix(1,0,0,1,0,0)"><path fill="#ec7a08" stroke="none" id="_C2586953-D211-4AEF-A761-82289F7B6FC6_exclusive" paint-order="stroke fill markers" d=" M 0 0 M 298.2 269.2 C 298.2 272.59999999999997 297.09999999999997 275.3 294.7 277.7 L 277.7 294.7 C 275.3 297.09999999999997 272.59999999999997 298.2 269.2 298.2 C 265.8 298.2 263.09999999999997 297.09999999999997 260.7 294.7 L 224 258 L 187.2 294.8 C 184.79999999999998 297.2 182.1 298.3 178.7 298.3 C 175.29999999999998 298.3 172.6 297.2 170.2 294.8 L 153.2 277.8 C 150.79999999999998 275.40000000000003 149.7 272.7 149.7 269.3 C 149.7 265.90000000000003 150.79999999999998 263.2 153.2 260.8 L 190 224 L 153.2 187.2 C 150.79999999999998 184.79999999999998 149.7 182 149.7 178.7 C 149.7 175.29999999999998 150.79999999999998 172.5 153.2 170.2 L 170.2 153.2 C 172.6 150.79999999999998 175.29999999999998 149.7 178.7 149.7 C 182.1 149.7 184.79999999999998 150.79999999999998 187.2 153.2 L 224 190 L 260.8 153.2 C 263.2 150.79999999999998 265.90000000000003 149.7 269.3 149.7 C 272.7 149.7 275.40000000000003 150.79999999999998 277.8 153.2 L 294.8 170.2 C 297.2 172.5 298.3 175.29999999999998 298.3 178.7 C 298.3 182 297.2 184.79999999999998 294.8 187.2 L 258 224 L 294.8 260.8 C 297.1 263.1 298.2 265.9 298.2 269.2 Z"/></g></g></g></g><g transform="matrix(1,0,0,1,28,61)"/></g><g transform="matrix(1,0,0,1,400,700)"/><g id="_C69B199F-6320-4024-8BD9-FD889B6E8E94" bpmn2nodeid="_C69B199F-6320-4024-8BD9-FD889B6E8E94" transform="matrix(1,0,0,1,900,1650)"><g><path fill="none" stroke="none"/></g><g transform="matrix(0.125,0,0,0.125,0,0)"><g transform="matrix(1,0,0,1,0,0)"><path fill="#fbefcf" stroke="none" id="_C69B199F-6320-4024-8BD9-FD889B6E8E94?shapeType=BACKGROUND" paint-order="stroke fill markers" d=" M 0 0 M 444 224 C 444 263.9 434.2 300.8 414.4 334.5 C 394.7 368.2 368 394.9 334.4 414.5 C 300.79999999999995 434.1 263.9 444 224 444 C 184.10000000000002 444 147.2 434.2 113.5 414.4 C 79.8 394.7 53.1 368 33.5 334.4 C 13.899999999999999 300.79999999999995 4 263.9 4 224 C 4 184.10000000000002 13.8 147.2 33.6 113.5 C 53.400000000000006 79.80000000000001 80.1 53.1 113.6 33.5 C 147.1 13.899999999999999 184.1 4 224 4 C 263.9 4 300.8 13.8 334.5 33.6 C 368.2 53.400000000000006 394.9 80.1 414.5 113.6 C 434.1 147.1 444 184.1 444 224 Z"/></g><g><g transform="matrix(1,0,0,1,0,0)"><g transform="matrix(1,0,0,1,0,0)"><path fill="#e5a000" stroke="none" id="_C69B199F-6320-4024-8BD9-FD889B6E8E94?shapeType=BORDER&amp;renderType=FILL" paint-order="stroke fill markers" d=" M 0 0 M 224 408 C 122.5 408 40 325.5 40 224 C 40 122.5 122.5 40 224 40 C 325.5 40 408 122.5 408 224 C 408 325.5 325.5 408 224 408 Z M 0 0 M 224 56 C 131.4 56 56 131.4 56 224 C 56 316.6 131.4 392 224 392 C 316.6 392 392 316.6 392 224 C 392 131.39999999999998 316.6 56 224 56 Z M 0 0 M 224 16 C 252.1 16 279.3 21.5 305 32.3 C 329.8 42.8 352 57.8 371.1 76.9 C 390.20000000000005 96.00000000000001 405.20000000000005 118.30000000000001 415.70000000000005 143 C 426.50000000000006 168.6 432.00000000000006 195.9 432.00000000000006 224 C 432.00000000000006 252.1 426.50000000000006 279.3 415.70000000000005 305 C 405.20000000000005 329.8 390.20000000000005 352 371.1 371.1 C 352 390.20000000000005 329.70000000000005 405.20000000000005 305 415.70000000000005 C 279.4 426.50000000000006 252.1 432.00000000000006 224 432.00000000000006 C 195.9 432.00000000000006 168.7 426.50000000000006 143 415.70000000000005 C 118.2 405.20000000000005 96 390.20000000000005 76.9 371.1 C 57.80000000000001 352 42.8 329.7 32.3 305 C 21.5 279.3 16 252.1 16 224 C 16 195.9 21.5 168.7 32.3 143 C 42.8 118.2 57.8 96 76.9 76.9 C 96.00000000000001 57.80000000000001 118.30000000000001 42.800000000000004 143 32.300000000000004 C 168.7 21.5 195.9 16 224 16 M 224 0 C 100.3 0 0 100.3 0 224 C 0 347.7 100.3 448 224 448 C 347.7 448 448 347.7 448 224 C 448 100.30000000000001 347.7 0 224 0 L 224 0 Z"/></g></g></g><g><g transform="matrix(1,0,0,1,0,0)"><g transform="matrix(1,0,0,1,0,0)"><path fill="#e5a000" stroke="none" id="_C69B199F-6320-4024-8BD9-FD889B6E8E94_link-catching" paint-order="stroke fill markers" d=" M 0 0 M 222.9 147.4 L 222.9 147.4 L 304.2 228.7 C 304.2 228.79999999999998 304.2 228.79999999999998 304.2 228.79999999999998 L 223.1 310 C 223 310 223 310.1 222.9 310.1 L 222.8 310.1 C 222.70000000000002 310.1 222.70000000000002 310 222.70000000000002 310 L 213.50000000000003 300.8 L 213.40000000000003 300.8 L 213.50000000000003 300.8 L 250.10000000000002 264.2 L 277.40000000000003 236.89999999999998 L 144.2 236.89999999999998 L 144.2 220.89999999999998 L 277.29999999999995 220.89999999999998 L 250.09999999999997 193.59999999999997 L 213.49999999999997 156.79999999999995 L 222.9 147.4 M 222.8 131.3 C 218.5 131.3 214.70000000000002 132.9 211.60000000000002 136.10000000000002 L 202.3 145.50000000000003 C 199.10000000000002 148.50000000000003 197.5 152.30000000000004 197.5 156.70000000000002 C 197.5 161.1 199.1 164.9 202.3 167.9 L 238.9 204.7 L 142.9 204.7 C 138.5 204.7 135 206.29999999999998 132.3 209.39999999999998 C 129.60000000000002 212.49999999999997 128.3 216.29999999999998 128.3 220.7 L 128.3 236.7 C 128.3 241.1 129.60000000000002 244.89999999999998 132.3 248 C 135 251.10000000000002 138.5 252.7 142.9 252.7 L 238.9 252.7 L 202.3 289.3 C 199.10000000000002 292.5 197.5 296.3 197.5 300.7 C 197.5 305.09999999999997 199.1 308.9 202.3 312.09999999999997 L 211.70000000000002 321.49999999999994 C 214.9 324.59999999999997 218.70000000000002 326.09999999999997 222.9 326.09999999999997 C 227.3 326.09999999999997 231 324.59999999999997 234.3 321.49999999999994 L 315.70000000000005 240.09999999999994 C 318.80000000000007 236.99999999999994 320.30000000000007 233.19999999999993 320.30000000000007 228.69999999999993 C 320.30000000000007 224.09999999999994 318.80000000000007 220.39999999999992 315.70000000000005 217.49999999999994 L 234.30000000000004 136.19999999999993 C 231.1 132.9 227.3 131.3 222.8 131.3 L 222.8 131.3 Z"/></g></g></g></g><g transform="matrix(1,0,0,1,5.984375,61)"><text fill="#000000" stroke="none" font-family="Open Sans" font-size="12pt" font-style="normal" font-weight="normal" text-decoration="normal" x="22.015625" y="12" text-anchor="middle" dominant-baseline="alphabetic">Failed</text></g></g><g transform="matrix(1,0,0,1,900,1650)"/><g id="_2D7AC52B-18C2-4558-BAA6-4CC538ED387D" bpmn2nodeid="_2D7AC52B-18C2-4558-BAA6-4CC538ED387D" transform="matrix(1,0,0,1,650,700)"><g><path fill="none" stroke="none"/></g><g transform="matrix(0.125,0,0,0.125,0,0)"><g transform="matrix(1,0,0,1,0,0)"><path fill="#bedee1" stroke="none" id="_2D7AC52B-18C2-4558-BAA6-4CC538ED387D?shapeType=BACKGROUND" paint-order="stroke fill markers" d=" M 0 0 M 444 224 C 444 263.9 434.2 300.8 414.4 334.5 C 394.7 368.2 368 394.9 334.4 414.5 C 300.79999999999995 434.1 263.9 444 224 444 C 184.10000000000002 444 147.2 434.2 113.5 414.4 C 79.8 394.7 53.1 368 33.5 334.4 C 13.899999999999999 300.79999999999995 4 263.9 4 224 C 4 184.10000000000002 13.8 147.2 33.6 113.5 C 53.400000000000006 79.80000000000001 80.1 53.1 113.6 33.5 C 147.1 13.899999999999999 184.1 4 224 4 C 263.9 4 300.8 13.8 334.5 33.6 C 368.2 53.400000000000006 394.9 80.1 414.5 113.6 C 434.1 147.1 444 184.1 444 224 Z"/></g><g><g transform="matrix(1,0,0,1,0,0)"><g transform="matrix(1,0,0,1,0,0)"><path fill="#007a87" stroke="none" id="_2D7AC52B-18C2-4558-BAA6-4CC538ED387D?shapeType=BORDER&amp;renderType=FILL" paint-order="stroke fill markers" d=" M 0 0 M 224 408 C 122.5 408 40 325.5 40 224 C 40 122.5 122.5 40 224 40 C 325.5 40 408 122.5 408 224 C 408 325.5 325.5 408 224 408 Z M 0 0 M 224 56 C 131.4 56 56 131.4 56 224 C 56 316.6 131.4 392 224 392 C 316.6 392 392 316.6 392 224 C 392 131.39999999999998 316.6 56 224 56 Z M 0 0 M 224 16 C 252.1 16 279.3 21.5 305 32.3 C 329.8 42.8 352 57.8 371.1 76.9 C 390.20000000000005 96.00000000000001 405.20000000000005 118.30000000000001 415.70000000000005 143 C 426.50000000000006 168.6 432.00000000000006 195.9 432.00000000000006 224 C 432.00000000000006 252.1 426.50000000000006 279.3 415.70000000000005 305 C 405.20000000000005 329.8 390.20000000000005 352 371.1 371.1 C 352 390.20000000000005 329.70000000000005 405.20000000000005 305 415.70000000000005 C 279.4 426.50000000000006 252.1 432.00000000000006 224 432.00000000000006 C 195.9 432.00000000000006 168.7 426.50000000000006 143 415.70000000000005 C 118.2 405.20000000000005 96 390.20000000000005 76.9 371.1 C 57.80000000000001 352 42.8 329.7 32.3 305 C 21.5 279.3 16 252.1 16 224 C 16 195.9 21.5 168.7 32.3 143 C 42.8 118.2 57.8 96 76.9 76.9 C 96.00000000000001 57.80000000000001 118.30000000000001 42.800000000000004 143 32.300000000000004 C 168.7 21.5 195.9 16 224 16 M 224 0 C 100.3 0 0 100.3 0 224 C 0 347.7 100.3 448 224 448 C 347.7 448 448 347.7 448 224 C 448 100.30000000000001 347.7 0 224 0 L 224 0 Z"/></g></g></g><g><g transform="matrix(1,0,0,1,0,0)"><g transform="matrix(1,0,0,1,0,0)"><path fill="#007a87" stroke="none" id="_2D7AC52B-18C2-4558-BAA6-4CC538ED387D_link-throwing" paint-order="stroke fill markers" d=" M 0 0 M 222.8 131.3 C 218.5 131.3 214.70000000000002 132.9 211.60000000000002 136.10000000000002 L 202.3 145.50000000000003 C 199.10000000000002 148.50000000000003 197.5 152.30000000000004 197.5 156.70000000000002 C 197.5 161.1 199.1 164.9 202.3 167.9 L 238.9 204.7 L 142.9 204.7 C 138.5 204.7 135 206.29999999999998 132.3 209.39999999999998 C 129.60000000000002 212.49999999999997 128.3 216.29999999999998 128.3 220.7 L 128.3 236.7 C 128.3 241.1 129.60000000000002 244.89999999999998 132.3 248 C 135 251.10000000000002 138.5 252.7 142.9 252.7 L 238.9 252.7 L 202.3 289.3 C 199.10000000000002 292.5 197.5 296.3 197.5 300.7 C 197.5 305.09999999999997 199.1 308.9 202.3 312.09999999999997 L 211.70000000000002 321.49999999999994 C 214.9 324.59999999999997 218.70000000000002 326.09999999999997 222.9 326.09999999999997 C 227.3 326.09999999999997 231 324.59999999999997 234.3 321.49999999999994 L 315.70000000000005 240.09999999999994 C 318.80000000000007 236.99999999999994 320.30000000000007 233.19999999999993 320.30000000000007 228.69999999999993 C 320.30000000000007 224.09999999999994 318.80000000000007 220.39999999999992 315.70000000000005 217.49999999999994 L 234.30000000000004 136.19999999999993 C 231.1 132.9 227.3 131.3 222.8 131.3 L 222.8 131.3 Z"/></g></g></g></g><g transform="matrix(1,0,0,1,5.984375,61)"><text fill="#000000" stroke="none" font-family="Open Sans" font-size="12pt" font-style="normal" font-weight="normal" text-decoration="normal" x="22.015625" y="12" text-anchor="middle" dominant-baseline="alphabetic">Failed</text></g></g><g transform="matrix(1,0,0,1,650,700)"/><g id="_DE70A09C-D121-4102-BB26-7C89723EFE89" bpmn2nodeid="_DE70A09C-D121-4102-BB26-7C89723EFE89" transform="matrix(1,0,0,1,351,1000)"><g><path fill="none" stroke="none"/></g><g transform="matrix(1,0,0,1,0,0)"><path fill="#ffffff" stroke="none" id="_DE70A09C-D121-4102-BB26-7C89723EFE89?shapeType=BACKGROUND" paint-order="stroke fill markers" d=" M 2 0 L 152 0 L 152 0 A 2 2 0 0 1 154 2 L 154 100 L 154 100 A 2 2 0 0 1 152 102 L 2 102 L 2 102 A 2 2 0 0 1 0 100 L 0 2 L 0 2.0000000000000004 A 2 2 0 0 1 1.9999999999999996 0 Z"/></g><g transform="matrix(1,0,0,1,0,0)"><path fill="none" stroke="#000000" id="_DE70A09C-D121-4102-BB26-7C89723EFE89?shapeType=BORDER&amp;renderType=STROKE" paint-order="fill stroke markers" d=" M 2 0 L 152 0 L 152 0 A 2 2 0 0 1 154 2 L 154 100 L 154 100 A 2 2 0 0 1 152 102 L 2 102 L 2 102 A 2 2 0 0 1 0 100 L 0 2 L 0 2.0000000000000004 A 2 2 0 0 1 1.9999999999999996 0 Z" stroke-miterlimit="10" stroke-width="1.5" stroke-dasharray=""/></g><g><g transform="matrix(1,0,0,1,0,0)"><g transform="matrix(1,0,0,1,10,10)"/></g></g><g transform="matrix(1,0,0,1,30,21)"><text fill="#000000" stroke="none" font-family="Open Sans" font-size="12pt" font-style="normal" font-weight="normal" text-decoration="normal" x="58.9140625" y="12" text-anchor="middle" dominant-baseline="alphabetic">REST_API_CALL:</text><text fill="#000000" stroke="none" font-family="Open Sans" font-size="12pt" font-style="normal" font-weight="normal" text-decoration="normal" x="58.9140625" y="27" text-anchor="middle" dominant-baseline="alphabetic">                            </text><text fill="#000000" stroke="none" font-family="Open Sans" font-size="12pt" font-style="normal" font-weight="normal" text-decoration="normal" x="58.9140625" y="42" text-anchor="middle" dominant-baseline="alphabetic">cross/findRoom</text></g></g><g transform="matrix(1,0,0,1,351,1000)"/><g id="_8158F9DD-358E-46F1-BC82-CE4928B23162" bpmn2nodeid="_8158F9DD-358E-46F1-BC82-CE4928B23162" transform="matrix(1,0,0,1,400,1400)"><g><path fill="none" stroke="none"/></g><g transform="matrix(0.125,0,0,0.125,0,0)"><g transform="matrix(1,0,0,1,0,0)"><path fill="#fbefcf" stroke="none" id="_8158F9DD-358E-46F1-BC82-CE4928B23162?shapeType=BACKGROUND" paint-order="stroke fill markers" d=" M 0 0 M 444 224 C 444 263.9 434.2 300.8 414.4 334.5 C 394.7 368.2 368 394.9 334.4 414.5 C 300.79999999999995 434.1 263.9 444 224 444 C 184.10000000000002 444 147.2 434.2 113.5 414.4 C 79.8 394.7 53.1 368 33.5 334.4 C 13.899999999999999 300.79999999999995 4 263.9 4 224 C 4 184.10000000000002 13.8 147.2 33.6 113.5 C 53.400000000000006 79.80000000000001 80.1 53.1 113.6 33.5 C 147.1 13.899999999999999 184.1 4 224 4 C 263.9 4 300.8 13.8 334.5 33.6 C 368.2 53.400000000000006 394.9 80.1 414.5 113.6 C 434.1 147.1 444 184.1 444 224 Z"/></g><g><g transform="matrix(1,0,0,1,0,0)"><g transform="matrix(1,0,0,1,0,0)"><path fill="#e5a000" stroke="none" id="_8158F9DD-358E-46F1-BC82-CE4928B23162?shapeType=BORDER&amp;renderType=FILL" paint-order="stroke fill markers" d=" M 0 0 M 224 408 C 122.5 408 40 325.5 40 224 C 40 122.5 122.5 40 224 40 C 325.5 40 408 122.5 408 224 C 408 325.5 325.5 408 224 408 Z M 0 0 M 224 56 C 131.4 56 56 131.4 56 224 C 56 316.6 131.4 392 224 392 C 316.6 392 392 316.6 392 224 C 392 131.39999999999998 316.6 56 224 56 Z M 0 0 M 224 16 C 252.1 16 279.3 21.5 305 32.3 C 329.8 42.8 352 57.8 371.1 76.9 C 390.20000000000005 96.00000000000001 405.20000000000005 118.30000000000001 415.70000000000005 143 C 426.50000000000006 168.6 432.00000000000006 195.9 432.00000000000006 224 C 432.00000000000006 252.1 426.50000000000006 279.3 415.70000000000005 305 C 405.20000000000005 329.8 390.20000000000005 352 371.1 371.1 C 352 390.20000000000005 329.70000000000005 405.20000000000005 305 415.70000000000005 C 279.4 426.50000000000006 252.1 432.00000000000006 224 432.00000000000006 C 195.9 432.00000000000006 168.7 426.50000000000006 143 415.70000000000005 C 118.2 405.20000000000005 96 390.20000000000005 76.9 371.1 C 57.80000000000001 352 42.8 329.7 32.3 305 C 21.5 279.3 16 252.1 16 224 C 16 195.9 21.5 168.7 32.3 143 C 42.8 118.2 57.8 96 76.9 76.9 C 96.00000000000001 57.80000000000001 118.30000000000001 42.800000000000004 143 32.300000000000004 C 168.7 21.5 195.9 16 224 16 M 224 0 C 100.3 0 0 100.3 0 224 C 0 347.7 100.3 448 224 448 C 347.7 448 448 347.7 448 224 C 448 100.30000000000001 347.7 0 224 0 L 224 0 Z"/></g></g></g><g><g transform="matrix(1,0,0,1,0,0)"><g transform="matrix(1,0,0,1,0,0)"><path fill="#e5a000" stroke="none" id="_8158F9DD-358E-46F1-BC82-CE4928B23162_link-catching" paint-order="stroke fill markers" d=" M 0 0 M 222.9 147.4 L 222.9 147.4 L 304.2 228.7 C 304.2 228.79999999999998 304.2 228.79999999999998 304.2 228.79999999999998 L 223.1 310 C 223 310 223 310.1 222.9 310.1 L 222.8 310.1 C 222.70000000000002 310.1 222.70000000000002 310 222.70000000000002 310 L 213.50000000000003 300.8 L 213.40000000000003 300.8 L 213.50000000000003 300.8 L 250.10000000000002 264.2 L 277.40000000000003 236.89999999999998 L 144.2 236.89999999999998 L 144.2 220.89999999999998 L 277.29999999999995 220.89999999999998 L 250.09999999999997 193.59999999999997 L 213.49999999999997 156.79999999999995 L 222.9 147.4 M 222.8 131.3 C 218.5 131.3 214.70000000000002 132.9 211.60000000000002 136.10000000000002 L 202.3 145.50000000000003 C 199.10000000000002 148.50000000000003 197.5 152.30000000000004 197.5 156.70000000000002 C 197.5 161.1 199.1 164.9 202.3 167.9 L 238.9 204.7 L 142.9 204.7 C 138.5 204.7 135 206.29999999999998 132.3 209.39999999999998 C 129.60000000000002 212.49999999999997 128.3 216.29999999999998 128.3 220.7 L 128.3 236.7 C 128.3 241.1 129.60000000000002 244.89999999999998 132.3 248 C 135 251.10000000000002 138.5 252.7 142.9 252.7 L 238.9 252.7 L 202.3 289.3 C 199.10000000000002 292.5 197.5 296.3 197.5 300.7 C 197.5 305.09999999999997 199.1 308.9 202.3 312.09999999999997 L 211.70000000000002 321.49999999999994 C 214.9 324.59999999999997 218.70000000000002 326.09999999999997 222.9 326.09999999999997 C 227.3 326.09999999999997 231 324.59999999999997 234.3 321.49999999999994 L 315.70000000000005 240.09999999999994 C 318.80000000000007 236.99999999999994 320.30000000000007 233.19999999999993 320.30000000000007 228.69999999999993 C 320.30000000000007 224.09999999999994 318.80000000000007 220.39999999999992 315.70000000000005 217.49999999999994 L 234.30000000000004 136.19999999999993 C 231.1 132.9 227.3 131.3 222.8 131.3 L 222.8 131.3 Z"/></g></g></g></g><g transform="matrix(1,0,0,1,2.87890625,61)"><text fill="#000000" stroke="none" font-family="Open Sans" font-size="12pt" font-style="normal" font-weight="normal" text-decoration="normal" x="25.12109375" y="12" text-anchor="middle" dominant-baseline="alphabetic">Upsert</text></g></g><g transform="matrix(1,0,0,1,400,1400)"/><g id="_A5BE9CA5-73C3-402B-B50E-31739BB0CA5A" bpmn2nodeid="_A5BE9CA5-73C3-402B-B50E-31739BB0CA5A" transform="matrix(1,0,0,1,351,250)"><g><path fill="none" stroke="none"/></g><g transform="matrix(1,0,0,1,0,0)"><path fill="#ffffff" stroke="none" id="_A5BE9CA5-73C3-402B-B50E-31739BB0CA5A?shapeType=BACKGROUND" paint-order="stroke fill markers" d=" M 2 0 L 152 0 L 152 0 A 2 2 0 0 1 154 2 L 154 100 L 154 100 A 2 2 0 0 1 152 102 L 2 102 L 2 102 A 2 2 0 0 1 0 100 L 0 2 L 0 2.0000000000000004 A 2 2 0 0 1 1.9999999999999996 0 Z"/></g><g transform="matrix(1,0,0,1,0,0)"><path fill="none" stroke="#000000" id="_A5BE9CA5-73C3-402B-B50E-31739BB0CA5A?shapeType=BORDER&amp;renderType=STROKE" paint-order="fill stroke markers" d=" M 2 0 L 152 0 L 152 0 A 2 2 0 0 1 154 2 L 154 100 L 154 100 A 2 2 0 0 1 152 102 L 2 102 L 2 102 A 2 2 0 0 1 0 100 L 0 2 L 0 2.0000000000000004 A 2 2 0 0 1 1.9999999999999996 0 Z" stroke-miterlimit="10" stroke-width="1.5" stroke-dasharray=""/></g><g><g transform="matrix(1,0,0,1,0,0)"><g transform="matrix(1,0,0,1,10,10)"/></g></g><g transform="matrix(1,0,0,1,30,36)"><text fill="#000000" stroke="none" font-family="Open Sans" font-size="12pt" font-style="normal" font-weight="normal" text-decoration="normal" x="47.8515625" y="12" text-anchor="middle" dominant-baseline="alphabetic">TMF_STORE: </text><text fill="#000000" stroke="none" font-family="Open Sans" font-size="12pt" font-style="normal" font-weight="normal" text-decoration="normal" x="47.8515625" y="27" text-anchor="middle" dominant-baseline="alphabetic">    get data    </text></g></g><g transform="matrix(1,0,0,1,351,250)"/><g id="_2219AC2D-7D00-49DA-B3D2-86FFADE5B45C" bpmn2nodeid="_2219AC2D-7D00-49DA-B3D2-86FFADE5B45C" transform="matrix(1,0,0,1,351,1500)"><g><path fill="none" stroke="none"/></g><g transform="matrix(1,0,0,1,0,0)"><path fill="#ffffff" stroke="none" id="_2219AC2D-7D00-49DA-B3D2-86FFADE5B45C?shapeType=BACKGROUND" paint-order="stroke fill markers" d=" M 2 0 L 152 0 L 152 0 A 2 2 0 0 1 154 2 L 154 100 L 154 100 A 2 2 0 0 1 152 102 L 2 102 L 2 102 A 2 2 0 0 1 0 100 L 0 2 L 0 2.0000000000000004 A 2 2 0 0 1 1.9999999999999996 0 Z"/></g><g transform="matrix(1,0,0,1,0,0)"><path fill="none" stroke="#000000" id="_2219AC2D-7D00-49DA-B3D2-86FFADE5B45C?shapeType=BORDER&amp;renderType=STROKE" paint-order="fill stroke markers" d=" M 2 0 L 152 0 L 152 0 A 2 2 0 0 1 154 2 L 154 100 L 154 100 A 2 2 0 0 1 152 102 L 2 102 L 2 102 A 2 2 0 0 1 0 100 L 0 2 L 0 2.0000000000000004 A 2 2 0 0 1 1.9999999999999996 0 Z" stroke-miterlimit="10" stroke-width="1.5" stroke-dasharray=""/></g><g><g transform="matrix(1,0,0,1,0,0)"><g transform="matrix(1,0,0,1,10,10)"/></g></g><g transform="matrix(1,0,0,1,30,21)"><text fill="#000000" stroke="none" font-family="Open Sans" font-size="12pt" font-style="normal" font-weight="normal" text-decoration="normal" x="58.7421875" y="12" text-anchor="middle" dominant-baseline="alphabetic">REST_API_CALL:</text><text fill="#000000" stroke="none" font-family="Open Sans" font-size="12pt" font-style="normal" font-weight="normal" text-decoration="normal" x="58.7421875" y="27" text-anchor="middle" dominant-baseline="alphabetic">                            </text><text fill="#000000" stroke="none" font-family="Open Sans" font-size="12pt" font-style="normal" font-weight="normal" text-decoration="normal" x="58.7421875" y="42" text-anchor="middle" dominant-baseline="alphabetic">cross/updateCp</text><text fill="#000000" stroke="none" font-family="Open Sans" font-size="12pt" font-style="normal" font-weight="normal" text-decoration="normal" x="58.7421875" y="57" text-anchor="middle" dominant-baseline="alphabetic">       eParent       </text></g></g><g transform="matrix(1,0,0,1,351,1500)"/><g id="_D95EE22A-59AD-49BB-B800-70B428BEFE43" bpmn2nodeid="_D95EE22A-59AD-49BB-B800-70B428BEFE43" transform="matrix(1,0,0,1,400,1300)"><g><path fill="none" stroke="none"/></g><g transform="matrix(0.125,0,0,0.125,0,0)"><g transform="matrix(1,0,0,1,0,0)"><path fill="#bedee1" stroke="none" id="_D95EE22A-59AD-49BB-B800-70B428BEFE43?shapeType=BACKGROUND" paint-order="stroke fill markers" d=" M 0 0 M 444 224 C 444 263.9 434.2 300.8 414.4 334.5 C 394.7 368.2 368 394.9 334.4 414.5 C 300.79999999999995 434.1 263.9 444 224 444 C 184.10000000000002 444 147.2 434.2 113.5 414.4 C 79.8 394.7 53.1 368 33.5 334.4 C 13.899999999999999 300.79999999999995 4 263.9 4 224 C 4 184.10000000000002 13.8 147.2 33.6 113.5 C 53.400000000000006 79.80000000000001 80.1 53.1 113.6 33.5 C 147.1 13.899999999999999 184.1 4 224 4 C 263.9 4 300.8 13.8 334.5 33.6 C 368.2 53.400000000000006 394.9 80.1 414.5 113.6 C 434.1 147.1 444 184.1 444 224 Z"/></g><g><g transform="matrix(1,0,0,1,0,0)"><g transform="matrix(1,0,0,1,0,0)"><path fill="#007a87" stroke="none" id="_D95EE22A-59AD-49BB-B800-70B428BEFE43?shapeType=BORDER&amp;renderType=FILL" paint-order="stroke fill markers" d=" M 0 0 M 224 408 C 122.5 408 40 325.5 40 224 C 40 122.5 122.5 40 224 40 C 325.5 40 408 122.5 408 224 C 408 325.5 325.5 408 224 408 Z M 0 0 M 224 56 C 131.4 56 56 131.4 56 224 C 56 316.6 131.4 392 224 392 C 316.6 392 392 316.6 392 224 C 392 131.39999999999998 316.6 56 224 56 Z M 0 0 M 224 16 C 252.1 16 279.3 21.5 305 32.3 C 329.8 42.8 352 57.8 371.1 76.9 C 390.20000000000005 96.00000000000001 405.20000000000005 118.30000000000001 415.70000000000005 143 C 426.50000000000006 168.6 432.00000000000006 195.9 432.00000000000006 224 C 432.00000000000006 252.1 426.50000000000006 279.3 415.70000000000005 305 C 405.20000000000005 329.8 390.20000000000005 352 371.1 371.1 C 352 390.20000000000005 329.70000000000005 405.20000000000005 305 415.70000000000005 C 279.4 426.50000000000006 252.1 432.00000000000006 224 432.00000000000006 C 195.9 432.00000000000006 168.7 426.50000000000006 143 415.70000000000005 C 118.2 405.20000000000005 96 390.20000000000005 76.9 371.1 C 57.80000000000001 352 42.8 329.7 32.3 305 C 21.5 279.3 16 252.1 16 224 C 16 195.9 21.5 168.7 32.3 143 C 42.8 118.2 57.8 96 76.9 76.9 C 96.00000000000001 57.80000000000001 118.30000000000001 42.800000000000004 143 32.300000000000004 C 168.7 21.5 195.9 16 224 16 M 224 0 C 100.3 0 0 100.3 0 224 C 0 347.7 100.3 448 224 448 C 347.7 448 448 347.7 448 224 C 448 100.30000000000001 347.7 0 224 0 L 224 0 Z"/></g></g></g><g><g transform="matrix(1,0,0,1,0,0)"><g transform="matrix(1,0,0,1,0,0)"><path fill="#007a87" stroke="none" id="_D95EE22A-59AD-49BB-B800-70B428BEFE43_link-throwing" paint-order="stroke fill markers" d=" M 0 0 M 222.8 131.3 C 218.5 131.3 214.70000000000002 132.9 211.60000000000002 136.10000000000002 L 202.3 145.50000000000003 C 199.10000000000002 148.50000000000003 197.5 152.30000000000004 197.5 156.70000000000002 C 197.5 161.1 199.1 164.9 202.3 167.9 L 238.9 204.7 L 142.9 204.7 C 138.5 204.7 135 206.29999999999998 132.3 209.39999999999998 C 129.60000000000002 212.49999999999997 128.3 216.29999999999998 128.3 220.7 L 128.3 236.7 C 128.3 241.1 129.60000000000002 244.89999999999998 132.3 248 C 135 251.10000000000002 138.5 252.7 142.9 252.7 L 238.9 252.7 L 202.3 289.3 C 199.10000000000002 292.5 197.5 296.3 197.5 300.7 C 197.5 305.09999999999997 199.1 308.9 202.3 312.09999999999997 L 211.70000000000002 321.49999999999994 C 214.9 324.59999999999997 218.70000000000002 326.09999999999997 222.9 326.09999999999997 C 227.3 326.09999999999997 231 324.59999999999997 234.3 321.49999999999994 L 315.70000000000005 240.09999999999994 C 318.80000000000007 236.99999999999994 320.30000000000007 233.19999999999993 320.30000000000007 228.69999999999993 C 320.30000000000007 224.09999999999994 318.80000000000007 220.39999999999992 315.70000000000005 217.49999999999994 L 234.30000000000004 136.19999999999993 C 231.1 132.9 227.3 131.3 222.8 131.3 L 222.8 131.3 Z"/></g></g></g></g><g transform="matrix(1,0,0,1,2.87890625,61)"><text fill="#000000" stroke="none" font-family="Open Sans" font-size="12pt" font-style="normal" font-weight="normal" text-decoration="normal" x="25.12109375" y="12" text-anchor="middle" dominant-baseline="alphabetic">Upsert</text></g></g><g transform="matrix(1,0,0,1,400,1300)"/><g id="_204F9DB0-6969-48B3-83A3-88D788551BD9" bpmn2nodeid="_204F9DB0-6969-48B3-83A3-88D788551BD9" transform="matrix(1,0,0,1,650,1650)"><g><path fill="none" stroke="none"/></g><g transform="matrix(0.125,0,0,0.125,0,0)"><g transform="matrix(1,0,0,1,0,0)"><path fill="#fbefcf" stroke="none" id="_204F9DB0-6969-48B3-83A3-88D788551BD9?shapeType=BACKGROUND" paint-order="stroke fill markers" d=" M 0 0 M 444 224 C 444 263.9 434.2 300.8 414.4 334.5 C 394.7 368.2 368 394.9 334.4 414.5 C 300.79999999999995 434.1 263.9 444 224 444 C 184.10000000000002 444 147.2 434.2 113.5 414.4 C 79.8 394.7 53.1 368 33.5 334.4 C 13.899999999999999 300.79999999999995 4 263.9 4 224 C 4 184.10000000000002 13.8 147.2 33.6 113.5 C 53.400000000000006 79.80000000000001 80.1 53.1 113.6 33.5 C 147.1 13.899999999999999 184.1 4 224 4 C 263.9 4 300.8 13.8 334.5 33.6 C 368.2 53.400000000000006 394.9 80.1 414.5 113.6 C 434.1 147.1 444 184.1 444 224 Z"/></g><g><g transform="matrix(1,0,0,1,0,0)"><g transform="matrix(1,0,0,1,0,0)"><path fill="#e5a000" stroke="none" id="_204F9DB0-6969-48B3-83A3-88D788551BD9?shapeType=BORDER&amp;renderType=FILL" paint-order="stroke fill markers" d=" M 0 0 M 224 408 C 122.5 408 40 325.5 40 224 C 40 122.5 122.5 40 224 40 C 325.5 40 408 122.5 408 224 C 408 325.5 325.5 408 224 408 Z M 0 0 M 224 56 C 131.4 56 56 131.4 56 224 C 56 316.6 131.4 392 224 392 C 316.6 392 392 316.6 392 224 C 392 131.39999999999998 316.6 56 224 56 Z M 0 0 M 224 16 C 252.1 16 279.3 21.5 305 32.3 C 329.8 42.8 352 57.8 371.1 76.9 C 390.20000000000005 96.00000000000001 405.20000000000005 118.30000000000001 415.70000000000005 143 C 426.50000000000006 168.6 432.00000000000006 195.9 432.00000000000006 224 C 432.00000000000006 252.1 426.50000000000006 279.3 415.70000000000005 305 C 405.20000000000005 329.8 390.20000000000005 352 371.1 371.1 C 352 390.20000000000005 329.70000000000005 405.20000000000005 305 415.70000000000005 C 279.4 426.50000000000006 252.1 432.00000000000006 224 432.00000000000006 C 195.9 432.00000000000006 168.7 426.50000000000006 143 415.70000000000005 C 118.2 405.20000000000005 96 390.20000000000005 76.9 371.1 C 57.80000000000001 352 42.8 329.7 32.3 305 C 21.5 279.3 16 252.1 16 224 C 16 195.9 21.5 168.7 32.3 143 C 42.8 118.2 57.8 96 76.9 76.9 C 96.00000000000001 57.80000000000001 118.30000000000001 42.800000000000004 143 32.300000000000004 C 168.7 21.5 195.9 16 224 16 M 224 0 C 100.3 0 0 100.3 0 224 C 0 347.7 100.3 448 224 448 C 347.7 448 448 347.7 448 224 C 448 100.30000000000001 347.7 0 224 0 L 224 0 Z"/></g></g></g><g><g transform="matrix(1,0,0,1,0,0)"><g transform="matrix(1,0,0,1,0,0)"><path fill="#e5a000" stroke="none" id="_204F9DB0-6969-48B3-83A3-88D788551BD9_link-catching" paint-order="stroke fill markers" d=" M 0 0 M 222.9 147.4 L 222.9 147.4 L 304.2 228.7 C 304.2 228.79999999999998 304.2 228.79999999999998 304.2 228.79999999999998 L 223.1 310 C 223 310 223 310.1 222.9 310.1 L 222.8 310.1 C 222.70000000000002 310.1 222.70000000000002 310 222.70000000000002 310 L 213.50000000000003 300.8 L 213.40000000000003 300.8 L 213.50000000000003 300.8 L 250.10000000000002 264.2 L 277.40000000000003 236.89999999999998 L 144.2 236.89999999999998 L 144.2 220.89999999999998 L 277.29999999999995 220.89999999999998 L 250.09999999999997 193.59999999999997 L 213.49999999999997 156.79999999999995 L 222.9 147.4 M 222.8 131.3 C 218.5 131.3 214.70000000000002 132.9 211.60000000000002 136.10000000000002 L 202.3 145.50000000000003 C 199.10000000000002 148.50000000000003 197.5 152.30000000000004 197.5 156.70000000000002 C 197.5 161.1 199.1 164.9 202.3 167.9 L 238.9 204.7 L 142.9 204.7 C 138.5 204.7 135 206.29999999999998 132.3 209.39999999999998 C 129.60000000000002 212.49999999999997 128.3 216.29999999999998 128.3 220.7 L 128.3 236.7 C 128.3 241.1 129.60000000000002 244.89999999999998 132.3 248 C 135 251.10000000000002 138.5 252.7 142.9 252.7 L 238.9 252.7 L 202.3 289.3 C 199.10000000000002 292.5 197.5 296.3 197.5 300.7 C 197.5 305.09999999999997 199.1 308.9 202.3 312.09999999999997 L 211.70000000000002 321.49999999999994 C 214.9 324.59999999999997 218.70000000000002 326.09999999999997 222.9 326.09999999999997 C 227.3 326.09999999999997 231 324.59999999999997 234.3 321.49999999999994 L 315.70000000000005 240.09999999999994 C 318.80000000000007 236.99999999999994 320.30000000000007 233.19999999999993 320.30000000000007 228.69999999999993 C 320.30000000000007 224.09999999999994 318.80000000000007 220.39999999999992 315.70000000000005 217.49999999999994 L 234.30000000000004 136.19999999999993 C 231.1 132.9 227.3 131.3 222.8 131.3 L 222.8 131.3 Z"/></g></g></g></g><g transform="matrix(1,0,0,1,-12.94921875,61)"><text fill="#000000" stroke="none" font-family="Open Sans" font-size="12pt" font-style="normal" font-weight="normal" text-decoration="normal" x="40.94921875" y="12" text-anchor="middle" dominant-baseline="alphabetic">Completed</text></g></g><g transform="matrix(1,0,0,1,650,1650)"/><g id="flow_completed_resultok" bpmn2nodeid="flow_completed_resultok"><g><path fill="none" stroke="#000000" paint-order="fill stroke markers" d=" M 706 1678 L 682.6041626496873 1736.086216869742" stroke-miterlimit="10" stroke-dasharray=""/></g><g transform="matrix(1,0,0,1,706,1678)"/><g transform="matrix(-0.9275855420171958,-0.3736108433124835,0.3736108433124835,-0.9275855420171958,681.6379277100859,1751.8680542165623)"><path fill="#000000" stroke="#000000" paint-order="fill stroke markers" d=" M 10 15 L 0 15 L 5 0 Z" stroke-miterlimit="10" stroke-dasharray=""/></g><g transform="matrix(1,0,0,1,686.275855420172,1710.2638915668751)"/></g><g id="flow_resultok_end" bpmn2nodeid="flow_resultok_end"><g><path fill="none" stroke="#000000" paint-order="fill stroke markers" d=" M 677 1852 L 677.6875677947725 1885.0032541490784" stroke-miterlimit="10" stroke-dasharray=""/></g><g transform="matrix(1,0,0,1,677,1852)"/><g transform="matrix(-0.9997830567281121,0.020828813681835916,-0.020828813681835916,-0.9997830567281121,682.9989152836406,1899.8958559315909)"><path fill="#000000" stroke="#000000" paint-order="fill stroke markers" d=" M 10 15 L 0 15 L 5 0 Z" stroke-miterlimit="10" stroke-dasharray=""/></g><g transform="matrix(1,0,0,1,686.9978305672811,1875.7917118631817)"/></g><g id="flow_upsert_update" bpmn2nodeid="flow_upsert_update"><g><path fill="none" stroke="#000000" paint-order="fill stroke markers" d=" M 428 1456 L 428 1485" stroke-miterlimit="10" stroke-dasharray=""/></g><g transform="matrix(1,0,0,1,428,1456)"/><g transform="matrix(-1,1.2246467991473532e-16,-1.2246467991473532e-16,-1,433,1500)"><path fill="#000000" stroke="#000000" paint-order="fill stroke markers" d=" M 10 15 L 0 15 L 5 0 Z" stroke-miterlimit="10" stroke-dasharray=""/></g><g transform="matrix(1,0,0,1,438,1478)"/></g><g id="flow_update_completed" bpmn2nodeid="flow_update_completed"><g><path fill="none" stroke="#000000" paint-order="fill stroke markers" d=" M 428 1602 L 428 1635" stroke-miterlimit="10" stroke-dasharray=""/></g><g transform="matrix(1,0,0,1,428,1602)"/><g transform="matrix(-1,1.2246467991473532e-16,-1.2246467991473532e-16,-1,433,1650)"><path fill="#000000" stroke="#000000" paint-order="fill stroke markers" d=" M 10 15 L 0 15 L 5 0 Z" stroke-miterlimit="10" stroke-dasharray=""/></g><g transform="matrix(1,0,0,1,438,1626)"/></g><g id="flow_failed_resultfail" bpmn2nodeid="flow_failed_resultfail"><g><path fill="none" stroke="#000000" paint-order="fill stroke markers" d=" M 928 1706 L 927.3408210802994 1735.003872466826" stroke-miterlimit="10" stroke-dasharray=""/></g><g transform="matrix(1,0,0,1,928,1706)"/><g transform="matrix(-0.9997418355449427,-0.022721405353294026,0.022721405353294026,-0.9997418355449427,931.9987091777247,1750.1136070267664)"><path fill="#000000" stroke="#000000" paint-order="fill stroke markers" d=" M 10 15 L 0 15 L 5 0 Z" stroke-miterlimit="10" stroke-dasharray=""/></g><g transform="matrix(1,0,0,1,936.9974183554494,1727.7727859464671)"/></g><g id="flow_resultfail_end" bpmn2nodeid="flow_resultfail_end"><g><path fill="none" stroke="#000000" paint-order="fill stroke markers" d=" M 927 1852 L 927.6875677947725 1885.0032541490784" stroke-miterlimit="10" stroke-dasharray=""/></g><g transform="matrix(1,0,0,1,927,1852)"/><g transform="matrix(-0.9997830567281121,0.020828813681835916,-0.020828813681835916,-0.9997830567281121,932.9989152836406,1899.8958559315909)"><path fill="#000000" stroke="#000000" paint-order="fill stroke markers" d=" M 10 15 L 0 15 L 5 0 Z" stroke-miterlimit="10" stroke-dasharray=""/></g><g transform="matrix(1,0,0,1,936.9978305672811,1875.7917118631817)"/></g><g id="flow_start_tmf" bpmn2nodeid="flow_start_tmf"><g><path fill="none" stroke="#000000" paint-order="fill stroke markers" d=" M 428 156 L 428 235" stroke-miterlimit="10" stroke-dasharray=""/></g><g transform="matrix(1,0,0,1,428,156)"/><g transform="matrix(-1,1.2246467991473532e-16,-1.2246467991473532e-16,-1,433,250)"><path fill="#000000" stroke="#000000" paint-order="fill stroke markers" d=" M 10 15 L 0 15 L 5 0 Z" stroke-miterlimit="10" stroke-dasharray=""/></g><g transform="matrix(1,0,0,1,438,203)"/></g><g id="flow_tmf_findservice" bpmn2nodeid="flow_tmf_findservice"><g><path fill="none" stroke="#000000" paint-order="fill stroke markers" d=" M 428 352 L 428 385" stroke-miterlimit="10" stroke-dasharray=""/></g><g transform="matrix(1,0,0,1,428,352)"/><g transform="matrix(-1,1.2246467991473532e-16,-1.2246467991473532e-16,-1,433,400)"><path fill="#000000" stroke="#000000" paint-order="fill stroke markers" d=" M 10 15 L 0 15 L 5 0 Z" stroke-miterlimit="10" stroke-dasharray=""/></g><g transform="matrix(1,0,0,1,438,376)"/></g><g id="flow_findservice_findcpe" bpmn2nodeid="flow_findservice_findcpe"><g><path fill="none" stroke="#000000" paint-order="fill stroke markers" d=" M 428 502 L 428 535" stroke-miterlimit="10" stroke-dasharray=""/></g><g transform="matrix(1,0,0,1,428,502)"/><g transform="matrix(-1,1.2246467991473532e-16,-1.2246467991473532e-16,-1,433,550)"><path fill="#000000" stroke="#000000" paint-order="fill stroke markers" d=" M 10 15 L 0 15 L 5 0 Z" stroke-miterlimit="10" stroke-dasharray=""/></g><g transform="matrix(1,0,0,1,438,526)"/></g><g id="flow_findcpe_gw1" bpmn2nodeid="flow_findcpe_gw1"><g><path fill="none" stroke="#000000" paint-order="fill stroke markers" d=" M 428 652 L 428 685" stroke-miterlimit="10" stroke-dasharray=""/></g><g transform="matrix(1,0,0,1,428,652)"/><g transform="matrix(-1,1.2246467991473532e-16,-1.2246467991473532e-16,-1,433,700)"><path fill="#000000" stroke="#000000" paint-order="fill stroke markers" d=" M 10 15 L 0 15 L 5 0 Z" stroke-miterlimit="10" stroke-dasharray=""/></g><g transform="matrix(1,0,0,1,438,676)"/></g><g id="flow_gw1_fail" bpmn2nodeid="flow_gw1_fail"><g><path fill="none" stroke="#000000" paint-order="fill stroke markers" d=" M 456 728 L 635 728" stroke-miterlimit="10" stroke-dasharray=""/></g><g transform="matrix(1,0,0,1,456,728)"/><g transform="matrix(6.123233995736766e-17,1,-1,6.123233995736766e-17,650,723)"><path fill="#000000" stroke="#000000" paint-order="fill stroke markers" d=" M 10 15 L 0 15 L 5 0 Z" stroke-miterlimit="10" stroke-dasharray=""/></g><g transform="matrix(1,0,0,1,456,707)"><text fill="#000000" stroke="none" font-family="Open Sans" font-size="10pt" font-style="normal" font-weight="normal" text-decoration="normal" x="0" y="8.8" text-anchor="start" dominant-baseline="alphabetic">Error                                               </text></g></g><g id="flow_gw1_findnode" bpmn2nodeid="flow_gw1_findnode"><g><path fill="none" stroke="#000000" paint-order="fill stroke markers" d=" M 428 756 L 428 835" stroke-miterlimit="10" stroke-dasharray=""/></g><g transform="matrix(1,0,0,1,428,756)"/><g transform="matrix(-1,1.2246467991473532e-16,-1.2246467991473532e-16,-1,433,850)"><path fill="#000000" stroke="#000000" paint-order="fill stroke markers" d=" M 10 15 L 0 15 L 5 0 Z" stroke-miterlimit="10" stroke-dasharray=""/></g><g transform="matrix(1,0,0,1,438,803)"/></g><g id="flow_findnode_findroom" bpmn2nodeid="flow_findnode_findroom"><g><path fill="none" stroke="#000000" paint-order="fill stroke markers" d=" M 428 952 L 428 985" stroke-miterlimit="10" stroke-dasharray=""/></g><g transform="matrix(1,0,0,1,428,952)"/><g transform="matrix(-1,1.2246467991473532e-16,-1.2246467991473532e-16,-1,433,1000)"><path fill="#000000" stroke="#000000" paint-order="fill stroke markers" d=" M 10 15 L 0 15 L 5 0 Z" stroke-miterlimit="10" stroke-dasharray=""/></g><g transform="matrix(1,0,0,1,438,976)"/></g><g id="flow_findroom_gw2" bpmn2nodeid="flow_findroom_gw2"><g><path fill="none" stroke="#000000" paint-order="fill stroke markers" d=" M 428 1102 L 428 1135" stroke-miterlimit="10" stroke-dasharray=""/></g><g transform="matrix(1,0,0,1,428,1102)"/><g transform="matrix(-1,1.2246467991473532e-16,-1.2246467991473532e-16,-1,433,1150)"><path fill="#000000" stroke="#000000" paint-order="fill stroke markers" d=" M 10 15 L 0 15 L 5 0 Z" stroke-miterlimit="10" stroke-dasharray=""/></g><g transform="matrix(1,0,0,1,438,1126)"/></g><g id="flow_gw2_fail" bpmn2nodeid="flow_gw2_fail"><g><path fill="none" stroke="#000000" paint-order="fill stroke markers" d=" M 456 1178 L 635 1178" stroke-miterlimit="10" stroke-dasharray=""/></g><g transform="matrix(1,0,0,1,456,1178)"/><g transform="matrix(6.123233995736766e-17,1,-1,6.123233995736766e-17,650,1173)"><path fill="#000000" stroke="#000000" paint-order="fill stroke markers" d=" M 10 15 L 0 15 L 5 0 Z" stroke-miterlimit="10" stroke-dasharray=""/></g><g transform="matrix(1,0,0,1,456,1157)"><text fill="#000000" stroke="none" font-family="Open Sans" font-size="10pt" font-style="normal" font-weight="normal" text-decoration="normal" x="0" y="8.8" text-anchor="start" dominant-baseline="alphabetic">Error                                               </text></g></g><g id="flow_gw2_upsert" bpmn2nodeid="flow_gw2_upsert"><g><path fill="none" stroke="#000000" paint-order="fill stroke markers" d=" M 428 1206 L 428 1285" stroke-miterlimit="10" stroke-dasharray=""/></g><g transform="matrix(1,0,0,1,428,1206)"/><g transform="matrix(-1,1.2246467991473532e-16,-1.2246467991473532e-16,-1,433,1300)"><path fill="#000000" stroke="#000000" paint-order="fill stroke markers" d=" M 10 15 L 0 15 L 5 0 Z" stroke-miterlimit="10" stroke-dasharray=""/></g><g transform="matrix(1,0,0,1,438,1253)"/></g></g></g></svg>