<svg version="1.1" xmlns="http://www.w3.org/2000/svg" xmlns:xlink="http://www.w3.org/1999/xlink" width="2922" height="547" viewBox="0 0 2922 547"><defs/><g transform="matrix(1,0,0,1,0,0)"><g><g><g><path fill="none" stroke="#d3d3d3" paint-order="fill stroke markers" d=" M 0 0 L 1200 0" stroke-miterlimit="10" stroke-opacity="0.8" stroke-dasharray="5"/></g><g><path fill="none" stroke="#d3d3d3" paint-order="fill stroke markers" d=" M 0 0 L 0 800" stroke-miterlimit="10" stroke-opacity="0.8" stroke-dasharray="5"/></g></g><g id="_732E5A3E-AA08-4D59-9DC1-5381F9B8A014" bpmn2nodeid="_732E5A3E-AA08-4D59-9DC1-5381F9B8A014" transform="matrix(1,0,0,1,350,240)"><g><path fill="none" stroke="none"/></g><g transform="matrix(1,0,0,1,0,0)"><path fill="#ffffff" stroke="none" id="_732E5A3E-AA08-4D59-9DC1-5381F9B8A014?shapeType=BACKGROUND" paint-order="stroke fill markers" d=" M 2 0 L 152 0 L 152 0 A 2 2 0 0 1 154 2 L 154 100 L 154 100 A 2 2 0 0 1 152 102 L 2 102 L 2 102 A 2 2 0 0 1 0 100 L 0 2 L 0 2.0000000000000004 A 2 2 0 0 1 1.9999999999999996 0 Z"/></g><g transform="matrix(1,0,0,1,0,0)"><path fill="none" stroke="#000000" id="_732E5A3E-AA08-4D59-9DC1-5381F9B8A014?shapeType=BORDER&amp;renderType=STROKE" paint-order="fill stroke markers" d=" M 2 0 L 152 0 L 152 0 A 2 2 0 0 1 154 2 L 154 100 L 154 100 A 2 2 0 0 1 152 102 L 2 102 L 2 102 A 2 2 0 0 1 0 100 L 0 2 L 0 2.0000000000000004 A 2 2 0 0 1 1.9999999999999996 0 Z" stroke-miterlimit="10" stroke-width="1.5" stroke-dasharray=""/></g><g><g transform="matrix(1,0,0,1,0,0)"><g transform="matrix(1,0,0,1,10,10)"/></g></g><g transform="matrix(1,0,0,1,30,21)"><text fill="#000000" stroke="none" font-family="Open Sans" font-size="12pt" font-style="normal" font-weight="normal" text-decoration="normal" x="58.234375" y="12" text-anchor="middle" dominant-baseline="alphabetic">REST_API_CALL:</text><text fill="#000000" stroke="none" font-family="Open Sans" font-size="12pt" font-style="normal" font-weight="normal" text-decoration="normal" x="58.234375" y="27" text-anchor="middle" dominant-baseline="alphabetic">                            </text><text fill="#000000" stroke="none" font-family="Open Sans" font-size="12pt" font-style="normal" font-weight="normal" text-decoration="normal" x="58.234375" y="42" text-anchor="middle" dominant-baseline="alphabetic">cross/createPro</text><text fill="#000000" stroke="none" font-family="Open Sans" font-size="12pt" font-style="normal" font-weight="normal" text-decoration="normal" x="58.234375" y="57" text-anchor="middle" dominant-baseline="alphabetic">           ject           </text></g></g><g transform="matrix(1,0,0,1,350,240)"/><g id="_D1B521D8-1022-48D8-AE12-935A940DDC11" bpmn2nodeid="_D1B521D8-1022-48D8-AE12-935A940DDC11" transform="matrix(1,0,0,1,798,60)"><g><path fill="none" stroke="none"/></g><g transform="matrix(0.125,0,0,0.125,0,0)"><g transform="matrix(1,0,0,1,0,0)"><path fill="#bedee1" stroke="none" id="_D1B521D8-1022-48D8-AE12-935A940DDC11?shapeType=BACKGROUND" paint-order="stroke fill markers" d=" M 0 0 M 444 224 C 444 263.9 434.2 300.8 414.4 334.5 C 394.7 368.2 368 394.9 334.4 414.5 C 300.79999999999995 434.1 263.9 444 224 444 C 184.10000000000002 444 147.2 434.2 113.5 414.4 C 79.8 394.7 53.1 368 33.5 334.4 C 13.899999999999999 300.79999999999995 4 263.9 4 224 C 4 184.10000000000002 13.8 147.2 33.6 113.5 C 53.400000000000006 79.80000000000001 80.1 53.1 113.6 33.5 C 147.1 13.899999999999999 184.1 4 224 4 C 263.9 4 300.8 13.8 334.5 33.6 C 368.2 53.400000000000006 394.9 80.1 414.5 113.6 C 434.1 147.1 444 184.1 444 224 Z"/></g><g><g transform="matrix(1,0,0,1,0,0)"><g transform="matrix(1,0,0,1,0,0)"><path fill="#007a87" stroke="none" id="_D1B521D8-1022-48D8-AE12-935A940DDC11?shapeType=BORDER&amp;renderType=FILL" paint-order="stroke fill markers" d=" M 0 0 M 224 408 C 122.5 408 40 325.5 40 224 C 40 122.5 122.5 40 224 40 C 325.5 40 408 122.5 408 224 C 408 325.5 325.5 408 224 408 Z M 0 0 M 224 56 C 131.4 56 56 131.4 56 224 C 56 316.6 131.4 392 224 392 C 316.6 392 392 316.6 392 224 C 392 131.39999999999998 316.6 56 224 56 Z M 0 0 M 224 16 C 252.1 16 279.3 21.5 305 32.3 C 329.8 42.8 352 57.8 371.1 76.9 C 390.20000000000005 96.00000000000001 405.20000000000005 118.30000000000001 415.70000000000005 143 C 426.50000000000006 168.6 432.00000000000006 195.9 432.00000000000006 224 C 432.00000000000006 252.1 426.50000000000006 279.3 415.70000000000005 305 C 405.20000000000005 329.8 390.20000000000005 352 371.1 371.1 C 352 390.20000000000005 329.70000000000005 405.20000000000005 305 415.70000000000005 C 279.4 426.50000000000006 252.1 432.00000000000006 224 432.00000000000006 C 195.9 432.00000000000006 168.7 426.50000000000006 143 415.70000000000005 C 118.2 405.20000000000005 96 390.20000000000005 76.9 371.1 C 57.80000000000001 352 42.8 329.7 32.3 305 C 21.5 279.3 16 252.1 16 224 C 16 195.9 21.5 168.7 32.3 143 C 42.8 118.2 57.8 96 76.9 76.9 C 96.00000000000001 57.80000000000001 118.30000000000001 42.800000000000004 143 32.300000000000004 C 168.7 21.5 195.9 16 224 16 M 224 0 C 100.3 0 0 100.3 0 224 C 0 347.7 100.3 448 224 448 C 347.7 448 448 347.7 448 224 C 448 100.30000000000001 347.7 0 224 0 L 224 0 Z"/></g></g></g><g><g transform="matrix(1,0,0,1,0,0)"><g transform="matrix(1,0,0,1,0,0)"><path fill="#007a87" stroke="none" id="_D1B521D8-1022-48D8-AE12-935A940DDC11_link-throwing" paint-order="stroke fill markers" d=" M 0 0 M 222.8 131.3 C 218.5 131.3 214.70000000000002 132.9 211.60000000000002 136.10000000000002 L 202.3 145.50000000000003 C 199.10000000000002 148.50000000000003 197.5 152.30000000000004 197.5 156.70000000000002 C 197.5 161.1 199.1 164.9 202.3 167.9 L 238.9 204.7 L 142.9 204.7 C 138.5 204.7 135 206.29999999999998 132.3 209.39999999999998 C 129.60000000000002 212.49999999999997 128.3 216.29999999999998 128.3 220.7 L 128.3 236.7 C 128.3 241.1 129.60000000000002 244.89999999999998 132.3 248 C 135 251.10000000000002 138.5 252.7 142.9 252.7 L 238.9 252.7 L 202.3 289.3 C 199.10000000000002 292.5 197.5 296.3 197.5 300.7 C 197.5 305.09999999999997 199.1 308.9 202.3 312.09999999999997 L 211.70000000000002 321.49999999999994 C 214.9 324.59999999999997 218.70000000000002 326.09999999999997 222.9 326.09999999999997 C 227.3 326.09999999999997 231 324.59999999999997 234.3 321.49999999999994 L 315.70000000000005 240.09999999999994 C 318.80000000000007 236.99999999999994 320.30000000000007 233.19999999999993 320.30000000000007 228.69999999999993 C 320.30000000000007 224.09999999999994 318.80000000000007 220.39999999999992 315.70000000000005 217.49999999999994 L 234.30000000000004 136.19999999999993 C 231.1 132.9 227.3 131.3 222.8 131.3 L 222.8 131.3 Z"/></g></g></g></g><g transform="matrix(1,0,0,1,5.984375,61)"><text fill="#000000" stroke="none" font-family="Open Sans" font-size="12pt" font-style="normal" font-weight="normal" text-decoration="normal" x="22.015625" y="12" text-anchor="middle" dominant-baseline="alphabetic">Failed</text></g></g><g transform="matrix(1,0,0,1,798,60)"/><g id="_EF0E763E-E967-4F46-B0F6-10DDFFEDC334" bpmn2nodeid="_EF0E763E-E967-4F46-B0F6-10DDFFEDC334" transform="matrix(1,0,0,1,1712,240)"><g><path fill="none" stroke="none"/></g><g transform="matrix(1,0,0,1,0,0)"><path fill="#ffffff" stroke="none" id="_EF0E763E-E967-4F46-B0F6-10DDFFEDC334?shapeType=BACKGROUND" paint-order="stroke fill markers" d=" M 2 0 L 152 0 L 152 0 A 2 2 0 0 1 154 2 L 154 100 L 154 100 A 2 2 0 0 1 152 102 L 2 102 L 2 102 A 2 2 0 0 1 0 100 L 0 2 L 0 2.0000000000000004 A 2 2 0 0 1 1.9999999999999996 0 Z"/></g><g transform="matrix(1,0,0,1,0,0)"><path fill="none" stroke="#000000" id="_EF0E763E-E967-4F46-B0F6-10DDFFEDC334?shapeType=BORDER&amp;renderType=STROKE" paint-order="fill stroke markers" d=" M 2 0 L 152 0 L 152 0 A 2 2 0 0 1 154 2 L 154 100 L 154 100 A 2 2 0 0 1 152 102 L 2 102 L 2 102 A 2 2 0 0 1 0 100 L 0 2 L 0 2.0000000000000004 A 2 2 0 0 1 1.9999999999999996 0 Z" stroke-miterlimit="10" stroke-width="1.5" stroke-dasharray=""/></g><g><g transform="matrix(1,0,0,1,0,0)"><g transform="matrix(1,0,0,1,10,10)"/></g></g><g transform="matrix(1,0,0,1,30,21)"><text fill="#000000" stroke="none" font-family="Open Sans" font-size="12pt" font-style="normal" font-weight="normal" text-decoration="normal" x="60.44921875" y="12" text-anchor="middle" dominant-baseline="alphabetic">REST_API_CALL: </text><text fill="#000000" stroke="none" font-family="Open Sans" font-size="12pt" font-style="normal" font-weight="normal" text-decoration="normal" x="60.44921875" y="27" text-anchor="middle" dominant-baseline="alphabetic">                             </text><text fill="#000000" stroke="none" font-family="Open Sans" font-size="12pt" font-style="normal" font-weight="normal" text-decoration="normal" x="60.44921875" y="42" text-anchor="middle" dominant-baseline="alphabetic">cross/blockCage</text></g></g><g transform="matrix(1,0,0,1,1712,240)"/><g id="_ACB1DB1F-F31D-4D66-8AEA-60701F4D5C7B" bpmn2nodeid="_ACB1DB1F-F31D-4D66-8AEA-60701F4D5C7B" transform="matrix(1,0,0,1,1172,263)"><g><path fill="none" stroke="none"/></g><g transform="matrix(0.125,0,0,0.125,0,0)"><g transform="matrix(1,0,0,1,0,0)"><path fill="#fef4ea" stroke="none" id="_ACB1DB1F-F31D-4D66-8AEA-60701F4D5C7B?shapeType=BACKGROUND" paint-order="stroke fill markers" d=" M 0 0 M 224.4 4.3 C 216.4 4.3 208.4 7.3 202.3 13.399999999999999 L 13.5 202.2 C 1.3000000000000007 214.39999999999998 1.3000000000000007 234.2 13.5 246.39999999999998 L 202.2 435.09999999999997 C 208.29999999999998 441.2 216.39999999999998 444.2 224.29999999999998 444.2 C 232.2 444.2 240.29999999999998 441.2 246.39999999999998 435.09999999999997 L 435.09999999999997 246.39999999999998 C 447.29999999999995 234.2 447.29999999999995 214.39999999999998 435.09999999999997 202.2 L 246.5 13.4 C 240.4 7.3 232.4 4.3 224.4 4.3 L 224.4 4.3 Z"/></g><g><g transform="matrix(1,0,0,1,0,0)"><g transform="matrix(1,0,0,1,0,0)"><path fill="#ec7a08" stroke="none" id="_ACB1DB1F-F31D-4D66-8AEA-60701F4D5C7B?shapeType=BORDER&amp;renderType=FILL" paint-order="stroke fill markers" d=" M 0 0 M 20.8 212.7 L 213.3 20.2 C 219.60000000000002 13.899999999999999 229.70000000000002 13.899999999999999 235.9 20.2 L 428.4 212.7 C 434.7 219 434.7 229.1 428.4 235.29999999999998 L 235.9 427.8 C 229.6 434.1 219.5 434.1 213.3 427.8 L 20.8 235.3 C 14.5 229.1 14.5 218.9 20.8 212.7 L 20.8 212.7 Z M 0 0 M 0 224 C 0 232.1 3.1 240.3 9.3 246.5 L 201.5 438.7 C 213.9 451.09999999999997 234.1 451.09999999999997 246.5 438.7 L 438.7 246.5 C 444.9 240.3 448 232.1 448 224 C 448 215.9 444.9 207.7 438.7 201.5 L 246.5 9.3 C 234.1 -3.0999999999999996 213.9 -3.0999999999999996 201.5 9.3 L 9.3 201.5 C 3.1 207.7 0 215.9 0 224 L 0 224 Z"/></g></g></g><g><g transform="matrix(1,0,0,1,0,0)"><g transform="matrix(1,0,0,1,0,0)"><path fill="#ec7a08" stroke="none" id="_ACB1DB1F-F31D-4D66-8AEA-60701F4D5C7B_exclusive" paint-order="stroke fill markers" d=" M 0 0 M 298.2 269.2 C 298.2 272.59999999999997 297.09999999999997 275.3 294.7 277.7 L 277.7 294.7 C 275.3 297.09999999999997 272.59999999999997 298.2 269.2 298.2 C 265.8 298.2 263.09999999999997 297.09999999999997 260.7 294.7 L 224 258 L 187.2 294.8 C 184.79999999999998 297.2 182.1 298.3 178.7 298.3 C 175.29999999999998 298.3 172.6 297.2 170.2 294.8 L 153.2 277.8 C 150.79999999999998 275.40000000000003 149.7 272.7 149.7 269.3 C 149.7 265.90000000000003 150.79999999999998 263.2 153.2 260.8 L 190 224 L 153.2 187.2 C 150.79999999999998 184.79999999999998 149.7 182 149.7 178.7 C 149.7 175.29999999999998 150.79999999999998 172.5 153.2 170.2 L 170.2 153.2 C 172.6 150.79999999999998 175.29999999999998 149.7 178.7 149.7 C 182.1 149.7 184.79999999999998 150.79999999999998 187.2 153.2 L 224 190 L 260.8 153.2 C 263.2 150.79999999999998 265.90000000000003 149.7 269.3 149.7 C 272.7 149.7 275.40000000000003 150.79999999999998 277.8 153.2 L 294.8 170.2 C 297.2 172.5 298.3 175.29999999999998 298.3 178.7 C 298.3 182 297.2 184.79999999999998 294.8 187.2 L 258 224 L 294.8 260.8 C 297.1 263.1 298.2 265.9 298.2 269.2 Z"/></g></g></g></g><g transform="matrix(1,0,0,1,28,61)"/></g><g transform="matrix(1,0,0,1,1172,263)"/><g id="_65AECB8E-7858-4121-A8AD-EBAB2F9819C1" bpmn2nodeid="_65AECB8E-7858-4121-A8AD-EBAB2F9819C1" transform="matrix(1,0,0,1,2080,240)"><g><path fill="none" stroke="none"/></g><g transform="matrix(1,0,0,1,0,0)"><path fill="#ffffff" stroke="none" id="_65AECB8E-7858-4121-A8AD-EBAB2F9819C1?shapeType=BACKGROUND" paint-order="stroke fill markers" d=" M 2 0 L 152 0 L 152 0 A 2 2 0 0 1 154 2 L 154 100 L 154 100 A 2 2 0 0 1 152 102 L 2 102 L 2 102 A 2 2 0 0 1 0 100 L 0 2 L 0 2.0000000000000004 A 2 2 0 0 1 1.9999999999999996 0 Z"/></g><g transform="matrix(1,0,0,1,0,0)"><path fill="none" stroke="#000000" id="_65AECB8E-7858-4121-A8AD-EBAB2F9819C1?shapeType=BORDER&amp;renderType=STROKE" paint-order="fill stroke markers" d=" M 2 0 L 152 0 L 152 0 A 2 2 0 0 1 154 2 L 154 100 L 154 100 A 2 2 0 0 1 152 102 L 2 102 L 2 102 A 2 2 0 0 1 0 100 L 0 2 L 0 2.0000000000000004 A 2 2 0 0 1 1.9999999999999996 0 Z" stroke-miterlimit="10" stroke-width="1.5" stroke-dasharray=""/></g><g><g transform="matrix(1,0,0,1,0,0)"><g transform="matrix(1,0,0,1,10,10)"/></g></g><g transform="matrix(1,0,0,1,30,21)"><text fill="#000000" stroke="none" font-family="Open Sans" font-size="12pt" font-style="normal" font-weight="normal" text-decoration="normal" x="58.03515625" y="12" text-anchor="middle" dominant-baseline="alphabetic">REST_API_CALL:</text><text fill="#000000" stroke="none" font-family="Open Sans" font-size="12pt" font-style="normal" font-weight="normal" text-decoration="normal" x="58.03515625" y="27" text-anchor="middle" dominant-baseline="alphabetic">                            </text><text fill="#000000" stroke="none" font-family="Open Sans" font-size="12pt" font-style="normal" font-weight="normal" text-decoration="normal" x="58.03515625" y="42" text-anchor="middle" dominant-baseline="alphabetic">cross/createSer</text><text fill="#000000" stroke="none" font-family="Open Sans" font-size="12pt" font-style="normal" font-weight="normal" text-decoration="normal" x="58.03515625" y="57" text-anchor="middle" dominant-baseline="alphabetic">          vice           </text></g></g><g transform="matrix(1,0,0,1,2080,240)"/><g id="_A8BB9DBD-1042-4D58-A632-2B701E74E4B3" bpmn2nodeid="_A8BB9DBD-1042-4D58-A632-2B701E74E4B3" transform="matrix(1,0,0,1,60,263)"><g><path fill="none" stroke="none"/></g><g transform="matrix(0.125,0,0,0.125,0,0)"><g transform="matrix(1,0,0,1,0,0)"><path fill="#e8fae6" stroke="none" id="_A8BB9DBD-1042-4D58-A632-2B701E74E4B3?shapeType=BACKGROUND" paint-order="stroke fill markers" d=" M 0 0 M 444 224 C 444 263.9 434.2 300.8 414.4 334.5 C 394.7 368.2 368 394.9 334.4 414.5 C 300.79999999999995 434.1 263.9 444 224 444 C 184.10000000000002 444 147.2 434.2 113.5 414.4 C 79.8 394.7 53.1 368 33.5 334.4 C 13.899999999999999 300.79999999999995 4 263.9 4 224 C 4 184.10000000000002 13.8 147.2 33.6 113.5 C 53.400000000000006 79.80000000000001 80.1 53.1 113.6 33.5 C 147.1 13.899999999999999 184.1 4 224 4 C 263.9 4 300.8 13.8 334.5 33.6 C 368.2 53.400000000000006 394.9 80.1 414.5 113.6 C 434.1 147.1 444 184.1 444 224 Z"/></g><g><g transform="matrix(1,0,0,1,0,0)"><g transform="matrix(1,0,0,1,0,0)"><path fill="#4aa241" stroke="none" id="_A8BB9DBD-1042-4D58-A632-2B701E74E4B3?shapeType=BORDER&amp;renderType=FILL" paint-order="stroke fill markers" d=" M 0 0 M 224 0 C 100.3 0 0 100.3 0 224 C 0 347.7 100.3 448 224 448 C 347.7 448 448 347.7 448 224 C 448 100.30000000000001 347.7 0 224 0 Z M 0 0 M 224 432 C 109.1 432 16 338.9 16 224 C 16 109.10000000000002 109.1 16 224 16 C 338.9 16 432 109.1 432 224 C 432 338.9 338.9 432 224 432 Z"/></g></g></g></g><g transform="matrix(1,0,0,1,28,61)"/></g><g transform="matrix(1,0,0,1,60,263)"/><g id="_F352A435-5730-4BDA-9D4E-F08A09613C30" bpmn2nodeid="_F352A435-5730-4BDA-9D4E-F08A09613C30" transform="matrix(1,0,0,1,2448,240)"><g><path fill="none" stroke="none"/></g><g transform="matrix(1,0,0,1,0,0)"><path fill="#ffffff" stroke="none" id="_F352A435-5730-4BDA-9D4E-F08A09613C30?shapeType=BACKGROUND" paint-order="stroke fill markers" d=" M 2 0 L 152 0 L 152 0 A 2 2 0 0 1 154 2 L 154 100 L 154 100 A 2 2 0 0 1 152 102 L 2 102 L 2 102 A 2 2 0 0 1 0 100 L 0 2 L 0 2.0000000000000004 A 2 2 0 0 1 1.9999999999999996 0 Z"/></g><g transform="matrix(1,0,0,1,0,0)"><path fill="none" stroke="#000000" id="_F352A435-5730-4BDA-9D4E-F08A09613C30?shapeType=BORDER&amp;renderType=STROKE" paint-order="fill stroke markers" d=" M 2 0 L 152 0 L 152 0 A 2 2 0 0 1 154 2 L 154 100 L 154 100 A 2 2 0 0 1 152 102 L 2 102 L 2 102 A 2 2 0 0 1 0 100 L 0 2 L 0 2.0000000000000004 A 2 2 0 0 1 1.9999999999999996 0 Z" stroke-miterlimit="10" stroke-width="1.5" stroke-dasharray=""/></g><g><g transform="matrix(1,0,0,1,0,0)"><g transform="matrix(1,0,0,1,10,10)"/></g></g><g transform="matrix(1,0,0,1,30,13.5)"><text fill="#000000" stroke="none" font-family="Open Sans" font-size="12pt" font-style="normal" font-weight="normal" text-decoration="normal" x="59.36328125" y="12" text-anchor="middle" dominant-baseline="alphabetic">REST_API_CALL: </text><text fill="#000000" stroke="none" font-family="Open Sans" font-size="12pt" font-style="normal" font-weight="normal" text-decoration="normal" x="59.36328125" y="27" text-anchor="middle" dominant-baseline="alphabetic">                             </text><text fill="#000000" stroke="none" font-family="Open Sans" font-size="12pt" font-style="normal" font-weight="normal" text-decoration="normal" x="59.36328125" y="42" text-anchor="middle" dominant-baseline="alphabetic">cross/addCageT</text><text fill="#000000" stroke="none" font-family="Open Sans" font-size="12pt" font-style="normal" font-weight="normal" text-decoration="normal" x="59.36328125" y="57" text-anchor="middle" dominant-baseline="alphabetic">oServiceCompo</text><text fill="#000000" stroke="none" font-family="Open Sans" font-size="12pt" font-style="normal" font-weight="normal" text-decoration="normal" x="59.36328125" y="72" text-anchor="middle" dominant-baseline="alphabetic">          nent          </text></g></g><g transform="matrix(1,0,0,1,2448,240)"/><g id="_0C4B3FBF-E317-4861-82D4-D32F1C772445" bpmn2nodeid="_0C4B3FBF-E317-4861-82D4-D32F1C772445" transform="matrix(1,0,0,1,166,240)"><g><path fill="none" stroke="none"/></g><g transform="matrix(1,0,0,1,0,0)"><path fill="#ffffff" stroke="none" id="_0C4B3FBF-E317-4861-82D4-D32F1C772445?shapeType=BACKGROUND" paint-order="stroke fill markers" d=" M 2 0 L 152 0 L 152 0 A 2 2 0 0 1 154 2 L 154 100 L 154 100 A 2 2 0 0 1 152 102 L 2 102 L 2 102 A 2 2 0 0 1 0 100 L 0 2 L 0 2.0000000000000004 A 2 2 0 0 1 1.9999999999999996 0 Z"/></g><g transform="matrix(1,0,0,1,0,0)"><path fill="none" stroke="#000000" id="_0C4B3FBF-E317-4861-82D4-D32F1C772445?shapeType=BORDER&amp;renderType=STROKE" paint-order="fill stroke markers" d=" M 2 0 L 152 0 L 152 0 A 2 2 0 0 1 154 2 L 154 100 L 154 100 A 2 2 0 0 1 152 102 L 2 102 L 2 102 A 2 2 0 0 1 0 100 L 0 2 L 0 2.0000000000000004 A 2 2 0 0 1 1.9999999999999996 0 Z" stroke-miterlimit="10" stroke-width="1.5" stroke-dasharray=""/></g><g><g transform="matrix(1,0,0,1,0,0)"><g transform="matrix(1,0,0,1,10,10)"/></g></g><g transform="matrix(1,0,0,1,30,36)"><text fill="#000000" stroke="none" font-family="Open Sans" font-size="12pt" font-style="normal" font-weight="normal" text-decoration="normal" x="47.8515625" y="12" text-anchor="middle" dominant-baseline="alphabetic">TMF_STORE: </text><text fill="#000000" stroke="none" font-family="Open Sans" font-size="12pt" font-style="normal" font-weight="normal" text-decoration="normal" x="47.8515625" y="27" text-anchor="middle" dominant-baseline="alphabetic">    get data    </text></g></g><g transform="matrix(1,0,0,1,166,240)"/><g id="_DF7DBE5F-DCB0-43F2-B5A0-D14E96F15DDF" bpmn2nodeid="_DF7DBE5F-DCB0-43F2-B5A0-D14E96F15DDF" transform="matrix(1,0,0,1,804,240)"><g><path fill="none" stroke="none"/></g><g transform="matrix(1,0,0,1,0,0)"><path fill="#ffffff" stroke="none" id="_DF7DBE5F-DCB0-43F2-B5A0-D14E96F15DDF?shapeType=BACKGROUND" paint-order="stroke fill markers" d=" M 2 0 L 152 0 L 152 0 A 2 2 0 0 1 154 2 L 154 100 L 154 100 A 2 2 0 0 1 152 102 L 2 102 L 2 102 A 2 2 0 0 1 0 100 L 0 2 L 0 2.0000000000000004 A 2 2 0 0 1 1.9999999999999996 0 Z"/></g><g transform="matrix(1,0,0,1,0,0)"><path fill="none" stroke="#000000" id="_DF7DBE5F-DCB0-43F2-B5A0-D14E96F15DDF?shapeType=BORDER&amp;renderType=STROKE" paint-order="fill stroke markers" d=" M 2 0 L 152 0 L 152 0 A 2 2 0 0 1 154 2 L 154 100 L 154 100 A 2 2 0 0 1 152 102 L 2 102 L 2 102 A 2 2 0 0 1 0 100 L 0 2 L 0 2.0000000000000004 A 2 2 0 0 1 1.9999999999999996 0 Z" stroke-miterlimit="10" stroke-width="1.5" stroke-dasharray=""/></g><g><g transform="matrix(1,0,0,1,0,0)"><g transform="matrix(1,0,0,1,10,10)"/></g></g><g transform="matrix(1,0,0,1,30,21)"><text fill="#000000" stroke="none" font-family="Open Sans" font-size="12pt" font-style="normal" font-weight="normal" text-decoration="normal" x="58.15234375" y="12" text-anchor="middle" dominant-baseline="alphabetic">REST_API_CALL:</text><text fill="#000000" stroke="none" font-family="Open Sans" font-size="12pt" font-style="normal" font-weight="normal" text-decoration="normal" x="58.15234375" y="27" text-anchor="middle" dominant-baseline="alphabetic">                            </text><text fill="#000000" stroke="none" font-family="Open Sans" font-size="12pt" font-style="normal" font-weight="normal" text-decoration="normal" x="58.15234375" y="42" text-anchor="middle" dominant-baseline="alphabetic">cross/findLocali</text><text fill="#000000" stroke="none" font-family="Open Sans" font-size="12pt" font-style="normal" font-weight="normal" text-decoration="normal" x="58.15234375" y="57" text-anchor="middle" dominant-baseline="alphabetic">  tyOnAddress   </text></g></g><g transform="matrix(1,0,0,1,804,240)"/><g id="_656B29A3-1923-4888-BAE3-9F5D056DEF90" bpmn2nodeid="_656B29A3-1923-4888-BAE3-9F5D056DEF90" transform="matrix(1,0,0,1,718,263)"><g><path fill="none" stroke="none"/></g><g transform="matrix(0.125,0,0,0.125,0,0)"><g transform="matrix(1,0,0,1,0,0)"><path fill="#fef4ea" stroke="none" id="_656B29A3-1923-4888-BAE3-9F5D056DEF90?shapeType=BACKGROUND" paint-order="stroke fill markers" d=" M 0 0 M 224.4 4.3 C 216.4 4.3 208.4 7.3 202.3 13.399999999999999 L 13.5 202.2 C 1.3000000000000007 214.39999999999998 1.3000000000000007 234.2 13.5 246.39999999999998 L 202.2 435.09999999999997 C 208.29999999999998 441.2 216.39999999999998 444.2 224.29999999999998 444.2 C 232.2 444.2 240.29999999999998 441.2 246.39999999999998 435.09999999999997 L 435.09999999999997 246.39999999999998 C 447.29999999999995 234.2 447.29999999999995 214.39999999999998 435.09999999999997 202.2 L 246.5 13.4 C 240.4 7.3 232.4 4.3 224.4 4.3 L 224.4 4.3 Z"/></g><g><g transform="matrix(1,0,0,1,0,0)"><g transform="matrix(1,0,0,1,0,0)"><path fill="#ec7a08" stroke="none" id="_656B29A3-1923-4888-BAE3-9F5D056DEF90?shapeType=BORDER&amp;renderType=FILL" paint-order="stroke fill markers" d=" M 0 0 M 20.8 212.7 L 213.3 20.2 C 219.60000000000002 13.899999999999999 229.70000000000002 13.899999999999999 235.9 20.2 L 428.4 212.7 C 434.7 219 434.7 229.1 428.4 235.29999999999998 L 235.9 427.8 C 229.6 434.1 219.5 434.1 213.3 427.8 L 20.8 235.3 C 14.5 229.1 14.5 218.9 20.8 212.7 L 20.8 212.7 Z M 0 0 M 0 224 C 0 232.1 3.1 240.3 9.3 246.5 L 201.5 438.7 C 213.9 451.09999999999997 234.1 451.09999999999997 246.5 438.7 L 438.7 246.5 C 444.9 240.3 448 232.1 448 224 C 448 215.9 444.9 207.7 438.7 201.5 L 246.5 9.3 C 234.1 -3.0999999999999996 213.9 -3.0999999999999996 201.5 9.3 L 9.3 201.5 C 3.1 207.7 0 215.9 0 224 L 0 224 Z"/></g></g></g><g><g transform="matrix(1,0,0,1,0,0)"><g transform="matrix(1,0,0,1,0,0)"><path fill="#ec7a08" stroke="none" id="_656B29A3-1923-4888-BAE3-9F5D056DEF90_exclusive" paint-order="stroke fill markers" d=" M 0 0 M 298.2 269.2 C 298.2 272.59999999999997 297.09999999999997 275.3 294.7 277.7 L 277.7 294.7 C 275.3 297.09999999999997 272.59999999999997 298.2 269.2 298.2 C 265.8 298.2 263.09999999999997 297.09999999999997 260.7 294.7 L 224 258 L 187.2 294.8 C 184.79999999999998 297.2 182.1 298.3 178.7 298.3 C 175.29999999999998 298.3 172.6 297.2 170.2 294.8 L 153.2 277.8 C 150.79999999999998 275.40000000000003 149.7 272.7 149.7 269.3 C 149.7 265.90000000000003 150.79999999999998 263.2 153.2 260.8 L 190 224 L 153.2 187.2 C 150.79999999999998 184.79999999999998 149.7 182 149.7 178.7 C 149.7 175.29999999999998 150.79999999999998 172.5 153.2 170.2 L 170.2 153.2 C 172.6 150.79999999999998 175.29999999999998 149.7 178.7 149.7 C 182.1 149.7 184.79999999999998 150.79999999999998 187.2 153.2 L 224 190 L 260.8 153.2 C 263.2 150.79999999999998 265.90000000000003 149.7 269.3 149.7 C 272.7 149.7 275.40000000000003 150.79999999999998 277.8 153.2 L 294.8 170.2 C 297.2 172.5 298.3 175.29999999999998 298.3 178.7 C 298.3 182 297.2 184.79999999999998 294.8 187.2 L 258 224 L 294.8 260.8 C 297.1 263.1 298.2 265.9 298.2 269.2 Z"/></g></g></g></g><g transform="matrix(1,0,0,1,28,61)"/></g><g transform="matrix(1,0,0,1,718,263)"/><g id="_4F3E7E5B-1B64-41C4-9F7C-B877BA3E891C" bpmn2nodeid="_4F3E7E5B-1B64-41C4-9F7C-B877BA3E891C" transform="matrix(1,0,0,1,2264,240)"><g><path fill="none" stroke="none"/></g><g transform="matrix(1,0,0,1,0,0)"><path fill="#ffffff" stroke="none" id="_4F3E7E5B-1B64-41C4-9F7C-B877BA3E891C?shapeType=BACKGROUND" paint-order="stroke fill markers" d=" M 2 0 L 152 0 L 152 0 A 2 2 0 0 1 154 2 L 154 100 L 154 100 A 2 2 0 0 1 152 102 L 2 102 L 2 102 A 2 2 0 0 1 0 100 L 0 2 L 0 2.0000000000000004 A 2 2 0 0 1 1.9999999999999996 0 Z"/></g><g transform="matrix(1,0,0,1,0,0)"><path fill="none" stroke="#000000" id="_4F3E7E5B-1B64-41C4-9F7C-B877BA3E891C?shapeType=BORDER&amp;renderType=STROKE" paint-order="fill stroke markers" d=" M 2 0 L 152 0 L 152 0 A 2 2 0 0 1 154 2 L 154 100 L 154 100 A 2 2 0 0 1 152 102 L 2 102 L 2 102 A 2 2 0 0 1 0 100 L 0 2 L 0 2.0000000000000004 A 2 2 0 0 1 1.9999999999999996 0 Z" stroke-miterlimit="10" stroke-width="1.5" stroke-dasharray=""/></g><g><g transform="matrix(1,0,0,1,0,0)"><g transform="matrix(1,0,0,1,10,10)"/></g></g><g transform="matrix(1,0,0,1,30,13.5)"><text fill="#000000" stroke="none" font-family="Open Sans" font-size="12pt" font-style="normal" font-weight="normal" text-decoration="normal" x="60.80859375" y="12" text-anchor="middle" dominant-baseline="alphabetic">REST_API_CALL: </text><text fill="#000000" stroke="none" font-family="Open Sans" font-size="12pt" font-style="normal" font-weight="normal" text-decoration="normal" x="60.80859375" y="27" text-anchor="middle" dominant-baseline="alphabetic">                             </text><text fill="#000000" stroke="none" font-family="Open Sans" font-size="12pt" font-style="normal" font-weight="normal" text-decoration="normal" x="60.80859375" y="42" text-anchor="middle" dominant-baseline="alphabetic">cross/addOptica</text><text fill="#000000" stroke="none" font-family="Open Sans" font-size="12pt" font-style="normal" font-weight="normal" text-decoration="normal" x="60.80859375" y="57" text-anchor="middle" dominant-baseline="alphabetic">lPathAndLocalit </text><text fill="#000000" stroke="none" font-family="Open Sans" font-size="12pt" font-style="normal" font-weight="normal" text-decoration="normal" x="60.80859375" y="72" text-anchor="middle" dominant-baseline="alphabetic">     yToService     </text></g></g><g transform="matrix(1,0,0,1,2264,240)"/><g id="_C0F94E2B-F15B-4CD0-8D13-3DA476C68148" bpmn2nodeid="_C0F94E2B-F15B-4CD0-8D13-3DA476C68148" transform="matrix(1,0,0,1,2632,240)"><g><path fill="none" stroke="none"/></g><g transform="matrix(1,0,0,1,0,0)"><path fill="#ffffff" stroke="none" id="_C0F94E2B-F15B-4CD0-8D13-3DA476C68148?shapeType=BACKGROUND" paint-order="stroke fill markers" d=" M 2 0 L 152 0 L 152 0 A 2 2 0 0 1 154 2 L 154 100 L 154 100 A 2 2 0 0 1 152 102 L 2 102 L 2 102 A 2 2 0 0 1 0 100 L 0 2 L 0 2.0000000000000004 A 2 2 0 0 1 1.9999999999999996 0 Z"/></g><g transform="matrix(1,0,0,1,0,0)"><path fill="none" stroke="#000000" id="_C0F94E2B-F15B-4CD0-8D13-3DA476C68148?shapeType=BORDER&amp;renderType=STROKE" paint-order="fill stroke markers" d=" M 2 0 L 152 0 L 152 0 A 2 2 0 0 1 154 2 L 154 100 L 154 100 A 2 2 0 0 1 152 102 L 2 102 L 2 102 A 2 2 0 0 1 0 100 L 0 2 L 0 2.0000000000000004 A 2 2 0 0 1 1.9999999999999996 0 Z" stroke-miterlimit="10" stroke-width="1.5" stroke-dasharray=""/></g><g><g transform="matrix(0.06,0,0,0.06,9.4,9.4)"><g transform="matrix(1,0,0,1,0,0)"><path fill="#393f44" stroke="none" id="_C0F94E2B-F15B-4CD0-8D13-3DA476C68148_task__T703__3wNP" paint-order="stroke fill markers" d=" M 0 0 M 197.3 130.2 C 194.4 127.29999999999998 189.60000000000002 127.29999999999998 186.70000000000002 130.2 L 130.20000000000002 186.7 C 127.30000000000001 189.6 127.30000000000001 194.39999999999998 130.20000000000002 197.29999999999998 L 186.70000000000002 253.79999999999998 C 188.10000000000002 255.29999999999998 190.10000000000002 255.99999999999997 192.00000000000003 255.99999999999997 C 193.90000000000003 255.99999999999997 195.90000000000003 255.29999999999998 197.30000000000004 253.69999999999996 C 200.20000000000005 250.79999999999995 200.20000000000005 245.99999999999997 197.30000000000004 243.09999999999997 L 146.2 192 L 197.29999999999998 140.8 C 200.2 137.9 200.2 133.1 197.3 130.2 Z"/></g><g transform="matrix(1,0,0,1,0,0)"><path fill="#393f44" stroke="none" id="_C0F94E2B-F15B-4CD0-8D13-3DA476C68148_task__T703__gqkB" paint-order="stroke fill markers" d=" M 0 0 M 261.3 130.2 C 258.40000000000003 127.29999999999998 253.60000000000002 127.29999999999998 250.70000000000002 130.2 C 247.8 133.1 247.8 137.89999999999998 250.70000000000002 140.79999999999998 L 301.8 191.89999999999998 L 250.7 243 C 247.79999999999998 245.9 247.79999999999998 250.7 250.7 253.6 C 252.1 255.29999999999998 254.1 256 256 256 C 257.9 256 259.9 255.3 261.3 253.8 L 317.8 197.3 C 320.7 194.4 320.7 189.60000000000002 317.8 186.70000000000002 L 261.3 130.2 Z"/></g><g transform="matrix(1,0,0,1,0,0)"><path fill="#393f44" stroke="none" id="_C0F94E2B-F15B-4CD0-8D13-3DA476C68148_task__T703__x19X" paint-order="stroke fill markers" d=" M 0 0 M 400 32 C 400 32 152.8 32 128 32 C 62 32 64 96 64 96 L 64 288 L 1 288 C 1 288 -4 416 78 416 L 320 416 C 368 416 384 368 384 336 C 384 314.2 384 224.4 384 160 L 448 160 L 448 96 C 448 96 449 32 400 32 Z M 0 0 M 78 383.9 C 68.5 383.9 61.6 381.09999999999997 55.5 374.9 C 43.4 362.4 37.5 339.59999999999997 34.9 320 L 256.9 320 C 257.09999999999997 322.7 257.29999999999995 325.4 257.59999999999997 328.2 C 259.99999999999994 351.59999999999997 264.7 370.09999999999997 271.9 383.9 L 78 383.9 L 78 383.9 Z M 0 0 M 352 336 C 352 345.9 349.6 360.3 342.9 371 C 337.2 380.1 330.4 384 320 384 C 285 384 288 288 288 288 L 96 288 L 96 96 L 96 95.9 L 96 95.10000000000001 C 96 90.60000000000001 97.6 78.30000000000001 104.7 71.20000000000002 C 106.5 69.40000000000002 111.9 64.00000000000001 128 64.00000000000001 L 356.5 64.00000000000001 C 354.4 72.80000000000001 352.8 81.80000000000001 352.2 89.9 C 352.2 90.5 352.09999999999997 91.10000000000001 352.09999999999997 91.7 C 352.09999999999997 92 352.09999999999997 92.3 352.09999999999997 92.60000000000001 C 352 94.8 352 96 352 96 L 352 160 L 352 336 Z"/></g></g></g><g transform="matrix(1,0,0,1,35,36)"><text fill="#000000" stroke="none" font-family="Open Sans" font-size="12pt" font-style="normal" font-weight="normal" text-decoration="normal" x="51.85546875" y="12" text-anchor="middle" dominant-baseline="alphabetic">Create result: </text><text fill="#000000" stroke="none" font-family="Open Sans" font-size="12pt" font-style="normal" font-weight="normal" text-decoration="normal" x="51.85546875" y="27" text-anchor="middle" dominant-baseline="alphabetic"> COMPLETED  </text></g></g><g transform="matrix(1,0,0,1,2632,240)"/><g id="_7C787087-3291-4B58-BC2A-8554F2999859" bpmn2nodeid="_7C787087-3291-4B58-BC2A-8554F2999859" transform="matrix(1,0,0,1,2816,263)"><g><path fill="none" stroke="none"/></g><g transform="matrix(0.125,0,0,0.125,0,0)"><g transform="matrix(1,0,0,1,0,0)"><path fill="#fce7e7" stroke="none" id="_7C787087-3291-4B58-BC2A-8554F2999859?shapeType=BACKGROUND" paint-order="stroke fill markers" d=" M 0 0 M 444 224 C 444 263.9 434.2 300.8 414.4 334.5 C 394.7 368.2 368 394.9 334.4 414.5 C 300.79999999999995 434.1 263.9 444 224 444 C 184.10000000000002 444 147.2 434.2 113.5 414.4 C 79.8 394.7 53.1 368 33.5 334.4 C 13.899999999999999 300.79999999999995 4 263.9 4 224 C 4 184.10000000000002 13.8 147.2 33.6 113.5 C 53.400000000000006 79.80000000000001 80.1 53.1 113.6 33.5 C 147.1 13.899999999999999 184.1 4 224 4 C 263.9 4 300.8 13.8 334.5 33.6 C 368.2 53.400000000000006 394.9 80.1 414.5 113.6 C 434.1 147.1 444 184.1 444 224 Z"/></g><g><g transform="matrix(1,0,0,1,0,0)"><g transform="matrix(1,0,0,1,0,0)"><path fill="#a30000" stroke="none" id="_7C787087-3291-4B58-BC2A-8554F2999859?shapeType=BORDER&amp;renderType=FILL" paint-order="stroke fill markers" d=" M 0 0 M 224 0 C 100.3 0 0 100.3 0 224 C 0 347.7 100.3 448 224 448 C 347.7 448 448 347.7 448 224 C 448 100.30000000000001 347.7 0 224 0 Z M 0 0 M 224 400 C 126.8 400 48 321.2 48 224 C 48 126.80000000000001 126.8 48 224 48 C 321.2 48 400 126.8 400 224 C 400 321.2 321.2 400 224 400 Z"/></g></g></g></g><g transform="matrix(1,0,0,1,28,61)"/></g><g transform="matrix(1,0,0,1,2816,263)"/><g id="_CD9E8F48-82BC-449C-BA39-C7DF59E0D2CF" bpmn2nodeid="_CD9E8F48-82BC-449C-BA39-C7DF59E0D2CF" transform="matrix(1,0,0,1,364,410)"><g><path fill="none" stroke="none"/></g><g transform="matrix(0.125,0,0,0.125,0,0)"><g transform="matrix(1,0,0,1,0,0)"><path fill="#fce7e7" stroke="none" id="_CD9E8F48-82BC-449C-BA39-C7DF59E0D2CF?shapeType=BACKGROUND" paint-order="stroke fill markers" d=" M 0 0 M 444 224 C 444 263.9 434.2 300.8 414.4 334.5 C 394.7 368.2 368 394.9 334.4 414.5 C 300.79999999999995 434.1 263.9 444 224 444 C 184.10000000000002 444 147.2 434.2 113.5 414.4 C 79.8 394.7 53.1 368 33.5 334.4 C 13.899999999999999 300.79999999999995 4 263.9 4 224 C 4 184.10000000000002 13.8 147.2 33.6 113.5 C 53.400000000000006 79.80000000000001 80.1 53.1 113.6 33.5 C 147.1 13.899999999999999 184.1 4 224 4 C 263.9 4 300.8 13.8 334.5 33.6 C 368.2 53.400000000000006 394.9 80.1 414.5 113.6 C 434.1 147.1 444 184.1 444 224 Z"/></g><g><g transform="matrix(1,0,0,1,0,0)"><g transform="matrix(1,0,0,1,0,0)"><path fill="#a30000" stroke="none" id="_CD9E8F48-82BC-449C-BA39-C7DF59E0D2CF?shapeType=BORDER&amp;renderType=FILL" paint-order="stroke fill markers" d=" M 0 0 M 224 0 C 100.3 0 0 100.3 0 224 C 0 347.7 100.3 448 224 448 C 347.7 448 448 347.7 448 224 C 448 100.30000000000001 347.7 0 224 0 Z M 0 0 M 224 400 C 126.8 400 48 321.2 48 224 C 48 126.80000000000001 126.8 48 224 48 C 321.2 48 400 126.8 400 224 C 400 321.2 321.2 400 224 400 Z"/></g></g></g></g><g transform="matrix(1,0,0,1,28,61)"/></g><g transform="matrix(1,0,0,1,364,410)"/><g id="_6F88B71A-AC30-43DE-8AC3-03F5B206AA80" bpmn2nodeid="_6F88B71A-AC30-43DE-8AC3-03F5B206AA80" transform="matrix(1,0,0,1,180,395)"><g><path fill="none" stroke="none"/></g><g transform="matrix(1,0,0,1,0,0)"><path fill="#ffffff" stroke="none" id="_6F88B71A-AC30-43DE-8AC3-03F5B206AA80?shapeType=BACKGROUND" paint-order="stroke fill markers" d=" M 2 0 L 152 0 L 152 0 A 2 2 0 0 1 154 2 L 154 100 L 154 100 A 2 2 0 0 1 152 102 L 2 102 L 2 102 A 2 2 0 0 1 0 100 L 0 2 L 0 2.0000000000000004 A 2 2 0 0 1 1.9999999999999996 0 Z"/></g><g transform="matrix(1,0,0,1,0,0)"><path fill="none" stroke="#000000" id="_6F88B71A-AC30-43DE-8AC3-03F5B206AA80?shapeType=BORDER&amp;renderType=STROKE" paint-order="fill stroke markers" d=" M 2 0 L 152 0 L 152 0 A 2 2 0 0 1 154 2 L 154 100 L 154 100 A 2 2 0 0 1 152 102 L 2 102 L 2 102 A 2 2 0 0 1 0 100 L 0 2 L 0 2.0000000000000004 A 2 2 0 0 1 1.9999999999999996 0 Z" stroke-miterlimit="10" stroke-width="1.5" stroke-dasharray=""/></g><g><g transform="matrix(0.06,0,0,0.06,9.4,9.4)"><g transform="matrix(1,0,0,1,0,0)"><path fill="#393f44" stroke="none" id="_6F88B71A-AC30-43DE-8AC3-03F5B206AA80_task__T703__3wNP" paint-order="stroke fill markers" d=" M 0 0 M 197.3 130.2 C 194.4 127.29999999999998 189.60000000000002 127.29999999999998 186.70000000000002 130.2 L 130.20000000000002 186.7 C 127.30000000000001 189.6 127.30000000000001 194.39999999999998 130.20000000000002 197.29999999999998 L 186.70000000000002 253.79999999999998 C 188.10000000000002 255.29999999999998 190.10000000000002 255.99999999999997 192.00000000000003 255.99999999999997 C 193.90000000000003 255.99999999999997 195.90000000000003 255.29999999999998 197.30000000000004 253.69999999999996 C 200.20000000000005 250.79999999999995 200.20000000000005 245.99999999999997 197.30000000000004 243.09999999999997 L 146.2 192 L 197.29999999999998 140.8 C 200.2 137.9 200.2 133.1 197.3 130.2 Z"/></g><g transform="matrix(1,0,0,1,0,0)"><path fill="#393f44" stroke="none" id="_6F88B71A-AC30-43DE-8AC3-03F5B206AA80_task__T703__gqkB" paint-order="stroke fill markers" d=" M 0 0 M 261.3 130.2 C 258.40000000000003 127.29999999999998 253.60000000000002 127.29999999999998 250.70000000000002 130.2 C 247.8 133.1 247.8 137.89999999999998 250.70000000000002 140.79999999999998 L 301.8 191.89999999999998 L 250.7 243 C 247.79999999999998 245.9 247.79999999999998 250.7 250.7 253.6 C 252.1 255.29999999999998 254.1 256 256 256 C 257.9 256 259.9 255.3 261.3 253.8 L 317.8 197.3 C 320.7 194.4 320.7 189.60000000000002 317.8 186.70000000000002 L 261.3 130.2 Z"/></g><g transform="matrix(1,0,0,1,0,0)"><path fill="#393f44" stroke="none" id="_6F88B71A-AC30-43DE-8AC3-03F5B206AA80_task__T703__x19X" paint-order="stroke fill markers" d=" M 0 0 M 400 32 C 400 32 152.8 32 128 32 C 62 32 64 96 64 96 L 64 288 L 1 288 C 1 288 -4 416 78 416 L 320 416 C 368 416 384 368 384 336 C 384 314.2 384 224.4 384 160 L 448 160 L 448 96 C 448 96 449 32 400 32 Z M 0 0 M 78 383.9 C 68.5 383.9 61.6 381.09999999999997 55.5 374.9 C 43.4 362.4 37.5 339.59999999999997 34.9 320 L 256.9 320 C 257.09999999999997 322.7 257.29999999999995 325.4 257.59999999999997 328.2 C 259.99999999999994 351.59999999999997 264.7 370.09999999999997 271.9 383.9 L 78 383.9 L 78 383.9 Z M 0 0 M 352 336 C 352 345.9 349.6 360.3 342.9 371 C 337.2 380.1 330.4 384 320 384 C 285 384 288 288 288 288 L 96 288 L 96 96 L 96 95.9 L 96 95.10000000000001 C 96 90.60000000000001 97.6 78.30000000000001 104.7 71.20000000000002 C 106.5 69.40000000000002 111.9 64.00000000000001 128 64.00000000000001 L 356.5 64.00000000000001 C 354.4 72.80000000000001 352.8 81.80000000000001 352.2 89.9 C 352.2 90.5 352.09999999999997 91.10000000000001 352.09999999999997 91.7 C 352.09999999999997 92 352.09999999999997 92.3 352.09999999999997 92.60000000000001 C 352 94.8 352 96 352 96 L 352 160 L 352 336 Z"/></g></g></g><g transform="matrix(1,0,0,1,35,36)"><text fill="#000000" stroke="none" font-family="Open Sans" font-size="12pt" font-style="normal" font-weight="normal" text-decoration="normal" x="51.85546875" y="12" text-anchor="middle" dominant-baseline="alphabetic">Create result: </text><text fill="#000000" stroke="none" font-family="Open Sans" font-size="12pt" font-style="normal" font-weight="normal" text-decoration="normal" x="51.85546875" y="27" text-anchor="middle" dominant-baseline="alphabetic">      FAILED       </text></g></g><g transform="matrix(1,0,0,1,180,395)"/><g id="_8CD6609F-4789-4D81-B24D-E2DB8EBFCDBB" bpmn2nodeid="_8CD6609F-4789-4D81-B24D-E2DB8EBFCDBB" transform="matrix(1,0,0,1,1442,263)"><g><path fill="none" stroke="none"/></g><g transform="matrix(0.125,0,0,0.125,0,0)"><g transform="matrix(1,0,0,1,0,0)"><path fill="#fef4ea" stroke="none" id="_8CD6609F-4789-4D81-B24D-E2DB8EBFCDBB?shapeType=BACKGROUND" paint-order="stroke fill markers" d=" M 0 0 M 224.4 4.3 C 216.4 4.3 208.4 7.3 202.3 13.399999999999999 L 13.5 202.2 C 1.3000000000000007 214.39999999999998 1.3000000000000007 234.2 13.5 246.39999999999998 L 202.2 435.09999999999997 C 208.29999999999998 441.2 216.39999999999998 444.2 224.29999999999998 444.2 C 232.2 444.2 240.29999999999998 441.2 246.39999999999998 435.09999999999997 L 435.09999999999997 246.39999999999998 C 447.29999999999995 234.2 447.29999999999995 214.39999999999998 435.09999999999997 202.2 L 246.5 13.4 C 240.4 7.3 232.4 4.3 224.4 4.3 L 224.4 4.3 Z"/></g><g><g transform="matrix(1,0,0,1,0,0)"><g transform="matrix(1,0,0,1,0,0)"><path fill="#ec7a08" stroke="none" id="_8CD6609F-4789-4D81-B24D-E2DB8EBFCDBB?shapeType=BORDER&amp;renderType=FILL" paint-order="stroke fill markers" d=" M 0 0 M 20.8 212.7 L 213.3 20.2 C 219.60000000000002 13.899999999999999 229.70000000000002 13.899999999999999 235.9 20.2 L 428.4 212.7 C 434.7 219 434.7 229.1 428.4 235.29999999999998 L 235.9 427.8 C 229.6 434.1 219.5 434.1 213.3 427.8 L 20.8 235.3 C 14.5 229.1 14.5 218.9 20.8 212.7 L 20.8 212.7 Z M 0 0 M 0 224 C 0 232.1 3.1 240.3 9.3 246.5 L 201.5 438.7 C 213.9 451.09999999999997 234.1 451.09999999999997 246.5 438.7 L 438.7 246.5 C 444.9 240.3 448 232.1 448 224 C 448 215.9 444.9 207.7 438.7 201.5 L 246.5 9.3 C 234.1 -3.0999999999999996 213.9 -3.0999999999999996 201.5 9.3 L 9.3 201.5 C 3.1 207.7 0 215.9 0 224 L 0 224 Z"/></g></g></g><g><g transform="matrix(1,0,0,1,0,0)"><g transform="matrix(1,0,0,1,0,0)"><path fill="#ec7a08" stroke="none" id="_8CD6609F-4789-4D81-B24D-E2DB8EBFCDBB_exclusive" paint-order="stroke fill markers" d=" M 0 0 M 298.2 269.2 C 298.2 272.59999999999997 297.09999999999997 275.3 294.7 277.7 L 277.7 294.7 C 275.3 297.09999999999997 272.59999999999997 298.2 269.2 298.2 C 265.8 298.2 263.09999999999997 297.09999999999997 260.7 294.7 L 224 258 L 187.2 294.8 C 184.79999999999998 297.2 182.1 298.3 178.7 298.3 C 175.29999999999998 298.3 172.6 297.2 170.2 294.8 L 153.2 277.8 C 150.79999999999998 275.40000000000003 149.7 272.7 149.7 269.3 C 149.7 265.90000000000003 150.79999999999998 263.2 153.2 260.8 L 190 224 L 153.2 187.2 C 150.79999999999998 184.79999999999998 149.7 182 149.7 178.7 C 149.7 175.29999999999998 150.79999999999998 172.5 153.2 170.2 L 170.2 153.2 C 172.6 150.79999999999998 175.29999999999998 149.7 178.7 149.7 C 182.1 149.7 184.79999999999998 150.79999999999998 187.2 153.2 L 224 190 L 260.8 153.2 C 263.2 150.79999999999998 265.90000000000003 149.7 269.3 149.7 C 272.7 149.7 275.40000000000003 150.79999999999998 277.8 153.2 L 294.8 170.2 C 297.2 172.5 298.3 175.29999999999998 298.3 178.7 C 298.3 182 297.2 184.79999999999998 294.8 187.2 L 258 224 L 294.8 260.8 C 297.1 263.1 298.2 265.9 298.2 269.2 Z"/></g></g></g></g><g transform="matrix(1,0,0,1,28,61)"/></g><g transform="matrix(1,0,0,1,1442,263)"/><g id="_4C9BFDFB-52A1-4C33-B044-7D6CEF45D913" bpmn2nodeid="_4C9BFDFB-52A1-4C33-B044-7D6CEF45D913" transform="matrix(1,0,0,1,534,240)"><g><path fill="none" stroke="none"/></g><g transform="matrix(1,0,0,1,0,0)"><path fill="#ffffff" stroke="none" id="_4C9BFDFB-52A1-4C33-B044-7D6CEF45D913?shapeType=BACKGROUND" paint-order="stroke fill markers" d=" M 2 0 L 152 0 L 152 0 A 2 2 0 0 1 154 2 L 154 100 L 154 100 A 2 2 0 0 1 152 102 L 2 102 L 2 102 A 2 2 0 0 1 0 100 L 0 2 L 0 2.0000000000000004 A 2 2 0 0 1 1.9999999999999996 0 Z"/></g><g transform="matrix(1,0,0,1,0,0)"><path fill="none" stroke="#000000" id="_4C9BFDFB-52A1-4C33-B044-7D6CEF45D913?shapeType=BORDER&amp;renderType=STROKE" paint-order="fill stroke markers" d=" M 2 0 L 152 0 L 152 0 A 2 2 0 0 1 154 2 L 154 100 L 154 100 A 2 2 0 0 1 152 102 L 2 102 L 2 102 A 2 2 0 0 1 0 100 L 0 2 L 0 2.0000000000000004 A 2 2 0 0 1 1.9999999999999996 0 Z" stroke-miterlimit="10" stroke-width="1.5" stroke-dasharray=""/></g><g><g transform="matrix(1,0,0,1,0,0)"><g transform="matrix(1,0,0,1,10,10)"/></g></g><g transform="matrix(1,0,0,1,30,21)"><text fill="#000000" stroke="none" font-family="Open Sans" font-size="12pt" font-style="normal" font-weight="normal" text-decoration="normal" x="59.32421875" y="12" text-anchor="middle" dominant-baseline="alphabetic">REST_API_CALL: </text><text fill="#000000" stroke="none" font-family="Open Sans" font-size="12pt" font-style="normal" font-weight="normal" text-decoration="normal" x="59.32421875" y="27" text-anchor="middle" dominant-baseline="alphabetic">                             </text><text fill="#000000" stroke="none" font-family="Open Sans" font-size="12pt" font-style="normal" font-weight="normal" text-decoration="normal" x="59.32421875" y="42" text-anchor="middle" dominant-baseline="alphabetic">cross/findAddre</text><text fill="#000000" stroke="none" font-family="Open Sans" font-size="12pt" font-style="normal" font-weight="normal" text-decoration="normal" x="59.32421875" y="57" text-anchor="middle" dominant-baseline="alphabetic">            ss             </text></g></g><g transform="matrix(1,0,0,1,534,240)"/><g id="_ED6FD894-E488-4550-9DB1-80AFBD9C40F5" bpmn2nodeid="_ED6FD894-E488-4550-9DB1-80AFBD9C40F5" transform="matrix(1,0,0,1,1258,382)"><g><path fill="none" stroke="none"/></g><g transform="matrix(1,0,0,1,0,0)"><path fill="#ffffff" stroke="none" id="_ED6FD894-E488-4550-9DB1-80AFBD9C40F5?shapeType=BACKGROUND" paint-order="stroke fill markers" d=" M 2 0 L 152 0 L 152 0 A 2 2 0 0 1 154 2 L 154 100 L 154 100 A 2 2 0 0 1 152 102 L 2 102 L 2 102 A 2 2 0 0 1 0 100 L 0 2 L 0 2.0000000000000004 A 2 2 0 0 1 1.9999999999999996 0 Z"/></g><g transform="matrix(1,0,0,1,0,0)"><path fill="none" stroke="#000000" id="_ED6FD894-E488-4550-9DB1-80AFBD9C40F5?shapeType=BORDER&amp;renderType=STROKE" paint-order="fill stroke markers" d=" M 2 0 L 152 0 L 152 0 A 2 2 0 0 1 154 2 L 154 100 L 154 100 A 2 2 0 0 1 152 102 L 2 102 L 2 102 A 2 2 0 0 1 0 100 L 0 2 L 0 2.0000000000000004 A 2 2 0 0 1 1.9999999999999996 0 Z" stroke-miterlimit="10" stroke-width="1.5" stroke-dasharray=""/></g><g><g transform="matrix(1,0,0,1,0,0)"><g transform="matrix(1,0,0,1,10,10)"/></g></g><g transform="matrix(1,0,0,1,30,21)"><text fill="#000000" stroke="none" font-family="Open Sans" font-size="12pt" font-style="normal" font-weight="normal" text-decoration="normal" x="58.2734375" y="12" text-anchor="middle" dominant-baseline="alphabetic">REST_API_CALL:</text><text fill="#000000" stroke="none" font-family="Open Sans" font-size="12pt" font-style="normal" font-weight="normal" text-decoration="normal" x="58.2734375" y="27" text-anchor="middle" dominant-baseline="alphabetic">                            </text><text fill="#000000" stroke="none" font-family="Open Sans" font-size="12pt" font-style="normal" font-weight="normal" text-decoration="normal" x="58.2734375" y="42" text-anchor="middle" dominant-baseline="alphabetic">cross/createLoc</text><text fill="#000000" stroke="none" font-family="Open Sans" font-size="12pt" font-style="normal" font-weight="normal" text-decoration="normal" x="58.2734375" y="57" text-anchor="middle" dominant-baseline="alphabetic">          ality           </text></g></g><g transform="matrix(1,0,0,1,1258,382)"/><g id="_7965277E-5FD5-4E99-9D5D-79F42167F6A3" bpmn2nodeid="_7965277E-5FD5-4E99-9D5D-79F42167F6A3" transform="matrix(1,0,0,1,638,60)"><g><path fill="none" stroke="none"/></g><g transform="matrix(0.125,0,0,0.125,0,0)"><g transform="matrix(1,0,0,1,0,0)"><path fill="#bedee1" stroke="none" id="_7965277E-5FD5-4E99-9D5D-79F42167F6A3?shapeType=BACKGROUND" paint-order="stroke fill markers" d=" M 0 0 M 444 224 C 444 263.9 434.2 300.8 414.4 334.5 C 394.7 368.2 368 394.9 334.4 414.5 C 300.79999999999995 434.1 263.9 444 224 444 C 184.10000000000002 444 147.2 434.2 113.5 414.4 C 79.8 394.7 53.1 368 33.5 334.4 C 13.899999999999999 300.79999999999995 4 263.9 4 224 C 4 184.10000000000002 13.8 147.2 33.6 113.5 C 53.400000000000006 79.80000000000001 80.1 53.1 113.6 33.5 C 147.1 13.899999999999999 184.1 4 224 4 C 263.9 4 300.8 13.8 334.5 33.6 C 368.2 53.400000000000006 394.9 80.1 414.5 113.6 C 434.1 147.1 444 184.1 444 224 Z"/></g><g><g transform="matrix(1,0,0,1,0,0)"><g transform="matrix(1,0,0,1,0,0)"><path fill="#007a87" stroke="none" id="_7965277E-5FD5-4E99-9D5D-79F42167F6A3?shapeType=BORDER&amp;renderType=FILL" paint-order="stroke fill markers" d=" M 0 0 M 224 408 C 122.5 408 40 325.5 40 224 C 40 122.5 122.5 40 224 40 C 325.5 40 408 122.5 408 224 C 408 325.5 325.5 408 224 408 Z M 0 0 M 224 56 C 131.4 56 56 131.4 56 224 C 56 316.6 131.4 392 224 392 C 316.6 392 392 316.6 392 224 C 392 131.39999999999998 316.6 56 224 56 Z M 0 0 M 224 16 C 252.1 16 279.3 21.5 305 32.3 C 329.8 42.8 352 57.8 371.1 76.9 C 390.20000000000005 96.00000000000001 405.20000000000005 118.30000000000001 415.70000000000005 143 C 426.50000000000006 168.6 432.00000000000006 195.9 432.00000000000006 224 C 432.00000000000006 252.1 426.50000000000006 279.3 415.70000000000005 305 C 405.20000000000005 329.8 390.20000000000005 352 371.1 371.1 C 352 390.20000000000005 329.70000000000005 405.20000000000005 305 415.70000000000005 C 279.4 426.50000000000006 252.1 432.00000000000006 224 432.00000000000006 C 195.9 432.00000000000006 168.7 426.50000000000006 143 415.70000000000005 C 118.2 405.20000000000005 96 390.20000000000005 76.9 371.1 C 57.80000000000001 352 42.8 329.7 32.3 305 C 21.5 279.3 16 252.1 16 224 C 16 195.9 21.5 168.7 32.3 143 C 42.8 118.2 57.8 96 76.9 76.9 C 96.00000000000001 57.80000000000001 118.30000000000001 42.800000000000004 143 32.300000000000004 C 168.7 21.5 195.9 16 224 16 M 224 0 C 100.3 0 0 100.3 0 224 C 0 347.7 100.3 448 224 448 C 347.7 448 448 347.7 448 224 C 448 100.30000000000001 347.7 0 224 0 L 224 0 Z"/></g></g></g><g><g transform="matrix(1,0,0,1,0,0)"><g transform="matrix(1,0,0,1,0,0)"><path fill="#007a87" stroke="none" id="_7965277E-5FD5-4E99-9D5D-79F42167F6A3_link-throwing" paint-order="stroke fill markers" d=" M 0 0 M 222.8 131.3 C 218.5 131.3 214.70000000000002 132.9 211.60000000000002 136.10000000000002 L 202.3 145.50000000000003 C 199.10000000000002 148.50000000000003 197.5 152.30000000000004 197.5 156.70000000000002 C 197.5 161.1 199.1 164.9 202.3 167.9 L 238.9 204.7 L 142.9 204.7 C 138.5 204.7 135 206.29999999999998 132.3 209.39999999999998 C 129.60000000000002 212.49999999999997 128.3 216.29999999999998 128.3 220.7 L 128.3 236.7 C 128.3 241.1 129.60000000000002 244.89999999999998 132.3 248 C 135 251.10000000000002 138.5 252.7 142.9 252.7 L 238.9 252.7 L 202.3 289.3 C 199.10000000000002 292.5 197.5 296.3 197.5 300.7 C 197.5 305.09999999999997 199.1 308.9 202.3 312.09999999999997 L 211.70000000000002 321.49999999999994 C 214.9 324.59999999999997 218.70000000000002 326.09999999999997 222.9 326.09999999999997 C 227.3 326.09999999999997 231 324.59999999999997 234.3 321.49999999999994 L 315.70000000000005 240.09999999999994 C 318.80000000000007 236.99999999999994 320.30000000000007 233.19999999999993 320.30000000000007 228.69999999999993 C 320.30000000000007 224.09999999999994 318.80000000000007 220.39999999999992 315.70000000000005 217.49999999999994 L 234.30000000000004 136.19999999999993 C 231.1 132.9 227.3 131.3 222.8 131.3 L 222.8 131.3 Z"/></g></g></g></g><g transform="matrix(1,0,0,1,5.984375,61)"><text fill="#000000" stroke="none" font-family="Open Sans" font-size="12pt" font-style="normal" font-weight="normal" text-decoration="normal" x="22.015625" y="12" text-anchor="middle" dominant-baseline="alphabetic">Failed</text></g></g><g transform="matrix(1,0,0,1,638,60)"/><g id="_E61C3884-1C08-4262-A0A6-A8F448F0D774" bpmn2nodeid="_E61C3884-1C08-4262-A0A6-A8F448F0D774" transform="matrix(1,0,0,1,988,240)"><g><path fill="none" stroke="none"/></g><g transform="matrix(1,0,0,1,0,0)"><path fill="#ffffff" stroke="none" id="_E61C3884-1C08-4262-A0A6-A8F448F0D774?shapeType=BACKGROUND" paint-order="stroke fill markers" d=" M 2 0 L 152 0 L 152 0 A 2 2 0 0 1 154 2 L 154 100 L 154 100 A 2 2 0 0 1 152 102 L 2 102 L 2 102 A 2 2 0 0 1 0 100 L 0 2 L 0 2.0000000000000004 A 2 2 0 0 1 1.9999999999999996 0 Z"/></g><g transform="matrix(1,0,0,1,0,0)"><path fill="none" stroke="#000000" id="_E61C3884-1C08-4262-A0A6-A8F448F0D774?shapeType=BORDER&amp;renderType=STROKE" paint-order="fill stroke markers" d=" M 2 0 L 152 0 L 152 0 A 2 2 0 0 1 154 2 L 154 100 L 154 100 A 2 2 0 0 1 152 102 L 2 102 L 2 102 A 2 2 0 0 1 0 100 L 0 2 L 0 2.0000000000000004 A 2 2 0 0 1 1.9999999999999996 0 Z" stroke-miterlimit="10" stroke-width="1.5" stroke-dasharray=""/></g><g><g transform="matrix(1,0,0,1,0,0)"><g transform="matrix(1,0,0,1,10,10)"/></g></g><g transform="matrix(1,0,0,1,30,21)"><text fill="#000000" stroke="none" font-family="Open Sans" font-size="12pt" font-style="normal" font-weight="normal" text-decoration="normal" x="58.03515625" y="12" text-anchor="middle" dominant-baseline="alphabetic">REST_API_CALL:</text><text fill="#000000" stroke="none" font-family="Open Sans" font-size="12pt" font-style="normal" font-weight="normal" text-decoration="normal" x="58.03515625" y="27" text-anchor="middle" dominant-baseline="alphabetic">                            </text><text fill="#000000" stroke="none" font-family="Open Sans" font-size="12pt" font-style="normal" font-weight="normal" text-decoration="normal" x="58.03515625" y="42" text-anchor="middle" dominant-baseline="alphabetic">cross/findBuildi</text><text fill="#000000" stroke="none" font-family="Open Sans" font-size="12pt" font-style="normal" font-weight="normal" text-decoration="normal" x="58.03515625" y="57" text-anchor="middle" dominant-baseline="alphabetic">           ng            </text></g></g><g transform="matrix(1,0,0,1,988,240)"/><g id="_984B0C4A-DB9A-44D6-9482-3489D07B0699" bpmn2nodeid="_984B0C4A-DB9A-44D6-9482-3489D07B0699" transform="matrix(1,0,0,1,1528,240)"><g><path fill="none" stroke="none"/></g><g transform="matrix(1,0,0,1,0,0)"><path fill="#ffffff" stroke="none" id="_984B0C4A-DB9A-44D6-9482-3489D07B0699?shapeType=BACKGROUND" paint-order="stroke fill markers" d=" M 2 0 L 152 0 L 152 0 A 2 2 0 0 1 154 2 L 154 100 L 154 100 A 2 2 0 0 1 152 102 L 2 102 L 2 102 A 2 2 0 0 1 0 100 L 0 2 L 0 2.0000000000000004 A 2 2 0 0 1 1.9999999999999996 0 Z"/></g><g transform="matrix(1,0,0,1,0,0)"><path fill="none" stroke="#000000" id="_984B0C4A-DB9A-44D6-9482-3489D07B0699?shapeType=BORDER&amp;renderType=STROKE" paint-order="fill stroke markers" d=" M 2 0 L 152 0 L 152 0 A 2 2 0 0 1 154 2 L 154 100 L 154 100 A 2 2 0 0 1 152 102 L 2 102 L 2 102 A 2 2 0 0 1 0 100 L 0 2 L 0 2.0000000000000004 A 2 2 0 0 1 1.9999999999999996 0 Z" stroke-miterlimit="10" stroke-width="1.5" stroke-dasharray=""/></g><g><g transform="matrix(1,0,0,1,0,0)"><g transform="matrix(1,0,0,1,10,10)"/></g></g><g transform="matrix(1,0,0,1,30,21)"><text fill="#000000" stroke="none" font-family="Open Sans" font-size="12pt" font-style="normal" font-weight="normal" text-decoration="normal" x="59.53515625" y="12" text-anchor="middle" dominant-baseline="alphabetic">REST_API_CALL: </text><text fill="#000000" stroke="none" font-family="Open Sans" font-size="12pt" font-style="normal" font-weight="normal" text-decoration="normal" x="59.53515625" y="27" text-anchor="middle" dominant-baseline="alphabetic">                             </text><text fill="#000000" stroke="none" font-family="Open Sans" font-size="12pt" font-style="normal" font-weight="normal" text-decoration="normal" x="59.53515625" y="42" text-anchor="middle" dominant-baseline="alphabetic">cross/findEdgeE</text><text fill="#000000" stroke="none" font-family="Open Sans" font-size="12pt" font-style="normal" font-weight="normal" text-decoration="normal" x="59.53515625" y="57" text-anchor="middle" dominant-baseline="alphabetic"> quipmentCage </text></g></g><g transform="matrix(1,0,0,1,1528,240)"/><g id="_8D7FF98F-68B2-41E4-A3D5-FC16BA33A194" bpmn2nodeid="_8D7FF98F-68B2-41E4-A3D5-FC16BA33A194" transform="matrix(1,0,0,1,1896,240)"><g><path fill="none" stroke="none"/></g><g transform="matrix(1,0,0,1,0,0)"><path fill="#ffffff" stroke="none" id="_8D7FF98F-68B2-41E4-A3D5-FC16BA33A194?shapeType=BACKGROUND" paint-order="stroke fill markers" d=" M 2 0 L 152 0 L 152 0 A 2 2 0 0 1 154 2 L 154 100 L 154 100 A 2 2 0 0 1 152 102 L 2 102 L 2 102 A 2 2 0 0 1 0 100 L 0 2 L 0 2.0000000000000004 A 2 2 0 0 1 1.9999999999999996 0 Z"/></g><g transform="matrix(1,0,0,1,0,0)"><path fill="none" stroke="#000000" id="_8D7FF98F-68B2-41E4-A3D5-FC16BA33A194?shapeType=BORDER&amp;renderType=STROKE" paint-order="fill stroke markers" d=" M 2 0 L 152 0 L 152 0 A 2 2 0 0 1 154 2 L 154 100 L 154 100 A 2 2 0 0 1 152 102 L 2 102 L 2 102 A 2 2 0 0 1 0 100 L 0 2 L 0 2.0000000000000004 A 2 2 0 0 1 1.9999999999999996 0 Z" stroke-miterlimit="10" stroke-width="1.5" stroke-dasharray=""/></g><g><g transform="matrix(1,0,0,1,0,0)"><g transform="matrix(1,0,0,1,10,10)"/></g></g><g transform="matrix(1,0,0,1,30,21)"><text fill="#000000" stroke="none" font-family="Open Sans" font-size="12pt" font-style="normal" font-weight="normal" text-decoration="normal" x="59.4375" y="12" text-anchor="middle" dominant-baseline="alphabetic">REST_API_CALL: </text><text fill="#000000" stroke="none" font-family="Open Sans" font-size="12pt" font-style="normal" font-weight="normal" text-decoration="normal" x="59.4375" y="27" text-anchor="middle" dominant-baseline="alphabetic">                             </text><text fill="#000000" stroke="none" font-family="Open Sans" font-size="12pt" font-style="normal" font-weight="normal" text-decoration="normal" x="59.4375" y="42" text-anchor="middle" dominant-baseline="alphabetic">cross/createOpt</text><text fill="#000000" stroke="none" font-family="Open Sans" font-size="12pt" font-style="normal" font-weight="normal" text-decoration="normal" x="59.4375" y="57" text-anchor="middle" dominant-baseline="alphabetic">       icalPath        </text></g></g><g transform="matrix(1,0,0,1,1896,240)"/><g id="_0B938A52-6FB3-4108-8D77-A154FC4D8C0F" bpmn2nodeid="_0B938A52-6FB3-4108-8D77-A154FC4D8C0F" transform="matrix(1,0,0,1,80,410)"><g><path fill="none" stroke="none"/></g><g transform="matrix(0.125,0,0,0.125,0,0)"><g transform="matrix(1,0,0,1,0,0)"><path fill="#fbefcf" stroke="none" id="_0B938A52-6FB3-4108-8D77-A154FC4D8C0F?shapeType=BACKGROUND" paint-order="stroke fill markers" d=" M 0 0 M 444 224 C 444 263.9 434.2 300.8 414.4 334.5 C 394.7 368.2 368 394.9 334.4 414.5 C 300.79999999999995 434.1 263.9 444 224 444 C 184.10000000000002 444 147.2 434.2 113.5 414.4 C 79.8 394.7 53.1 368 33.5 334.4 C 13.899999999999999 300.79999999999995 4 263.9 4 224 C 4 184.10000000000002 13.8 147.2 33.6 113.5 C 53.400000000000006 79.80000000000001 80.1 53.1 113.6 33.5 C 147.1 13.899999999999999 184.1 4 224 4 C 263.9 4 300.8 13.8 334.5 33.6 C 368.2 53.400000000000006 394.9 80.1 414.5 113.6 C 434.1 147.1 444 184.1 444 224 Z"/></g><g><g transform="matrix(1,0,0,1,0,0)"><g transform="matrix(1,0,0,1,0,0)"><path fill="#e5a000" stroke="none" id="_0B938A52-6FB3-4108-8D77-A154FC4D8C0F?shapeType=BORDER&amp;renderType=FILL" paint-order="stroke fill markers" d=" M 0 0 M 224 408 C 122.5 408 40 325.5 40 224 C 40 122.5 122.5 40 224 40 C 325.5 40 408 122.5 408 224 C 408 325.5 325.5 408 224 408 Z M 0 0 M 224 56 C 131.4 56 56 131.4 56 224 C 56 316.6 131.4 392 224 392 C 316.6 392 392 316.6 392 224 C 392 131.39999999999998 316.6 56 224 56 Z M 0 0 M 224 16 C 252.1 16 279.3 21.5 305 32.3 C 329.8 42.8 352 57.8 371.1 76.9 C 390.20000000000005 96.00000000000001 405.20000000000005 118.30000000000001 415.70000000000005 143 C 426.50000000000006 168.6 432.00000000000006 195.9 432.00000000000006 224 C 432.00000000000006 252.1 426.50000000000006 279.3 415.70000000000005 305 C 405.20000000000005 329.8 390.20000000000005 352 371.1 371.1 C 352 390.20000000000005 329.70000000000005 405.20000000000005 305 415.70000000000005 C 279.4 426.50000000000006 252.1 432.00000000000006 224 432.00000000000006 C 195.9 432.00000000000006 168.7 426.50000000000006 143 415.70000000000005 C 118.2 405.20000000000005 96 390.20000000000005 76.9 371.1 C 57.80000000000001 352 42.8 329.7 32.3 305 C 21.5 279.3 16 252.1 16 224 C 16 195.9 21.5 168.7 32.3 143 C 42.8 118.2 57.8 96 76.9 76.9 C 96.00000000000001 57.80000000000001 118.30000000000001 42.800000000000004 143 32.300000000000004 C 168.7 21.5 195.9 16 224 16 M 224 0 C 100.3 0 0 100.3 0 224 C 0 347.7 100.3 448 224 448 C 347.7 448 448 347.7 448 224 C 448 100.30000000000001 347.7 0 224 0 L 224 0 Z"/></g></g></g><g><g transform="matrix(1,0,0,1,0,0)"><g transform="matrix(1,0,0,1,0,0)"><path fill="#e5a000" stroke="none" id="_0B938A52-6FB3-4108-8D77-A154FC4D8C0F_link-catching" paint-order="stroke fill markers" d=" M 0 0 M 222.9 147.4 L 222.9 147.4 L 304.2 228.7 C 304.2 228.79999999999998 304.2 228.79999999999998 304.2 228.79999999999998 L 223.1 310 C 223 310 223 310.1 222.9 310.1 L 222.8 310.1 C 222.70000000000002 310.1 222.70000000000002 310 222.70000000000002 310 L 213.50000000000003 300.8 L 213.40000000000003 300.8 L 213.50000000000003 300.8 L 250.10000000000002 264.2 L 277.40000000000003 236.89999999999998 L 144.2 236.89999999999998 L 144.2 220.89999999999998 L 277.29999999999995 220.89999999999998 L 250.09999999999997 193.59999999999997 L 213.49999999999997 156.79999999999995 L 222.9 147.4 M 222.8 131.3 C 218.5 131.3 214.70000000000002 132.9 211.60000000000002 136.10000000000002 L 202.3 145.50000000000003 C 199.10000000000002 148.50000000000003 197.5 152.30000000000004 197.5 156.70000000000002 C 197.5 161.1 199.1 164.9 202.3 167.9 L 238.9 204.7 L 142.9 204.7 C 138.5 204.7 135 206.29999999999998 132.3 209.39999999999998 C 129.60000000000002 212.49999999999997 128.3 216.29999999999998 128.3 220.7 L 128.3 236.7 C 128.3 241.1 129.60000000000002 244.89999999999998 132.3 248 C 135 251.10000000000002 138.5 252.7 142.9 252.7 L 238.9 252.7 L 202.3 289.3 C 199.10000000000002 292.5 197.5 296.3 197.5 300.7 C 197.5 305.09999999999997 199.1 308.9 202.3 312.09999999999997 L 211.70000000000002 321.49999999999994 C 214.9 324.59999999999997 218.70000000000002 326.09999999999997 222.9 326.09999999999997 C 227.3 326.09999999999997 231 324.59999999999997 234.3 321.49999999999994 L 315.70000000000005 240.09999999999994 C 318.80000000000007 236.99999999999994 320.30000000000007 233.19999999999993 320.30000000000007 228.69999999999993 C 320.30000000000007 224.09999999999994 318.80000000000007 220.39999999999992 315.70000000000005 217.49999999999994 L 234.30000000000004 136.19999999999993 C 231.1 132.9 227.3 131.3 222.8 131.3 L 222.8 131.3 Z"/></g></g></g></g><g transform="matrix(1,0,0,1,5.984375,61)"><text fill="#000000" stroke="none" font-family="Open Sans" font-size="12pt" font-style="normal" font-weight="normal" text-decoration="normal" x="22.015625" y="12" text-anchor="middle" dominant-baseline="alphabetic">Failed</text></g></g><g transform="matrix(1,0,0,1,80,410)"/><g id="_SF00001-FFFF-FFFF-FFFF-FFFFFFFFFFFF" bpmn2nodeid="_SF00001-FFFF-FFFF-FFFF-FFFFFFFFFFFF"><g><path fill="none" stroke="#000000" paint-order="fill stroke markers" d=" M 116 291 L 151 291" stroke-miterlimit="10" stroke-dasharray=""/></g><g transform="matrix(1,0,0,1,116,291)"/><g transform="matrix(6.123233995736766e-17,1,-1,6.123233995736766e-17,166,286)"><path fill="#000000" stroke="#000000" paint-order="fill stroke markers" d=" M 10 15 L 0 15 L 5 0 Z" stroke-miterlimit="10" stroke-dasharray=""/></g><g transform="matrix(1,0,0,1,116,281)"/></g><g id="_SF00002-FFFF-FFFF-FFFF-FFFFFFFFFFFF" bpmn2nodeid="_SF00002-FFFF-FFFF-FFFF-FFFFFFFFFFFF"><g><path fill="none" stroke="#000000" paint-order="fill stroke markers" d=" M 320 291 L 335 291" stroke-miterlimit="10" stroke-dasharray=""/></g><g transform="matrix(1,0,0,1,320,291)"/><g transform="matrix(6.123233995736766e-17,1,-1,6.123233995736766e-17,350,286)"><path fill="#000000" stroke="#000000" paint-order="fill stroke markers" d=" M 10 15 L 0 15 L 5 0 Z" stroke-miterlimit="10" stroke-dasharray=""/></g><g transform="matrix(1,0,0,1,320,281)"/></g><g id="_SF00003-FFFF-FFFF-FFFF-FFFFFFFFFFFF" bpmn2nodeid="_SF00003-FFFF-FFFF-FFFF-FFFFFFFFFFFF"><g><path fill="none" stroke="#000000" paint-order="fill stroke markers" d=" M 504 291 L 519 291" stroke-miterlimit="10" stroke-dasharray=""/></g><g transform="matrix(1,0,0,1,504,291)"/><g transform="matrix(6.123233995736766e-17,1,-1,6.123233995736766e-17,534,286)"><path fill="#000000" stroke="#000000" paint-order="fill stroke markers" d=" M 10 15 L 0 15 L 5 0 Z" stroke-miterlimit="10" stroke-dasharray=""/></g><g transform="matrix(1,0,0,1,504,281)"/></g><g id="_SF00004-FFFF-FFFF-FFFF-FFFFFFFFFFFF" bpmn2nodeid="_SF00004-FFFF-FFFF-FFFF-FFFFFFFFFFFF"><g><path fill="none" stroke="#000000" paint-order="fill stroke markers" d=" M 688 291 L 759 291" stroke-miterlimit="10" stroke-dasharray=""/></g><g transform="matrix(1,0,0,1,688,291)"/><g transform="matrix(6.123233995736766e-17,1,-1,6.123233995736766e-17,774,286)"><path fill="#000000" stroke="#000000" paint-order="fill stroke markers" d=" M 10 15 L 0 15 L 5 0 Z" stroke-miterlimit="10" stroke-dasharray=""/></g><g transform="matrix(1,0,0,1,688,281)"/></g><g id="_SF00005-FFFF-FFFF-FFFF-FFFFFFFFFFFF" bpmn2nodeid="_SF00005-FFFF-FFFF-FFFF-FFFFFFFFFFFF"><g><path fill="none" stroke="#000000" paint-order="fill stroke markers" d=" M 774 291 L 789 291" stroke-miterlimit="10" stroke-dasharray=""/></g><g transform="matrix(1,0,0,1,774,291)"/><g transform="matrix(6.123233995736766e-17,1,-1,6.123233995736766e-17,804,286)"><path fill="#000000" stroke="#000000" paint-order="fill stroke markers" d=" M 10 15 L 0 15 L 5 0 Z" stroke-miterlimit="10" stroke-dasharray=""/></g><g transform="matrix(1,0,0,1,774,281)"/></g><g id="_SF00008-FFFF-FFFF-FFFF-FFFFFFFFFFFF" bpmn2nodeid="_SF00008-FFFF-FFFF-FFFF-FFFFFFFFFFFF"><g><path fill="none" stroke="#000000" paint-order="fill stroke markers" d=" M 958 291 L 973 291" stroke-miterlimit="10" stroke-dasharray=""/></g><g transform="matrix(1,0,0,1,958,291)"/><g transform="matrix(6.123233995736766e-17,1,-1,6.123233995736766e-17,988,286)"><path fill="#000000" stroke="#000000" paint-order="fill stroke markers" d=" M 10 15 L 0 15 L 5 0 Z" stroke-miterlimit="10" stroke-dasharray=""/></g><g transform="matrix(1,0,0,1,958,281)"/></g><g id="_SF00009-FFFF-FFFF-FFFF-FFFFFFFFFFFF" bpmn2nodeid="_SF00009-FFFF-FFFF-FFFF-FFFFFFFFFFFF"><g><path fill="none" stroke="#000000" paint-order="fill stroke markers" d=" M 1142 291 L 1213 291" stroke-miterlimit="10" stroke-dasharray=""/></g><g transform="matrix(1,0,0,1,1142,291)"/><g transform="matrix(6.123233995736766e-17,1,-1,6.123233995736766e-17,1228,286)"><path fill="#000000" stroke="#000000" paint-order="fill stroke markers" d=" M 10 15 L 0 15 L 5 0 Z" stroke-miterlimit="10" stroke-dasharray=""/></g><g transform="matrix(1,0,0,1,1142,281)"/></g><g id="_SF00010-FFFF-FFFF-FFFF-FFFFFFFFFFFF" bpmn2nodeid="_SF00010-FFFF-FFFF-FFFF-FFFFFFFFFFFF"><g><path fill="none" stroke="#000000" paint-order="fill stroke markers" d=" M 1228 291 L 1483 291" stroke-miterlimit="10" stroke-dasharray=""/></g><g transform="matrix(1,0,0,1,1228,291)"/><g transform="matrix(6.123233995736766e-17,1,-1,6.123233995736766e-17,1498,286)"><path fill="#000000" stroke="#000000" paint-order="fill stroke markers" d=" M 10 15 L 0 15 L 5 0 Z" stroke-miterlimit="10" stroke-dasharray=""/></g><g transform="matrix(1,0,0,1,1263,281)"/></g><g id="_SF00013-FFFF-FFFF-FFFF-FFFFFFFFFFFF" bpmn2nodeid="_SF00013-FFFF-FFFF-FFFF-FFFFFFFFFFFF"><g><path fill="none" stroke="#000000" paint-order="fill stroke markers" d=" M 1498 291 L 1513 291" stroke-miterlimit="10" stroke-dasharray=""/></g><g transform="matrix(1,0,0,1,1498,291)"/><g transform="matrix(6.123233995736766e-17,1,-1,6.123233995736766e-17,1528,286)"><path fill="#000000" stroke="#000000" paint-order="fill stroke markers" d=" M 10 15 L 0 15 L 5 0 Z" stroke-miterlimit="10" stroke-dasharray=""/></g><g transform="matrix(1,0,0,1,1498,281)"/></g><g id="_SF00014-FFFF-FFFF-FFFF-FFFFFFFFFFFF" bpmn2nodeid="_SF00014-FFFF-FFFF-FFFF-FFFFFFFFFFFF"><g><path fill="none" stroke="#000000" paint-order="fill stroke markers" d=" M 1682 291 L 1697 291" stroke-miterlimit="10" stroke-dasharray=""/></g><g transform="matrix(1,0,0,1,1682,291)"/><g transform="matrix(6.123233995736766e-17,1,-1,6.123233995736766e-17,1712,286)"><path fill="#000000" stroke="#000000" paint-order="fill stroke markers" d=" M 10 15 L 0 15 L 5 0 Z" stroke-miterlimit="10" stroke-dasharray=""/></g><g transform="matrix(1,0,0,1,1682,281)"/></g><g id="_SF00015-FFFF-FFFF-FFFF-FFFFFFFFFFFF" bpmn2nodeid="_SF00015-FFFF-FFFF-FFFF-FFFFFFFFFFFF"><g><path fill="none" stroke="#000000" paint-order="fill stroke markers" d=" M 1866 291 L 1881 291" stroke-miterlimit="10" stroke-dasharray=""/></g><g transform="matrix(1,0,0,1,1866,291)"/><g transform="matrix(6.123233995736766e-17,1,-1,6.123233995736766e-17,1896,286)"><path fill="#000000" stroke="#000000" paint-order="fill stroke markers" d=" M 10 15 L 0 15 L 5 0 Z" stroke-miterlimit="10" stroke-dasharray=""/></g><g transform="matrix(1,0,0,1,1866,281)"/></g><g id="_SF00016-FFFF-FFFF-FFFF-FFFFFFFFFFFF" bpmn2nodeid="_SF00016-FFFF-FFFF-FFFF-FFFFFFFFFFFF"><g><path fill="none" stroke="#000000" paint-order="fill stroke markers" d=" M 2050 291 L 2065 291" stroke-miterlimit="10" stroke-dasharray=""/></g><g transform="matrix(1,0,0,1,2050,291)"/><g transform="matrix(6.123233995736766e-17,1,-1,6.123233995736766e-17,2080,286)"><path fill="#000000" stroke="#000000" paint-order="fill stroke markers" d=" M 10 15 L 0 15 L 5 0 Z" stroke-miterlimit="10" stroke-dasharray=""/></g><g transform="matrix(1,0,0,1,2050,281)"/></g><g id="_SF00017-FFFF-FFFF-FFFF-FFFFFFFFFFFF" bpmn2nodeid="_SF00017-FFFF-FFFF-FFFF-FFFFFFFFFFFF"><g><path fill="none" stroke="#000000" paint-order="fill stroke markers" d=" M 2234 291 L 2249 291" stroke-miterlimit="10" stroke-dasharray=""/></g><g transform="matrix(1,0,0,1,2234,291)"/><g transform="matrix(6.123233995736766e-17,1,-1,6.123233995736766e-17,2264,286)"><path fill="#000000" stroke="#000000" paint-order="fill stroke markers" d=" M 10 15 L 0 15 L 5 0 Z" stroke-miterlimit="10" stroke-dasharray=""/></g><g transform="matrix(1,0,0,1,2234,281)"/></g><g id="_SF00018-FFFF-FFFF-FFFF-FFFFFFFFFFFF" bpmn2nodeid="_SF00018-FFFF-FFFF-FFFF-FFFFFFFFFFFF"><g><path fill="none" stroke="#000000" paint-order="fill stroke markers" d=" M 2418 291 L 2433 291" stroke-miterlimit="10" stroke-dasharray=""/></g><g transform="matrix(1,0,0,1,2418,291)"/><g transform="matrix(6.123233995736766e-17,1,-1,6.123233995736766e-17,2448,286)"><path fill="#000000" stroke="#000000" paint-order="fill stroke markers" d=" M 10 15 L 0 15 L 5 0 Z" stroke-miterlimit="10" stroke-dasharray=""/></g><g transform="matrix(1,0,0,1,2418,281)"/></g><g id="_SF00019-FFFF-FFFF-FFFF-FFFFFFFFFFFF" bpmn2nodeid="_SF00019-FFFF-FFFF-FFFF-FFFFFFFFFFFF"><g><path fill="none" stroke="#000000" paint-order="fill stroke markers" d=" M 2602 291 L 2617 291" stroke-miterlimit="10" stroke-dasharray=""/></g><g transform="matrix(1,0,0,1,2602,291)"/><g transform="matrix(6.123233995736766e-17,1,-1,6.123233995736766e-17,2632,286)"><path fill="#000000" stroke="#000000" paint-order="fill stroke markers" d=" M 10 15 L 0 15 L 5 0 Z" stroke-miterlimit="10" stroke-dasharray=""/></g><g transform="matrix(1,0,0,1,2602,281)"/></g><g id="_SF00020-FFFF-FFFF-FFFF-FFFFFFFFFFFF" bpmn2nodeid="_SF00020-FFFF-FFFF-FFFF-FFFFFFFFFFFF"><g><path fill="none" stroke="#000000" paint-order="fill stroke markers" d=" M 2786 291 L 2857 291" stroke-miterlimit="10" stroke-dasharray=""/></g><g transform="matrix(1,0,0,1,2786,291)"/><g transform="matrix(6.123233995736766e-17,1,-1,6.123233995736766e-17,2872,286)"><path fill="#000000" stroke="#000000" paint-order="fill stroke markers" d=" M 10 15 L 0 15 L 5 0 Z" stroke-miterlimit="10" stroke-dasharray=""/></g><g transform="matrix(1,0,0,1,2786,281)"/></g><g id="_SF00011-FFFF-FFFF-FFFF-FFFFFFFFFFFF" bpmn2nodeid="_SF00011-FFFF-FFFF-FFFF-FFFFFFFFFFFF"><g><path fill="none" stroke="#000000" paint-order="fill stroke markers" d=" M 1228 291 L 1287.5434487535765 370.02027778512036" stroke-miterlimit="10" stroke-dasharray=""/></g><g transform="matrix(1,0,0,1,1228,291)"/><g transform="matrix(-0.7986481476586392,0.6017982521089807,-0.6017982521089807,-0.7986481476586392,1300.5636632735045,378.9910087394551)"><path fill="#000000" stroke="#000000" paint-order="fill stroke markers" d=" M 10 15 L 0 15 L 5 0 Z" stroke-miterlimit="10" stroke-dasharray=""/></g><g transform="matrix(1,0,0,1,1235.9864814765865,319.4820174789102)"><text fill="#000000" stroke="none" font-family="Open Sans" font-size="10pt" font-style="normal" font-weight="normal" text-decoration="normal" x="0" y="8.8" text-anchor="start" dominant-baseline="alphabetic">Missing                   </text></g></g><g id="_SF00012-FFFF-FFFF-FFFF-FFFFFFFFFFFF" bpmn2nodeid="_SF00012-FFFF-FFFF-FFFF-FFFFFFFFFFFF"><g><path fill="none" stroke="#000000" paint-order="fill stroke markers" d=" M 1393.542253521127 382 L 1486.6898846863821 300.8529838928451" stroke-miterlimit="10" stroke-dasharray=""/></g><g transform="matrix(1,0,0,1,1393.542253521127,382)"/><g transform="matrix(0.6568655928563418,0.7540076875745276,-0.7540076875745276,0.6568655928563418,1494.7156720357184,287.22996156212736)"><path fill="#000000" stroke="#000000" paint-order="fill stroke markers" d=" M 10 15 L 0 15 L 5 0 Z" stroke-miterlimit="10" stroke-dasharray=""/></g><g transform="matrix(1,0,0,1,1400.1109094496903,328.9599231242547)"/></g><g id="_SF00006-FFFF-FFFF-FFFF-FFFFFFFFFFFF" bpmn2nodeid="_SF00006-FFFF-FFFF-FFFF-FFFFFFFFFFFF"><g><path fill="none" stroke="#000000" paint-order="fill stroke markers" d=" M 774 291 L 699.4996710798555 101.95541536513338" stroke-miterlimit="10" stroke-dasharray=""/></g><g transform="matrix(1,0,0,1,774,291)"/><g transform="matrix(0.9303610243422259,-0.3666447386570331,0.3666447386570331,0.9303610243422259,689.3481948782888,89.83322369328516)"><path fill="#000000" stroke="#000000" paint-order="fill stroke markers" d=" M 10 15 L 0 15 L 5 0 Z" stroke-miterlimit="10" stroke-dasharray=""/></g><g transform="matrix(1,0,0,1,706.6391363777187,174.83355261342965)"><text fill="#000000" stroke="none" font-family="Open Sans" font-size="10pt" font-style="normal" font-weight="normal" text-decoration="normal" x="0" y="8.8" text-anchor="start" dominant-baseline="alphabetic">Not found                                       </text></g></g><g id="_SF00021-FFFF-FFFF-FFFF-FFFFFFFFFFFF" bpmn2nodeid="_SF00021-FFFF-FFFF-FFFF-FFFFFFFFFFFF"><g><path fill="none" stroke="#000000" paint-order="fill stroke markers" d=" M 694 88 L 148.7071644398336 430.02955635494305" stroke-miterlimit="10" stroke-dasharray=""/></g><g transform="matrix(1,0,0,1,694,88)"/><g transform="matrix(-0.5313629096704628,-0.8471442959889063,0.8471442959889063,-0.5313629096704628,138.65681454835232,442.2357214799445)"><path fill="#000000" stroke="#000000" paint-order="fill stroke markers" d=" M 10 15 L 0 15 L 5 0 Z" stroke-miterlimit="10" stroke-dasharray=""/></g><g transform="matrix(1,0,0,1,335.5991994978139,254.52855704011094)"/></g><g id="_SF00023-FFFF-FFFF-FFFF-FFFFFFFFFFFF" bpmn2nodeid="_SF00023-FFFF-FFFF-FFFF-FFFFFFFFFFFF"><g><path fill="none" stroke="#000000" paint-order="fill stroke markers" d=" M 136 438 L 165.03267755259898 439.9195158712462" stroke-miterlimit="10" stroke-dasharray=""/></g><g transform="matrix(1,0,0,1,136,438)"/><g transform="matrix(-0.06597166918964689,0.9978214964934018,-0.9978214964934018,-0.06597166918964689,180.32985834594822,435.91998342662384)"><path fill="#000000" stroke="#000000" paint-order="fill stroke markers" d=" M 10 15 L 0 15 L 5 0 Z" stroke-miterlimit="10" stroke-dasharray=""/></g><g transform="matrix(1,0,0,1,136.65971669189645,429.4763304896114)"/></g><g id="_SF00024-FFFF-FFFF-FFFF-FFFFFFFFFFFF" bpmn2nodeid="_SF00024-FFFF-FFFF-FFFF-FFFFFFFFFFFF"><g><path fill="none" stroke="#000000" paint-order="fill stroke markers" d=" M 334 442.22085889570553 L 405.0180335940771 438.73531123464653" stroke-miterlimit="10" stroke-dasharray=""/></g><g transform="matrix(1,0,0,1,334,442.22085889570553)"/><g transform="matrix(0.04902074897643562,0.9987977603948606,-0.9987977603948606,0.04902074897643562,419.75489625511784,433.0060111980257)"><path fill="#000000" stroke="#000000" paint-order="fill stroke markers" d=" M 10 15 L 0 15 L 5 0 Z" stroke-miterlimit="10" stroke-dasharray=""/></g><g transform="matrix(1,0,0,1,334.4902074897644,430.1224518439042)"/></g><g id="_SF00007-FFFF-FFFF-FFFF-FFFFFFFFFFFF" bpmn2nodeid="_SF00007-FFFF-FFFF-FFFF-FFFFFFFFFFFF"><g><path fill="none" stroke="#000000" paint-order="fill stroke markers" d=" M 774 291 L 848.5003289201445 101.95541536513338" stroke-miterlimit="10" stroke-dasharray=""/></g><g transform="matrix(1,0,0,1,774,291)"/><g transform="matrix(0.930361024342226,0.3666447386570329,-0.3666447386570329,0.930361024342226,849.3481948782888,86.16677630671484)"><path fill="#000000" stroke="#000000" paint-order="fill stroke markers" d=" M 10 15 L 0 15 L 5 0 Z" stroke-miterlimit="10" stroke-dasharray=""/></g><g transform="matrix(1,0,0,1,786.6391363777187,174.83355261342965)"><text fill="#000000" stroke="none" font-family="Open Sans" font-size="10pt" font-style="normal" font-weight="normal" text-decoration="normal" x="0" y="8.8" text-anchor="start" dominant-baseline="alphabetic">Not unique                                      </text></g></g><g id="_SF00022-FFFF-FFFF-FFFF-FFFFFFFFFFFF" bpmn2nodeid="_SF00022-FFFF-FFFF-FFFF-FFFFFFFFFFFF"><g><path fill="none" stroke="#000000" paint-order="fill stroke markers" d=" M 854 88 L 149.48333098355138 431.4273456208315" stroke-miterlimit="10" stroke-dasharray=""/></g><g transform="matrix(1,0,0,1,854,88)"/><g transform="matrix(-0.4381769586112345,-0.8988887322367594,0.8988887322367594,-0.4381769586112345,138.19088479305617,442.4944436611838)"><path fill="#000000" stroke="#000000" paint-order="fill stroke markers" d=" M 10 15 L 0 15 L 5 0 Z" stroke-miterlimit="10" stroke-dasharray=""/></g><g transform="matrix(1,0,0,1,409.49289636243634,254.0111126776324)"/></g></g></g></svg>